<svg width="218" height="219" viewBox="0 0 218 219" fill="none" xmlns="http://www.w3.org/2000/svg">
<circle cx="108.992" cy="109.547" r="105.992" fill="#FFF8EE" stroke="#FFDDAB" stroke-width="6"/>
<circle cx="108.992" cy="109.547" r="105.992" stroke="#AF7B40" stroke-width="6"/>
<path d="M72.8202 121.926C72.8202 122.785 72.9439 123.449 73.1913 123.918C73.4517 124.387 73.8553 124.719 74.4022 124.914C74.9621 125.109 75.7173 125.207 76.6678 125.207V126.047C73.7512 125.943 71.9087 125.891 71.1405 125.891C70.3202 125.891 68.2694 125.943 64.9882 126.047V125.207C66.4074 125.207 67.4686 124.973 68.1718 124.504C68.8749 124.022 69.2264 123.163 69.2264 121.926V112.238C69.2264 110.949 69.0897 110.005 68.8163 109.406C68.5559 108.807 68.1066 108.41 67.4686 108.215C66.8436 108.02 65.8801 107.922 64.578 107.922V107.043C66.5311 107.004 68.1392 106.835 69.4022 106.535C70.6783 106.223 71.8176 105.715 72.8202 105.012V121.926ZM89.7147 104.895C91.5767 104.895 93.2369 105.331 94.6952 106.203C96.1665 107.076 97.3124 108.306 98.1327 109.895C98.966 111.483 99.3827 113.319 99.3827 115.402C99.3827 117.525 98.953 119.439 98.0936 121.145C97.2473 122.85 96.0559 124.191 94.5194 125.168C92.996 126.132 91.2447 126.613 89.2655 126.613C87.4165 126.613 85.7564 126.177 84.285 125.305C82.8137 124.432 81.6613 123.202 80.828 121.613C79.9947 120.012 79.578 118.156 79.578 116.047C79.578 113.938 79.9947 112.036 80.828 110.344C81.6744 108.651 82.8658 107.323 84.4022 106.359C85.9387 105.383 87.7095 104.895 89.7147 104.895ZM89.3436 105.598C88.1978 105.598 87.1757 106.008 86.2772 106.828C85.3918 107.648 84.7017 108.84 84.2069 110.402C83.7121 111.952 83.4647 113.794 83.4647 115.93C83.4647 118.221 83.7382 120.116 84.285 121.613C84.8319 123.098 85.5676 124.185 86.4921 124.875C87.4296 125.552 88.4777 125.891 89.6366 125.891C90.7824 125.891 91.7981 125.48 92.6835 124.66C93.5819 123.827 94.2785 122.629 94.7733 121.066C95.2681 119.504 95.5155 117.655 95.5155 115.52C95.5155 113.241 95.2421 111.359 94.6952 109.875C94.1483 108.391 93.4061 107.31 92.4686 106.633C91.5441 105.943 90.5025 105.598 89.3436 105.598ZM113.738 104.895C115.6 104.895 117.26 105.331 118.719 106.203C120.19 107.076 121.336 108.306 122.156 109.895C122.989 111.483 123.406 113.319 123.406 115.402C123.406 117.525 122.976 119.439 122.117 121.145C121.271 122.85 120.079 124.191 118.543 125.168C117.019 126.132 115.268 126.613 113.289 126.613C111.44 126.613 109.78 126.177 108.308 125.305C106.837 124.432 105.685 123.202 104.851 121.613C104.018 120.012 103.601 118.156 103.601 116.047C103.601 113.938 104.018 112.036 104.851 110.344C105.698 108.651 106.889 107.323 108.426 106.359C109.962 105.383 111.733 104.895 113.738 104.895ZM113.367 105.598C112.221 105.598 111.199 106.008 110.301 106.828C109.415 107.648 108.725 108.84 108.23 110.402C107.736 111.952 107.488 113.794 107.488 115.93C107.488 118.221 107.762 120.116 108.308 121.613C108.855 123.098 109.591 124.185 110.516 124.875C111.453 125.552 112.501 125.891 113.66 125.891C114.806 125.891 115.821 125.48 116.707 124.66C117.605 123.827 118.302 122.629 118.797 121.066C119.292 119.504 119.539 117.655 119.539 115.52C119.539 113.241 119.266 111.359 118.719 109.875C118.172 108.391 117.43 107.31 116.492 106.633C115.568 105.943 114.526 105.598 113.367 105.598ZM128.543 127.727L151.941 93.0781L152.703 93.6055L129.305 128.254L128.543 127.727ZM132.918 95.5977C134.103 95.5977 135.144 95.8581 136.043 96.3789C136.941 96.8867 137.638 97.6354 138.133 98.625C138.627 99.6016 138.875 100.767 138.875 102.121C138.875 103.449 138.614 104.621 138.094 105.637C137.586 106.652 136.883 107.44 135.984 108C135.086 108.56 134.064 108.84 132.918 108.84C131.733 108.84 130.691 108.586 129.793 108.078C128.894 107.557 128.198 106.809 127.703 105.832C127.208 104.842 126.961 103.677 126.961 102.336C126.961 101.021 127.215 99.8555 127.723 98.8398C128.243 97.8112 128.953 97.0169 129.851 96.457C130.763 95.8841 131.785 95.5977 132.918 95.5977ZM132.84 96.3203C130.782 96.3203 129.754 98.306 129.754 102.277C129.754 104.178 130.04 105.63 130.613 106.633C131.186 107.622 131.98 108.117 132.996 108.117C135.027 108.117 136.043 106.145 136.043 102.199C136.043 100.272 135.763 98.8138 135.203 97.8242C134.643 96.8216 133.855 96.3203 132.84 96.3203ZM147.801 113.371C148.986 113.371 150.027 113.632 150.926 114.152C151.824 114.66 152.521 115.409 153.016 116.398C153.51 117.375 153.758 118.54 153.758 119.895C153.758 121.21 153.497 122.382 152.976 123.41C152.469 124.426 151.759 125.214 150.848 125.773C149.949 126.333 148.933 126.613 147.801 126.613C146.603 126.613 145.555 126.359 144.656 125.852C143.771 125.331 143.081 124.582 142.586 123.605C142.091 122.616 141.844 121.444 141.844 120.09C141.844 118.775 142.098 117.609 142.605 116.594C143.126 115.578 143.836 114.79 144.734 114.23C145.646 113.658 146.668 113.371 147.801 113.371ZM147.723 114.094C145.665 114.094 144.637 116.079 144.637 120.051C144.637 121.952 144.917 123.404 145.476 124.406C146.049 125.396 146.85 125.891 147.879 125.891C149.897 125.891 150.906 123.918 150.906 119.973C150.906 118.046 150.626 116.587 150.066 115.598C149.519 114.595 148.738 114.094 147.723 114.094Z" fill="#AF7B40"/>
</svg>
