<svg width="218" height="219" viewBox="0 0 218 219" fill="none" xmlns="http://www.w3.org/2000/svg">
<circle cx="109.008" cy="109.547" r="105.992" fill="#FFF8EE" stroke="#FFDDAB" stroke-width="6"/>
<path d="M215 109.547C215 133.463 206.912 156.676 192.049 175.414C177.187 194.152 156.424 207.312 133.136 212.756C109.847 218.2 85.4023 215.609 63.7734 205.402" stroke="#AF7B40" stroke-width="6" stroke-linecap="round"/>
<path d="M74.3673 109.895C75.9038 106.561 78.3452 104.895 81.6915 104.895C82.7983 104.895 83.7879 105.077 84.6603 105.441C85.5327 105.806 86.2163 106.333 86.7111 107.023C87.2059 107.714 87.4532 108.521 87.4532 109.445C87.4532 110.435 87.1733 111.366 86.6134 112.238C86.0665 113.111 85.3374 113.872 84.4259 114.523C83.5275 115.161 82.5509 115.669 81.4962 116.047C82.7983 116.073 84.0092 116.314 85.129 116.77C86.2488 117.225 87.1538 117.902 87.8439 118.801C88.547 119.699 88.8986 120.806 88.8986 122.121C88.8986 124.061 88.1629 125.786 86.6915 127.297C85.2202 128.82 83.3322 129.999 81.0275 130.832C78.7358 131.665 76.4246 132.082 74.0939 132.082V131.359C75.9819 131.32 77.7657 130.93 79.4454 130.188C81.1251 129.458 82.4858 128.404 83.5275 127.023C84.5691 125.643 85.09 124.009 85.09 122.121C85.09 121.092 84.9142 120.168 84.5626 119.348C84.2241 118.514 83.7293 117.857 83.0782 117.375C82.4402 116.88 81.698 116.6 80.8517 116.535C80.7345 116.587 80.5262 116.672 80.2267 116.789C79.9272 116.906 79.6798 116.991 79.4845 117.043C79.2892 117.095 79.1199 117.121 78.9767 117.121C78.547 117.121 78.3322 116.952 78.3322 116.613C78.3322 116.379 78.4298 116.197 78.6251 116.066C78.8204 115.923 79.0678 115.852 79.3673 115.852C79.5366 115.852 79.7579 115.878 80.0314 115.93C80.3048 115.969 80.5522 115.995 80.7736 116.008C81.8152 115.214 82.5835 114.322 83.0782 113.332C83.5861 112.342 83.84 111.314 83.84 110.246C83.84 109.022 83.534 108.117 82.922 107.531C82.323 106.945 81.4702 106.652 80.3634 106.652C79.2436 106.652 78.228 106.952 77.3165 107.551C76.4051 108.137 75.6499 109.022 75.0509 110.207L74.3673 109.895ZM102.863 104.895C104.725 104.895 106.386 105.331 107.844 106.203C109.315 107.076 110.461 108.306 111.281 109.895C112.115 111.483 112.531 113.319 112.531 115.402C112.531 117.525 112.102 119.439 111.242 121.145C110.396 122.85 109.205 124.191 107.668 125.168C106.145 126.132 104.393 126.613 102.414 126.613C100.565 126.613 98.9051 126.177 97.4337 125.305C95.9624 124.432 94.81 123.202 93.9767 121.613C93.1434 120.012 92.7267 118.156 92.7267 116.047C92.7267 113.938 93.1434 112.036 93.9767 110.344C94.823 108.651 96.0144 107.323 97.5509 106.359C99.0874 105.383 100.858 104.895 102.863 104.895ZM102.492 105.598C101.346 105.598 100.324 106.008 99.4259 106.828C98.5405 107.648 97.8504 108.84 97.3556 110.402C96.8608 111.952 96.6134 113.794 96.6134 115.93C96.6134 118.221 96.8868 120.116 97.4337 121.613C97.9806 123.098 98.7163 124.185 99.6407 124.875C100.578 125.552 101.626 125.891 102.785 125.891C103.931 125.891 104.947 125.48 105.832 124.66C106.731 123.827 107.427 122.629 107.922 121.066C108.417 119.504 108.664 117.655 108.664 115.52C108.664 113.241 108.391 111.359 107.844 109.875C107.297 108.391 106.555 107.31 105.617 106.633C104.693 105.943 103.651 105.598 102.492 105.598ZM117.668 127.727L141.067 93.0781L141.828 93.6055L118.43 128.254L117.668 127.727ZM122.043 95.5977C123.228 95.5977 124.27 95.8581 125.168 96.3789C126.067 96.8867 126.763 97.6354 127.258 98.625C127.753 99.6016 128 100.767 128 102.121C128 103.449 127.74 104.621 127.219 105.637C126.711 106.652 126.008 107.44 125.109 108C124.211 108.56 123.189 108.84 122.043 108.84C120.858 108.84 119.817 108.586 118.918 108.078C118.02 107.557 117.323 106.809 116.828 105.832C116.333 104.842 116.086 103.677 116.086 102.336C116.086 101.021 116.34 99.8555 116.848 98.8398C117.369 97.8112 118.078 97.0169 118.977 96.457C119.888 95.8841 120.91 95.5977 122.043 95.5977ZM121.965 96.3203C119.908 96.3203 118.879 98.306 118.879 102.277C118.879 104.178 119.165 105.63 119.738 106.633C120.311 107.622 121.106 108.117 122.121 108.117C124.152 108.117 125.168 106.145 125.168 102.199C125.168 100.272 124.888 98.8138 124.328 97.8242C123.768 96.8216 122.981 96.3203 121.965 96.3203ZM136.926 113.371C138.111 113.371 139.152 113.632 140.051 114.152C140.949 114.66 141.646 115.409 142.141 116.398C142.636 117.375 142.883 118.54 142.883 119.895C142.883 121.21 142.623 122.382 142.102 123.41C141.594 124.426 140.884 125.214 139.973 125.773C139.074 126.333 138.059 126.613 136.926 126.613C135.728 126.613 134.68 126.359 133.781 125.852C132.896 125.331 132.206 124.582 131.711 123.605C131.216 122.616 130.969 121.444 130.969 120.09C130.969 118.775 131.223 117.609 131.731 116.594C132.251 115.578 132.961 114.79 133.859 114.23C134.771 113.658 135.793 113.371 136.926 113.371ZM136.848 114.094C134.79 114.094 133.762 116.079 133.762 120.051C133.762 121.952 134.042 123.404 134.602 124.406C135.175 125.396 135.975 125.891 137.004 125.891C139.022 125.891 140.031 123.918 140.031 119.973C140.031 118.046 139.751 116.587 139.192 115.598C138.645 114.595 137.863 114.094 136.848 114.094Z" fill="#AF7B40"/>
</svg>
