<svg width="219" height="219" viewBox="0 0 219 219" fill="none" xmlns="http://www.w3.org/2000/svg">
<circle cx="109.669" cy="109.547" r="105.992" fill="#FFF8EE" stroke="#FFDDAB" stroke-width="6"/>
<path d="M215.661 109.547C215.661 133.463 207.573 156.677 192.711 175.414C177.848 194.152 157.085 207.312 133.797 212.756C110.509 218.201 86.0637 215.609 64.4348 205.402C42.8059 195.195 25.2647 177.973 14.6621 156.536C4.05943 135.098 1.01865 110.705 6.03394 87.3202C11.0492 63.9357 23.8257 42.9347 42.287 27.7304C60.7482 12.5261 83.8089 4.01234 107.721 3.57275" stroke="#AF7B40" stroke-width="6" stroke-linecap="round"/>
<path d="M94.2982 106.32C93.9076 107.245 93.0222 109.022 91.642 111.652C90.2748 114.283 89.2136 116.776 88.4584 119.133C87.7162 121.477 87.3581 124.022 87.3842 126.77C87.3842 127.238 87.4102 127.818 87.4623 128.508C87.5144 129.211 87.5404 129.686 87.5404 129.934C87.5404 130.533 87.3646 131.021 87.0131 131.398C86.6745 131.776 86.2253 131.965 85.6654 131.965C85.0795 131.965 84.6302 131.75 84.3177 131.32C84.0183 130.891 83.8685 130.357 83.8685 129.719C83.8685 126.789 84.4349 124.016 85.5677 121.398C86.7136 118.781 88.0482 116.21 89.5717 113.684C91.1081 111.158 92.0717 109.543 92.4623 108.84H82.9896C82.2605 108.84 81.7136 108.905 81.349 109.035C80.9974 109.152 80.75 109.348 80.6068 109.621C80.4766 109.895 80.3724 110.318 80.2943 110.891H79.6107C79.6107 108.26 79.5586 106.392 79.4545 105.285C80.0534 105.415 82.0391 105.48 85.4115 105.48H94.2982V106.32ZM107.99 103.449C107.99 106.158 108.042 108.104 108.146 109.289C107.573 109.159 105.724 109.094 102.599 109.094H98.3412L97.8724 116.809C98.6016 116.431 99.3177 116.138 100.021 115.93C100.724 115.708 101.57 115.598 102.56 115.598C104.122 115.598 105.431 115.865 106.486 116.398C107.54 116.919 108.328 117.648 108.849 118.586C109.37 119.51 109.63 120.572 109.63 121.77C109.63 123.749 108.979 125.513 107.677 127.062C106.388 128.612 104.721 129.816 102.677 130.676C100.633 131.535 98.5495 131.965 96.4271 131.965V131.242C98.0547 131.229 99.5847 130.878 101.017 130.188C102.449 129.497 103.608 128.469 104.494 127.102C105.379 125.734 105.822 124.087 105.822 122.16C105.822 120.467 105.385 119.152 104.513 118.215C103.641 117.277 102.397 116.809 100.783 116.809C100.132 116.809 99.5782 116.861 99.1224 116.965C98.6667 117.069 98.1263 117.245 97.5013 117.492L97.1107 117.238L97.8724 105.324C98.4063 105.428 99.1224 105.48 100.021 105.48H104.552C105.281 105.48 105.822 105.422 106.173 105.305C106.525 105.174 106.766 104.973 106.896 104.699C107.039 104.426 107.15 104.009 107.228 103.449H107.99ZM114.22 127.727L137.619 93.0781L138.38 93.6055L114.982 128.254L114.22 127.727ZM118.595 95.5977C119.78 95.5977 120.822 95.8581 121.72 96.3789C122.619 96.8867 123.315 97.6354 123.81 98.625C124.305 99.6016 124.552 100.767 124.552 102.121C124.552 103.449 124.292 104.621 123.771 105.637C123.263 106.652 122.56 107.44 121.661 108C120.763 108.56 119.741 108.84 118.595 108.84C117.41 108.84 116.369 108.586 115.47 108.078C114.572 107.557 113.875 106.809 113.38 105.832C112.885 104.842 112.638 103.677 112.638 102.336C112.638 101.021 112.892 99.8555 113.4 98.8398C113.921 97.8112 114.63 97.0169 115.529 96.457C116.44 95.8841 117.462 95.5977 118.595 95.5977ZM118.517 96.3203C116.46 96.3203 115.431 98.306 115.431 102.277C115.431 104.178 115.717 105.63 116.29 106.633C116.863 107.622 117.658 108.117 118.673 108.117C120.704 108.117 121.72 106.145 121.72 102.199C121.72 100.272 121.44 98.8138 120.88 97.8242C120.32 96.8216 119.533 96.3203 118.517 96.3203ZM133.478 113.371C134.663 113.371 135.704 113.632 136.603 114.152C137.501 114.66 138.198 115.409 138.693 116.398C139.188 117.375 139.435 118.54 139.435 119.895C139.435 121.21 139.175 122.382 138.654 123.41C138.146 124.426 137.436 125.214 136.525 125.773C135.626 126.333 134.611 126.613 133.478 126.613C132.28 126.613 131.232 126.359 130.333 125.852C129.448 125.331 128.758 124.582 128.263 123.605C127.768 122.616 127.521 121.444 127.521 120.09C127.521 118.775 127.775 117.609 128.283 116.594C128.803 115.578 129.513 114.79 130.411 114.23C131.323 113.658 132.345 113.371 133.478 113.371ZM133.4 114.094C131.342 114.094 130.314 116.079 130.314 120.051C130.314 121.952 130.594 123.404 131.154 124.406C131.727 125.396 132.527 125.891 133.556 125.891C135.574 125.891 136.583 123.918 136.583 119.973C136.583 118.046 136.303 116.587 135.744 115.598C135.197 114.595 134.415 114.094 133.4 114.094Z" fill="#AF7B40"/>
</svg>
