<svg width="219" height="219" viewBox="0 0 219 219" fill="none" xmlns="http://www.w3.org/2000/svg">
<circle cx="109.331" cy="109.547" r="105.992" fill="#FFF8EE" stroke="#FFDDAB" stroke-width="6"/>
<path d="M215.323 109.547C215.323 133.463 207.234 156.676 192.372 175.414C177.509 194.151 156.747 207.312 133.459 212.756C110.17 218.2 85.725 215.608 64.0962 205.402C42.4673 195.195 24.9261 177.973 14.3234 156.535C3.72081 135.098 0.680033 110.705 5.69532 87.32C10.7106 63.9355 23.4871 42.9345 41.9484 27.7303C60.4096 12.526 83.4703 4.01218 107.383 3.57259C131.295 3.133 154.653 10.7935 173.66 25.3089" stroke="#AF7B40" stroke-width="6" stroke-linecap="round"/>
<path d="M87.5026 110.031C88.9739 111.099 90.1263 112.004 90.9596 112.746C91.8059 113.488 92.5286 114.38 93.1276 115.422C93.7265 116.464 94.026 117.648 94.026 118.977C94.026 120.474 93.6549 121.802 92.9127 122.961C92.1705 124.12 91.1419 125.018 89.8268 125.656C88.5117 126.294 87.0273 126.613 85.3737 126.613C83.9153 126.613 82.5742 126.359 81.3502 125.852C80.1393 125.344 79.1627 124.589 78.4205 123.586C77.6914 122.57 77.3268 121.34 77.3268 119.895C77.3268 118.046 77.9127 116.398 79.0846 114.953C80.2565 113.508 81.8125 112.31 83.7526 111.359C82.6849 110.5 81.7929 109.699 81.0768 108.957C80.3606 108.215 79.7747 107.382 79.319 106.457C78.8763 105.533 78.6549 104.517 78.6549 103.41C78.6549 102.186 78.9739 101.105 79.6119 100.168C80.263 99.2174 81.1419 98.4818 82.2487 97.9609C83.3684 97.4271 84.6119 97.1602 85.9791 97.1602C87.2031 97.1602 88.3164 97.375 89.319 97.8047C90.3216 98.2214 91.1158 98.8464 91.7018 99.6797C92.2877 100.5 92.5807 101.49 92.5807 102.648C92.5807 104.081 92.138 105.396 91.2526 106.594C90.3802 107.792 89.1302 108.938 87.5026 110.031ZM85.5299 97.8828C84.8268 97.8828 84.1888 98.0586 83.6158 98.4102C83.0429 98.7617 82.5937 99.263 82.2682 99.9141C81.9427 100.552 81.7799 101.301 81.7799 102.16C81.7799 103.215 82.0013 104.172 82.444 105.031C82.8997 105.891 83.4856 106.665 84.2018 107.355C84.9179 108.033 85.8164 108.775 86.8971 109.582C88.5507 108.007 89.3776 105.871 89.3776 103.176C89.3776 101.561 89.039 100.279 88.3619 99.3281C87.6979 98.3646 86.7539 97.8828 85.5299 97.8828ZM85.608 125.891C86.5195 125.891 87.3528 125.689 88.108 125.285C88.8763 124.868 89.4817 124.27 89.9244 123.488C90.3802 122.694 90.608 121.75 90.608 120.656C90.608 119.419 90.3216 118.293 89.7487 117.277C89.1757 116.262 88.4921 115.389 87.6979 114.66C86.9166 113.918 85.8033 112.974 84.358 111.828C82.0273 113.534 80.8619 116.021 80.8619 119.289C80.8619 121.177 81.2461 122.753 82.0143 124.016C82.7825 125.266 83.9804 125.891 85.608 125.891ZM109.436 103.449C109.436 106.158 109.488 108.104 109.592 109.289C109.019 109.159 107.171 109.094 104.046 109.094H99.7877L99.319 116.809C100.048 116.431 100.764 116.138 101.467 115.93C102.171 115.708 103.017 115.598 104.006 115.598C105.569 115.598 106.878 115.865 107.932 116.398C108.987 116.919 109.775 117.648 110.296 118.586C110.816 119.51 111.077 120.572 111.077 121.77C111.077 123.749 110.426 125.513 109.124 127.062C107.835 128.612 106.168 129.816 104.124 130.676C102.079 131.535 99.9961 131.965 97.8737 131.965V131.242C99.5013 131.229 101.031 130.878 102.464 130.188C103.896 129.497 105.055 128.469 105.94 127.102C106.825 125.734 107.268 124.087 107.268 122.16C107.268 120.467 106.832 119.152 105.96 118.215C105.087 117.277 103.844 116.809 102.229 116.809C101.578 116.809 101.025 116.861 100.569 116.965C100.113 117.069 99.5729 117.245 98.9479 117.492L98.5573 117.238L99.319 105.324C99.8528 105.428 100.569 105.48 101.467 105.48H105.999C106.728 105.48 107.268 105.422 107.62 105.305C107.971 105.174 108.212 104.973 108.342 104.699C108.486 104.426 108.596 104.009 108.674 103.449H109.436ZM115.667 127.727L139.065 93.0781L139.827 93.6055L116.428 128.254L115.667 127.727ZM120.042 95.5977C121.227 95.5977 122.268 95.8581 123.167 96.3789C124.065 96.8867 124.762 97.6354 125.256 98.625C125.751 99.6016 125.999 100.767 125.999 102.121C125.999 103.449 125.738 104.621 125.217 105.637C124.71 106.652 124.006 107.44 123.108 108C122.21 108.56 121.187 108.84 120.042 108.84C118.857 108.84 117.815 108.586 116.917 108.078C116.018 107.557 115.322 106.809 114.827 105.832C114.332 104.842 114.085 103.677 114.085 102.336C114.085 101.021 114.339 99.8555 114.846 98.8398C115.367 97.8112 116.077 97.0169 116.975 96.457C117.887 95.8841 118.909 95.5977 120.042 95.5977ZM119.964 96.3203C117.906 96.3203 116.878 98.306 116.878 102.277C116.878 104.178 117.164 105.63 117.737 106.633C118.31 107.622 119.104 108.117 120.12 108.117C122.151 108.117 123.167 106.145 123.167 102.199C123.167 100.272 122.887 98.8138 122.327 97.8242C121.767 96.8216 120.979 96.3203 119.964 96.3203ZM134.924 113.371C136.109 113.371 137.151 113.632 138.049 114.152C138.948 114.66 139.644 115.409 140.139 116.398C140.634 117.375 140.881 118.54 140.881 119.895C140.881 121.21 140.621 122.382 140.1 123.41C139.592 124.426 138.883 125.214 137.971 125.773C137.073 126.333 136.057 126.613 134.924 126.613C133.727 126.613 132.678 126.359 131.78 125.852C130.894 125.331 130.204 124.582 129.71 123.605C129.215 122.616 128.967 121.444 128.967 120.09C128.967 118.775 129.221 117.609 129.729 116.594C130.25 115.578 130.96 114.79 131.858 114.23C132.769 113.658 133.792 113.371 134.924 113.371ZM134.846 114.094C132.789 114.094 131.76 116.079 131.76 120.051C131.76 121.952 132.04 123.404 132.6 124.406C133.173 125.396 133.974 125.891 135.003 125.891C137.021 125.891 138.03 123.918 138.03 119.973C138.03 118.046 137.75 116.587 137.19 115.598C136.643 114.595 135.862 114.094 134.846 114.094Z" fill="#AF7B40"/>
</svg>
