<svg width="80" height="37" viewBox="0 0 80 37" fill="none" xmlns="http://www.w3.org/2000/svg">
<circle cx="62.1368" cy="18.6973" r="17.3628" stroke="#704514"/>
<g clip-path="url(#clip0_3129_2726)">
<path d="M66.1252 19.1338C66.1252 19.3454 66.0444 19.557 65.8831 19.7183L60.8065 24.7949C60.4835 25.1178 59.9599 25.1178 59.6371 24.7949C59.3143 24.4721 59.3143 23.9486 59.6371 23.6256L64.1292 19.1338L59.6373 14.6419C59.3145 14.319 59.3145 13.7956 59.6373 13.4728C59.9601 13.1497 60.4837 13.1497 60.8066 13.4728L65.8833 18.5493C66.0445 18.7107 66.1252 18.9223 66.1252 19.1338Z" fill="#704514"/>
</g>
<circle cx="17.8628" cy="17.8628" r="17.3628" transform="matrix(-1 0 0 1 35.7256 0.834473)" stroke="#704514"/>
<g clip-path="url(#clip1_3129_2726)">
<path d="M13.8748 19.1328C13.8748 19.3444 13.9556 19.556 14.1169 19.7173L19.1935 24.7939C19.5165 25.1169 20.0401 25.1169 20.3629 24.7939C20.6857 24.4711 20.6857 23.9476 20.3629 23.6247L15.8708 19.1328L20.3627 14.641C20.6855 14.318 20.6855 13.7946 20.3627 13.4718C20.0399 13.1487 19.5163 13.1487 19.1934 13.4718L14.1167 18.5483C13.9555 18.7097 13.8748 18.9213 13.8748 19.1328Z" fill="#704514"/>
</g>
<defs>
<clipPath id="clip0_3129_2726">
<rect width="11.8067" height="11.8067" fill="white" transform="translate(56.8569 25.0371) rotate(-90)"/>
</clipPath>
<clipPath id="clip1_3129_2726">
<rect width="11.8067" height="11.8067" fill="white" transform="matrix(4.37114e-08 -1 -1 -4.37114e-08 23.1431 25.0361)"/>
</clipPath>
</defs>
</svg>
