<svg width="76" height="36" viewBox="0 0 76 36" fill="none" xmlns="http://www.w3.org/2000/svg">
<circle cx="17.5" cy="17.5" r="17" transform="matrix(-1 0 0 1 35 0.0351562)" stroke="#704514"/>
<g clip-path="url(#clip0_1263_1729)">
<path d="M13.5926 17.9617C13.5926 18.169 13.6718 18.3763 13.8297 18.5344L18.8033 23.5078C19.1196 23.8242 19.6326 23.8242 19.9488 23.5078C20.2651 23.1916 20.2651 22.6787 19.9488 22.3623L15.548 17.9617L19.9487 13.5611C20.2649 13.2447 20.2649 12.7319 19.9487 12.4157C19.6324 12.0992 19.1195 12.0992 18.8031 12.4157L13.8296 17.3891C13.6716 17.5472 13.5926 17.7545 13.5926 17.9617Z" fill="#704514"/>
</g>
<circle cx="58.5" cy="17.5352" r="17" stroke="#704514"/>
<g clip-path="url(#clip1_1263_1729)">
<path d="M62.4074 17.9617C62.4074 18.169 62.3282 18.3763 62.1703 18.5344L57.1967 23.5078C56.8804 23.8242 56.3674 23.8242 56.0512 23.5078C55.7349 23.1916 55.7349 22.6787 56.0512 22.3623L60.452 17.9617L56.0513 13.5611C55.7351 13.2447 55.7351 12.7319 56.0513 12.4157C56.3676 12.0992 56.8805 12.0992 57.1969 12.4157L62.1704 17.3891C62.3284 17.5472 62.4074 17.7545 62.4074 17.9617Z" fill="#704514"/>
</g>
<defs>
<clipPath id="clip0_1263_1729">
<rect width="11.5668" height="11.5668" fill="white" transform="matrix(4.37114e-08 -1 -1 -4.37114e-08 22.6729 23.7451)"/>
</clipPath>
<clipPath id="clip1_1263_1729">
<rect width="11.5668" height="11.5668" fill="white" transform="translate(53.3271 23.7451) rotate(-90)"/>
</clipPath>
</defs>
</svg>
