<svg width="374" height="113" viewBox="0 0 374 113" fill="none" xmlns="http://www.w3.org/2000/svg">
<circle cx="34" cy="34.7832" r="32" fill="#FFF7EC" stroke="#FFDDAB" stroke-width="4"/>
<path d="M66 34.7832C66 42.0037 63.558 49.0121 59.0709 54.6691C54.5839 60.3262 48.3154 64.2994 41.2844 65.9431C34.2535 67.5867 26.8733 66.8042 20.3433 63.7227C13.8133 60.6412 8.51749 55.4418 5.31646 48.9695C2.11542 42.4973 1.19738 35.1327 2.71154 28.0728C4.2257 21.0128 8.08306 14.6724 13.6567 10.082C19.2303 5.49172 26.1925 2.92133 33.4119 2.78861C40.6312 2.6559 47.6832 4.96866 53.4218 9.35102" stroke="#FF8E4F" stroke-width="4" stroke-linecap="round"/>
<g clip-path="url(#clip0_1302_2954)">
<path d="M49.2176 36.0633C47.564 32.1039 44.9109 28.0922 42.6155 26.0807C42.6125 26.078 42.6094 26.0754 42.6064 26.0728C41.2355 24.9147 40.0435 24.558 39.0637 25.0131C38.3652 25.3374 37.846 26.0281 37.4799 27.1383L35.9908 26.2784V20.8362C35.9908 20.1037 35.3949 19.5078 34.6625 19.5078H33.3341C32.6016 19.5078 32.0057 20.1037 32.0057 20.8362V26.2784L30.5165 27.1382C30.1503 26.0279 29.6312 25.3373 28.9328 25.0129C27.9531 24.558 26.7611 24.9146 25.3901 26.0727C25.387 26.0753 25.384 26.0779 25.3809 26.0805C25.3017 26.1499 25.2218 26.2223 25.1416 26.2967C24.8724 26.5459 24.8562 26.9661 25.1054 27.2353C25.3546 27.5045 25.7749 27.5205 26.044 27.2714C26.1137 27.2068 26.183 27.1439 26.2519 27.0836C26.8986 26.538 27.79 25.947 28.3733 26.2178C28.7183 26.3779 29.3454 27.022 29.6694 29.5362C29.7148 29.8888 29.7512 30.2541 29.7807 30.6263C28.804 31.2397 27.5801 32.2132 26.468 33.6923C25.488 34.2083 24.5522 34.4508 23.6123 34.4312C23.2461 34.425 22.9421 34.7148 22.9345 35.0815C22.9269 35.4483 23.2181 35.7517 23.5849 35.7593C23.6275 35.7602 23.67 35.7607 23.7127 35.7607C24.2354 35.7607 24.7624 35.6938 25.2911 35.5626C24.6888 36.7162 24.2326 37.9798 23.9242 39.3461C22.746 39.7402 21.7646 40.3398 21.0048 41.1317C20.7508 41.3964 20.7595 41.8168 21.0241 42.0708C21.1529 42.1943 21.3185 42.2557 21.4839 42.2557C21.6584 42.2557 21.8328 42.1873 21.9632 42.0514C22.4271 41.5679 22.9829 41.1803 23.6463 40.8786C23.5115 41.8467 23.4433 42.8598 23.4433 43.9162C23.4433 44.2831 23.7406 44.5804 24.1074 44.5804C24.4743 44.5804 24.7716 44.2831 24.7716 43.9162C24.7716 42.1381 24.9725 40.5932 25.3087 39.2515C25.5541 39.5876 25.8322 39.891 26.1081 40.0915C26.226 40.1771 26.3626 40.2184 26.4979 40.2184C26.7033 40.2184 26.9059 40.1233 27.0358 39.9444C27.2514 39.6476 27.1855 39.2322 26.8887 39.0167C26.4762 38.7171 25.9948 37.9308 25.8565 37.516C26.8946 34.8301 28.4997 33.1677 29.8657 32.1717C29.9028 33.2326 29.9031 34.2894 29.9031 35.2227C29.9031 35.8015 29.9059 36.3827 29.9087 36.9608C29.9256 40.5389 29.9431 44.2388 29.237 46.1552C28.9803 46.8521 28.6295 46.9461 27.559 47.1379C26.9298 47.2507 26.1466 47.3911 25.2548 47.7761C23.8833 48.368 22.7998 48.7308 21.889 48.7307C20.7472 48.7306 19.8769 48.1604 19.052 46.7573C18.157 45.2351 18.0856 42.8862 18.8455 39.9645C19.5166 37.3836 20.8018 34.4915 22.4643 31.8208C22.6581 31.5095 22.5628 31.0999 22.2514 30.906C21.94 30.7123 21.5304 30.8075 21.3366 31.1189C19.6051 33.9002 18.2639 36.923 17.5599 39.6302C16.7094 42.9004 16.8294 45.5978 17.9069 47.4304C18.8559 49.0447 20.0084 49.8978 21.4303 50.0384C21.5734 50.0526 21.7179 50.0593 21.8639 50.0593C23.1284 50.0593 24.4883 49.5537 25.7812 48.9956C26.5321 48.6715 27.2022 48.5514 27.7934 48.4454C28.8543 48.2551 29.9514 48.0585 30.4834 46.6144C31.2725 44.4725 31.2553 40.8207 31.237 36.9545C31.2343 36.3784 31.2315 35.7993 31.2315 35.2226C31.2315 34.0525 31.231 32.6927 31.1595 31.3551L33.998 29.7162L36.8366 31.3551C36.765 32.6928 36.7646 34.0526 36.7646 35.2226C36.7646 35.7993 36.7619 36.3784 36.7591 36.9545C36.7409 40.8207 36.7235 44.4726 37.5126 46.6144C38.0447 48.0585 39.1417 48.2552 40.2027 48.4454C40.7939 48.5514 41.464 48.6714 42.2149 48.9956C43.508 49.5537 44.8678 50.0593 46.1323 50.0593C46.2781 50.0593 46.4228 50.0525 46.5658 50.0384C47.9877 49.8978 49.1402 49.0447 50.0893 47.4304C52.0608 44.0772 50.3894 38.8692 49.2176 36.0633ZM33.3341 23.493H34.6625V24.8214H33.3341V23.493ZM34.6625 20.8362V22.1646H33.3341V20.8362H34.6625ZM34.3304 28.3742C34.1248 28.2555 33.8716 28.2555 33.6662 28.3742L31.0467 29.8866C31.0284 29.7114 31.0091 29.5374 30.9871 29.3665C30.9468 29.0536 30.901 28.7583 30.8497 28.4798L33.002 27.2371C33.2075 27.1184 33.3341 26.8992 33.3341 26.6619V26.1497H34.6625V26.6619C34.6625 26.8992 34.7891 27.1184 34.9946 27.2371L37.147 28.4798C37.0957 28.7583 37.05 29.0536 37.0096 29.3665C36.9875 29.5374 36.9681 29.7114 36.9499 29.8866L34.3304 28.3742ZM48.9443 46.7573C47.4614 49.2798 45.8322 49.1101 42.7415 47.7761C41.8496 47.3911 41.0665 47.2507 40.4373 47.1379C39.3669 46.9461 39.0161 46.8521 38.7593 46.1552C38.0532 44.2388 38.0707 40.5389 38.0877 36.9608C38.0904 36.3827 38.0931 35.8014 38.0931 35.2227C38.0931 34.2894 38.0935 33.2326 38.1305 32.1717C39.4965 33.1677 41.1016 34.8301 42.1397 37.516C42.0014 37.9308 41.5201 38.7171 41.1075 39.0167C40.8107 39.2322 40.7448 39.6476 40.9604 39.9443C41.0903 40.1233 41.2929 40.2183 41.4983 40.2183C41.6337 40.2183 41.7702 40.1771 41.8881 40.0915C42.1641 39.891 42.4422 39.5876 42.6876 39.2515C43.0238 40.5931 43.2247 42.138 43.2247 43.9162C43.2247 44.283 43.5221 44.5803 43.8888 44.5803C44.2556 44.5803 44.553 44.283 44.553 43.9162C44.553 42.8597 44.4848 41.8467 44.35 40.8784C45.0134 41.1802 45.5691 41.5678 46.033 42.0513C46.1635 42.1872 46.3378 42.2556 46.5124 42.2556C46.6778 42.2556 46.8434 42.1942 46.9722 42.0706C47.2369 41.8166 47.2455 41.3962 46.9916 41.1316C46.2317 40.3397 45.2503 39.7401 44.0721 39.346C43.7638 37.9796 43.3075 36.7161 42.7053 35.5625C43.2339 35.6937 43.761 35.7605 44.2836 35.7605C44.3263 35.7605 44.3689 35.7601 44.4115 35.7592C44.7782 35.7516 45.0694 35.4482 45.0618 35.0814C45.0544 34.7193 44.7586 34.431 44.398 34.431C44.3935 34.431 44.3887 34.431 44.3841 34.4311C43.4444 34.451 42.5085 34.2082 41.5284 33.6922C40.4163 32.2131 39.1924 31.2396 38.2157 30.6263C38.2452 30.2541 38.2815 29.8887 38.327 29.5361C38.651 27.0219 39.2781 26.3778 39.6231 26.2177C39.7241 26.1708 39.8341 26.1498 39.9505 26.1498C40.5075 26.1498 41.2098 26.6323 41.7447 27.0836C43.9006 28.9751 46.4106 32.7884 47.992 36.5751C49.8231 40.9606 50.1704 44.6718 48.9443 46.7573Z" fill="#FF8E4F"/>
<path d="M23.5996 29.675C23.9664 29.675 24.2638 29.3777 24.2638 29.0109C24.2638 28.644 23.9664 28.3467 23.5996 28.3467H23.5991C23.2323 28.3467 22.9352 28.644 22.9352 29.0109C22.9352 29.3777 23.2328 29.675 23.5996 29.675Z" fill="#FF8E4F"/>
</g>
<path d="M6.08943 88.7832V81.5105H8.87352C9.39909 81.5105 9.83588 81.5933 10.1839 81.7591C10.5343 81.9224 10.7959 82.1461 10.9687 82.4302C11.1439 82.7143 11.2315 83.0363 11.2315 83.3961C11.2315 83.6921 11.1747 83.9454 11.061 84.1561C10.9474 84.3644 10.7947 84.5337 10.6029 84.6639C10.4112 84.7941 10.1969 84.8876 9.96017 84.9444V85.0154C10.2182 85.0297 10.4656 85.109 10.7024 85.2534C10.9415 85.3954 11.1368 85.5966 11.2883 85.8571C11.4398 86.1175 11.5156 86.4324 11.5156 86.8017C11.5156 87.1781 11.4244 87.5166 11.2421 87.8173C11.0598 88.1156 10.7852 88.3511 10.4183 88.524C10.0513 88.6968 9.58967 88.7832 9.03332 88.7832H6.08943ZM7.4069 87.6824H8.82381C9.30203 87.6824 9.64649 87.5912 9.85719 87.4089C10.0703 87.2243 10.1768 86.9875 10.1768 86.6987C10.1768 86.4833 10.1235 86.2891 10.017 86.1163C9.91045 85.9411 9.75894 85.8038 9.56244 85.7044C9.36595 85.6026 9.13157 85.5517 8.85932 85.5517H7.4069V87.6824ZM7.4069 84.6035H8.71017C8.93744 84.6035 9.14222 84.5621 9.32452 84.4792C9.50681 84.394 9.65004 84.2744 9.7542 84.1206C9.86074 83.9643 9.914 83.7797 9.914 83.5666C9.914 83.2849 9.81457 83.0529 9.61571 82.8706C9.41921 82.6883 9.12684 82.5971 8.73858 82.5971H7.4069V84.6035ZM12.6617 88.7832V81.5105H15.389C15.9477 81.5105 16.4164 81.6075 16.7952 81.8017C17.1764 81.9958 17.464 82.2681 17.6581 82.6184C17.8546 82.9664 17.9529 83.3725 17.9529 83.8365C17.9529 84.3029 17.8535 84.7077 17.6546 85.051C17.4581 85.3919 17.1681 85.6558 16.7846 85.8429C16.401 86.0275 15.9299 86.1199 15.3712 86.1199H13.4287V85.0261H15.1937C15.5204 85.0261 15.7879 84.9811 15.9962 84.8912C16.2045 84.7988 16.3584 84.6651 16.4579 84.4899C16.5597 84.3123 16.6106 84.0945 16.6106 83.8365C16.6106 83.5784 16.5597 83.3583 16.4579 83.176C16.3561 82.9913 16.201 82.8516 15.9927 82.7569C15.7843 82.6599 15.5156 82.6113 15.1866 82.6113H13.9792V88.7832H12.6617ZM16.4188 85.4877L18.2192 88.7832H16.7491L14.9806 85.4877H16.4188ZM19.1656 88.7832V81.5105H23.8957V82.6149H20.4831V84.5893H23.6507V85.6937H20.4831V87.6788H23.9241V88.7832H19.1656ZM26.1738 88.7832H24.7675L27.3279 81.5105H28.9543L31.5182 88.7832H30.112L28.1695 83.002H28.1127L26.1738 88.7832ZM26.2199 85.9316H30.0552V86.9899H26.2199V85.9316ZM31.2776 82.6149V81.5105H37.0802V82.6149H34.8323V88.7832H33.5255V82.6149H31.2776ZM38.1988 88.7832V81.5105H39.5163V84.5893H42.8863V81.5105H44.2073V88.7832H42.8863V85.6937H39.5163V88.7832H38.1988ZM46.9577 81.5105V88.7832H45.6402V81.5105H46.9577ZM54.3609 81.5105V88.7832H53.189L49.7622 83.8294H49.7018V88.7832H48.3844V81.5105H49.5633L52.9866 86.4679H53.0505V81.5105H54.3609ZM60.6686 83.8329C60.6094 83.6412 60.5278 83.4695 60.4236 83.318C60.3218 83.1641 60.1987 83.0327 60.0543 82.9238C59.9122 82.8149 59.7489 82.7333 59.5642 82.6788C59.3796 82.622 59.1783 82.5936 58.9605 82.5936C58.5699 82.5936 58.2219 82.6918 57.9165 82.8883C57.6111 83.0848 57.3708 83.3736 57.1956 83.7548C57.0228 84.1336 56.9364 84.5952 56.9364 85.1397C56.9364 85.689 57.0228 86.1542 57.1956 86.5353C57.3684 86.9165 57.6087 87.2065 57.9165 87.4054C58.2243 87.6019 58.5817 87.7001 58.9889 87.7001C59.3583 87.7001 59.6779 87.6291 59.9477 87.487C60.22 87.345 60.4295 87.1438 60.5763 86.8833C60.7231 86.6206 60.7965 86.3128 60.7965 85.96L61.0948 86.0062H59.1203V84.9764H62.0713V85.85C62.0713 86.4726 61.9387 87.0112 61.6736 87.4657C61.4084 87.9203 61.0439 88.2707 60.5798 88.5169C60.1158 88.7607 59.5832 88.8826 58.9818 88.8826C58.3119 88.8826 57.7235 88.7323 57.2169 88.4316C56.7127 88.1286 56.3185 87.6989 56.0344 87.1426C55.7527 86.5839 55.6118 85.921 55.6118 85.1539C55.6118 84.5668 55.6947 84.0424 55.8604 83.5808C56.0285 83.1191 56.2628 82.7273 56.5635 82.4054C56.8642 82.081 57.2169 81.8348 57.6217 81.6667C58.0266 81.4963 58.4669 81.411 58.9428 81.411C59.3452 81.411 59.7205 81.4702 60.0685 81.5886C60.4165 81.7046 60.7254 81.8703 60.9953 82.0858C61.2676 82.3012 61.4913 82.5569 61.6665 82.8528C61.8417 83.1487 61.9565 83.4754 62.011 83.8329H60.6686Z" fill="#FF8E4F"/>
<path d="M22.5629 96.725C23.0849 96.7285 23.5928 96.8208 24.0864 97.002C24.5835 97.1795 25.031 97.4707 25.4287 97.8755C25.8264 98.2768 26.1425 98.8148 26.3769 99.4895C26.6112 100.164 26.7284 100.999 26.7284 101.993C26.732 102.931 26.6325 103.769 26.4301 104.507C26.2313 105.242 25.9454 105.864 25.5725 106.372C25.1996 106.879 24.7504 107.267 24.2249 107.533C23.6993 107.799 23.108 107.932 22.4511 107.932C21.7621 107.932 21.1514 107.797 20.6187 107.528C20.0896 107.258 19.6617 106.888 19.3349 106.42C19.0082 105.951 18.8076 105.415 18.733 104.811H20.6773C20.7767 105.244 20.9791 105.589 21.2845 105.844C21.5935 106.096 21.9823 106.222 22.4511 106.222C23.2075 106.222 23.7898 105.894 24.1982 105.237C24.6066 104.58 24.8108 103.667 24.8108 102.499H24.7362C24.5622 102.812 24.3367 103.081 24.0597 103.309C23.7827 103.532 23.4685 103.705 23.1169 103.825C22.7689 103.946 22.3996 104.007 22.009 104.007C21.3697 104.007 20.7945 103.854 20.2831 103.548C19.7753 103.243 19.3722 102.824 19.0739 102.291C18.7792 101.759 18.63 101.15 18.6265 100.464C18.6265 99.7541 18.7898 99.1167 19.1166 98.552C19.4468 97.9838 19.9067 97.5364 20.4962 97.2097C21.0857 96.8794 21.7746 96.7179 22.5629 96.725ZM22.5683 98.323C22.1847 98.323 21.8385 98.4171 21.5295 98.6053C21.2242 98.79 20.9827 99.0421 20.8051 99.3617C20.6311 99.6777 20.5441 100.031 20.5441 100.422C20.5477 100.809 20.6347 101.16 20.8051 101.476C20.9791 101.792 21.2153 102.043 21.5136 102.227C21.8154 102.412 22.1599 102.504 22.547 102.504C22.8346 102.504 23.1027 102.449 23.3513 102.339C23.5999 102.229 23.8165 102.077 24.0011 101.881C24.1894 101.682 24.3349 101.457 24.4379 101.205C24.5445 100.953 24.596 100.686 24.5924 100.406C24.5924 100.033 24.5036 99.6884 24.3261 99.3723C24.1521 99.0563 23.9124 98.8024 23.607 98.6106C23.3051 98.4189 22.9589 98.323 22.5683 98.323ZM32.5345 107.991C31.6574 107.991 30.9045 107.769 30.276 107.325C29.651 106.878 29.1698 106.233 28.8325 105.392C28.4987 104.546 28.3318 103.529 28.3318 102.339C28.3353 101.15 28.504 100.138 28.8378 99.3031C29.1751 98.465 29.6563 97.8258 30.2813 97.3855C30.9099 96.9451 31.6609 96.725 32.5345 96.725C33.4081 96.725 34.1592 96.9451 34.7877 97.3855C35.4163 97.8258 35.8974 98.465 36.2313 99.3031C36.5686 100.141 36.7373 101.153 36.7373 102.339C36.7373 103.532 36.5686 104.552 36.2313 105.397C35.8974 106.238 35.4163 106.881 34.7877 107.325C34.1627 107.769 33.4117 107.991 32.5345 107.991ZM32.5345 106.324C33.2163 106.324 33.7543 105.988 34.1485 105.317C34.5462 104.642 34.7451 103.65 34.7451 102.339C34.7451 101.473 34.6545 100.745 34.4734 100.155C34.2923 99.5659 34.0367 99.122 33.7064 98.8237C33.3761 98.5218 32.9855 98.3709 32.5345 98.3709C31.8563 98.3709 31.32 98.7083 30.9259 99.383C30.5317 100.054 30.3328 101.04 30.3293 102.339C30.3257 103.209 30.4127 103.941 30.5903 104.534C30.7714 105.127 31.0271 105.574 31.3573 105.876C31.6876 106.175 32.08 106.324 32.5345 106.324ZM44.3398 105.738V105.162C44.3398 104.74 44.4286 104.351 44.6062 103.996C44.7873 103.641 45.0501 103.355 45.3945 103.138C45.739 102.922 46.1562 102.813 46.6463 102.813C47.1506 102.813 47.5731 102.922 47.914 103.138C48.255 103.351 48.5124 103.635 48.6864 103.991C48.864 104.346 48.9528 104.736 48.9528 105.162V105.738C48.9528 106.16 48.864 106.549 48.6864 106.904C48.5089 107.259 48.2479 107.545 47.9034 107.762C47.5625 107.979 47.1435 108.087 46.6463 108.087C46.1491 108.087 45.7283 107.979 45.3839 107.762C45.0394 107.545 44.7784 107.259 44.6008 106.904C44.4268 106.549 44.3398 106.16 44.3398 105.738ZM45.7301 105.162V105.738C45.7301 106.018 45.7976 106.276 45.9325 106.51C46.0675 106.744 46.3054 106.862 46.6463 106.862C46.9908 106.862 47.2269 106.746 47.3547 106.515C47.4861 106.281 47.5518 106.022 47.5518 105.738V105.162C47.5518 104.878 47.4897 104.619 47.3654 104.385C47.2411 104.147 47.0014 104.028 46.6463 104.028C46.3125 104.028 46.0763 104.147 45.9378 104.385C45.7993 104.619 45.7301 104.878 45.7301 105.162ZM38.7947 99.4949V98.9196C38.7947 98.4934 38.8853 98.1028 39.0664 97.7477C39.2475 97.3926 39.5103 97.1085 39.8547 96.8954C40.1992 96.6788 40.6165 96.5705 41.1065 96.5705C41.6072 96.5705 42.028 96.6788 42.3689 96.8954C42.7134 97.1085 42.9726 97.3926 43.1466 97.7477C43.3207 98.1028 43.4077 98.4934 43.4077 98.9196V99.4949C43.4077 99.921 43.3189 100.312 43.1413 100.667C42.9673 101.018 42.7081 101.301 42.3636 101.514C42.0192 101.727 41.6001 101.833 41.1065 101.833C40.6058 101.833 40.1832 101.727 39.8388 101.514C39.4979 101.301 39.2386 101.017 39.0611 100.661C38.8835 100.306 38.7947 99.9174 38.7947 99.4949ZM40.1957 98.9196V99.4949C40.1957 99.7789 40.2613 100.038 40.3927 100.273C40.5277 100.503 40.7656 100.619 41.1065 100.619C41.4474 100.619 41.6818 100.503 41.8096 100.273C41.941 100.038 42.0067 99.7789 42.0067 99.4949V98.9196C42.0067 98.6355 41.9446 98.3762 41.8203 98.1419C41.696 97.9039 41.4581 97.785 41.1065 97.785C40.7692 97.785 40.533 97.9039 40.3981 98.1419C40.2631 98.3798 40.1957 98.639 40.1957 98.9196ZM39.402 107.783L46.902 96.8741H48.2337L40.7337 107.783H39.402Z" fill="#AF7B40"/>
<circle cx="136" cy="34.7832" r="32" fill="#FFF7EC" stroke="#FFDDAB" stroke-width="4"/>
<g clip-path="url(#clip1_1302_2954)">
<path d="M149.563 47.6367H145.607C145.449 46.9905 144.946 46.469 144.277 46.3018L143.325 46.0638L144.528 40.2329C144.758 39.1125 144.123 37.9717 143.022 37.5913C140.332 36.6578 141.252 37.0711 138.778 36.506C139.639 35.9826 140.825 35.2337 141.195 34.8635C141.628 34.4294 142.948 33.1081 142.948 31.8444C142.948 31.4882 142.84 31.0957 142.628 30.6741L149.535 23.767C149.835 23.4671 150 23.0682 150 22.644C150 21.2379 148.286 20.5231 147.289 21.5209C147.118 21.6917 147.118 21.9687 147.289 22.1396C147.46 22.3104 147.737 22.3104 147.907 22.1396C148.356 21.6914 149.125 22.0126 149.125 22.6439C149.125 22.8344 149.051 23.0135 148.916 23.1483L140.867 31.198C140.59 31.4743 140.79 31.9448 141.176 31.9448C141.413 31.9448 141.482 31.8199 141.965 31.3372C142.035 31.5249 142.073 31.6964 142.073 31.8444C142.073 32.4427 141.569 33.2505 140.574 34.2474C140.219 34.6017 138.61 35.598 137.535 36.2298L136.055 36.0448C135.815 36.0146 135.597 36.1849 135.567 36.4247C135.537 36.6644 135.707 36.883 135.947 36.913L137.549 37.1133C141.269 38.0257 139.805 37.4109 142.742 38.4205C143.416 38.6547 143.815 39.358 143.671 40.0563L143.115 42.7545H141.683L141.914 40.7299C141.942 40.4862 141.763 40.2669 141.519 40.2447C136.297 39.771 136.787 40.346 134.995 39.7224C134.878 39.6827 134.7 39.6134 134.575 39.5487C133.505 38.9951 133.275 37.3918 133.613 36.4905C134.027 36.1972 134.44 35.8579 134.84 35.4812C135.016 35.3156 135.024 35.0387 134.859 34.8628C134.693 34.6869 134.416 34.6786 134.24 34.8442C133.789 35.269 133.225 35.7055 133.19 35.7138C133.079 35.7394 133.049 35.7756 132.613 36.0615C131.526 36.7762 131.737 36.6373 126.096 41.3789L122.679 43.6583C122.081 44.0574 121.845 44.8043 122.105 45.4748C122.813 47.3024 122.812 47.3574 123.009 47.6367H122.439C122.198 47.6367 122.002 47.8326 122.002 48.0742C122.002 48.3158 122.198 48.5117 122.439 48.5117H149.563C149.804 48.5117 150 48.3158 150 48.0742C150 47.8326 149.804 47.6367 149.563 47.6367ZM132.597 37.1258C132.527 38.2322 132.947 39.4716 133.861 40.1327C132.234 40.8897 130.051 41.7583 127.374 43.1392L126.879 41.8633C131.214 38.2194 131.938 37.5877 132.597 37.1258ZM123.165 44.3862L126.147 42.3962L126.605 43.5765L124.574 44.8697C124.425 44.9646 124.348 45.1397 124.378 45.3137L124.782 47.6332C124.274 47.6699 123.779 47.3751 123.586 46.8763L122.92 45.1587C122.81 44.8735 122.91 44.5559 123.165 44.3862ZM125.29 45.451C127.28 44.1842 127.577 43.8651 132.537 41.6837C133.432 41.2904 134.212 40.9467 134.89 40.6087C136.686 41.1791 136.558 40.6976 140.994 41.0767C140.357 46.6568 140.515 45.571 140.253 46.62C140.167 46.9662 140.203 47.3225 140.352 47.6367H125.671L125.29 45.451ZM141.73 47.6367C141.309 47.6367 141 47.2413 141.102 46.8323C141.382 45.7105 141.26 46.4551 141.583 43.6295H142.934L142.384 46.2981C142.336 46.5278 142.478 46.7539 142.706 46.8108L144.064 47.1506C144.337 47.2188 144.557 47.3999 144.679 47.6367H141.73Z" fill="#FF8E4F"/>
<path d="M137.202 25.4738C137.264 26.3335 137.616 27.1299 138.203 27.7625C137.811 29.3691 137.205 30.8487 136.401 32.1633C136.275 32.3694 136.34 32.6387 136.546 32.7648C136.753 32.8918 137.022 32.8249 137.147 32.6201C137.929 31.3434 138.532 29.9226 138.946 28.3885C139.165 28.5307 139.397 28.6501 139.638 28.7451L139.882 28.9279L139.239 29.5704C138.963 29.8468 139.162 30.3172 139.549 30.3172C139.661 30.3172 139.773 30.2745 139.858 30.1891C144.404 25.6432 136.302 33.7448 145.466 24.5806C146.291 23.7559 146.745 22.6594 146.745 21.4931C146.745 21.2515 146.549 21.0557 146.308 21.0557C146.066 21.0557 145.87 21.2515 145.87 21.4931C145.87 22.4257 145.507 23.3025 144.848 23.962L142.948 25.8617C142.948 24.8457 143.023 24.266 142.579 23.4846C141.827 22.1591 140.124 21.671 138.75 22.3625C138.091 21.2375 136.378 21.3912 135.943 22.6222L135.649 23.4557C135.289 24.4765 136.097 25.5357 137.202 25.4738ZM141.678 23.7052C141.266 24.2788 140.602 24.6153 139.891 24.6249C139.253 24.6338 139.296 25.5009 139.86 25.5009C140.68 25.5009 141.474 25.1808 142.056 24.6066C142.079 24.777 142.073 24.6687 142.073 26.7365L140.687 28.1226C140.116 28.0448 139.6 27.8147 139.184 27.4831L139.552 26.5694C139.651 26.3244 139.512 26.041 139.243 25.9798C139.037 25.9327 138.822 26.0403 138.741 26.2424L138.53 26.7652C138.229 26.3015 138.066 25.7655 138.066 25.1989C138.066 25.1433 138.059 25.1583 138.097 25.1282C138.329 24.9395 138.489 24.6965 138.576 24.4526C138.869 23.6204 138.927 23.4956 138.949 23.255C139.826 22.6838 141.031 22.8634 141.678 23.7052ZM136.474 23.7466L136.768 22.913C136.863 22.643 137.125 22.4734 137.406 22.4734C137.865 22.4734 138.193 22.9064 138.044 23.3285C137.759 24.1377 137.74 24.3479 137.46 24.5082C136.901 24.8236 136.279 24.3006 136.474 23.7466Z" fill="#FF8E4F"/>
<path d="M135.455 34.2163C135.643 34.3673 135.92 34.3362 136.072 34.1475C136.094 34.1198 136.116 34.0921 136.139 34.0639C136.288 33.8742 136.256 33.5991 136.066 33.4495C135.876 33.2998 135.601 33.3323 135.452 33.5221C135.431 33.5482 135.411 33.5737 135.387 33.6031C135.236 33.7914 135.267 34.0649 135.455 34.2163Z" fill="#FF8E4F"/>
</g>
<path d="M168 34.7832C168 42.0037 165.558 49.0121 161.071 54.6691C156.584 60.3262 150.315 64.2994 143.284 65.9431C136.253 67.5867 128.873 66.8042 122.343 63.7227C115.813 60.6411 110.517 55.4418 107.316 48.9695C104.115 42.4973 103.197 35.1327 104.711 28.0727C106.226 21.0127 110.083 14.6723 115.657 10.082" stroke="#FF8E4F" stroke-width="4" stroke-linecap="round"/>
<path d="M120.31 88.7832V81.5105H122.902C123.468 81.5105 123.937 81.6135 124.308 81.8194C124.68 82.0254 124.958 82.3071 125.143 82.6646C125.328 83.0197 125.42 83.4198 125.42 83.8649C125.42 84.3123 125.326 84.7148 125.139 85.0723C124.955 85.4274 124.675 85.7091 124.301 85.9174C123.93 86.1234 123.462 86.2264 122.899 86.2264H121.116V85.296H122.799C123.157 85.296 123.447 85.2344 123.669 85.1113C123.892 84.9859 124.055 84.8154 124.159 84.6C124.263 84.3845 124.315 84.1395 124.315 83.8649C124.315 83.5903 124.263 83.3464 124.159 83.1333C124.055 82.9203 123.89 82.7534 123.666 82.6326C123.443 82.5119 123.149 82.4515 122.785 82.4515H121.407V88.7832H120.31ZM133.024 85.1468C133.024 85.9234 132.882 86.591 132.598 87.1497C132.313 87.706 131.924 88.1345 131.429 88.4352C130.937 88.7335 130.377 88.8826 129.75 88.8826C129.12 88.8826 128.558 88.7335 128.063 88.4352C127.57 88.1345 127.182 87.7048 126.898 87.1461C126.614 86.5874 126.472 85.921 126.472 85.1468C126.472 84.3703 126.614 83.7039 126.898 83.1475C127.182 82.5888 127.57 82.1603 128.063 81.862C128.558 81.5614 129.12 81.411 129.75 81.411C130.377 81.411 130.937 81.5614 131.429 81.862C131.924 82.1603 132.313 82.5888 132.598 83.1475C132.882 83.7039 133.024 84.3703 133.024 85.1468ZM131.937 85.1468C131.937 84.555 131.841 84.0566 131.649 83.6518C131.46 83.2446 131.2 82.9368 130.868 82.7285C130.539 82.5178 130.166 82.4125 129.75 82.4125C129.331 82.4125 128.956 82.5178 128.627 82.7285C128.298 82.9368 128.038 83.2446 127.846 83.6518C127.657 84.0566 127.562 84.555 127.562 85.1468C127.562 85.7387 127.657 86.2382 127.846 86.6454C128.038 87.0502 128.298 87.358 128.627 87.5687C128.956 87.777 129.331 87.8812 129.75 87.8812C130.166 87.8812 130.539 87.777 130.868 87.5687C131.2 87.358 131.46 87.0502 131.649 86.6454C131.841 86.2382 131.937 85.7387 131.937 85.1468ZM138.358 83.421C138.321 83.0848 138.164 82.8244 137.89 82.6397C137.615 82.4527 137.269 82.3592 136.853 82.3592C136.554 82.3592 136.296 82.4065 136.079 82.5012C135.861 82.5936 135.691 82.7214 135.571 82.8848C135.452 83.0458 135.393 83.2292 135.393 83.4352C135.393 83.608 135.433 83.7572 135.514 83.8826C135.597 84.0081 135.705 84.1135 135.837 84.1987C135.972 84.2815 136.116 84.3514 136.27 84.4082C136.424 84.4627 136.572 84.5076 136.714 84.5431L137.424 84.7278C137.656 84.7846 137.894 84.8616 138.138 84.9586C138.382 85.0557 138.608 85.1835 138.816 85.3422C139.025 85.5008 139.193 85.6973 139.321 85.9316C139.451 86.166 139.516 86.4466 139.516 86.7733C139.516 87.1852 139.41 87.551 139.196 87.8706C138.986 88.1902 138.679 88.4423 138.277 88.627C137.877 88.8116 137.392 88.9039 136.824 88.9039C136.28 88.9039 135.809 88.8175 135.411 88.6447C135.013 88.4719 134.702 88.2269 134.477 87.9096C134.252 87.59 134.128 87.2112 134.104 86.7733H135.205C135.226 87.036 135.312 87.255 135.461 87.4302C135.612 87.603 135.805 87.7321 136.04 87.8173C136.276 87.9002 136.535 87.9416 136.817 87.9416C137.127 87.9416 137.403 87.8931 137.645 87.796C137.888 87.6966 138.08 87.5592 138.22 87.3841C138.36 87.2065 138.429 86.9993 138.429 86.7626C138.429 86.5472 138.368 86.3708 138.245 86.2335C138.124 86.0962 137.959 85.9825 137.751 85.8926C137.545 85.8026 137.312 85.7233 137.052 85.6547L136.192 85.4203C135.61 85.2617 135.148 85.0285 134.807 84.7207C134.469 84.4129 134.299 84.0057 134.299 83.4991C134.299 83.0801 134.413 82.7143 134.64 82.4018C134.868 82.0893 135.175 81.8466 135.564 81.6738C135.952 81.4986 136.39 81.411 136.878 81.411C137.37 81.411 137.804 81.4975 138.181 81.6703C138.56 81.8431 138.858 82.081 139.076 82.3841C139.294 82.6847 139.407 83.0304 139.417 83.421H138.358ZM140.827 88.7832V81.5105H145.387V82.4551H141.925V84.671H145.149V85.612H141.925V87.8386H145.43V88.7832H140.827ZM150.819 83.421C150.781 83.0848 150.625 82.8244 150.351 82.6397C150.076 82.4527 149.73 82.3592 149.314 82.3592C149.015 82.3592 148.757 82.4065 148.54 82.5012C148.322 82.5936 148.152 82.7214 148.032 82.8848C147.913 83.0458 147.854 83.2292 147.854 83.4352C147.854 83.608 147.894 83.7572 147.975 83.8826C148.058 84.0081 148.165 84.1135 148.298 84.1987C148.433 84.2815 148.577 84.3514 148.731 84.4082C148.885 84.4627 149.033 84.5076 149.175 84.5431L149.885 84.7278C150.117 84.7846 150.355 84.8616 150.599 84.9586C150.843 85.0557 151.069 85.1835 151.277 85.3422C151.486 85.5008 151.654 85.6973 151.782 85.9316C151.912 86.166 151.977 86.4466 151.977 86.7733C151.977 87.1852 151.87 87.551 151.657 87.8706C151.447 88.1902 151.14 88.4423 150.738 88.627C150.338 88.8116 149.853 88.9039 149.285 88.9039C148.741 88.9039 148.27 88.8175 147.872 88.6447C147.474 88.4719 147.163 88.2269 146.938 87.9096C146.713 87.59 146.589 87.2112 146.565 86.7733H147.666C147.687 87.036 147.772 87.255 147.922 87.4302C148.073 87.603 148.266 87.7321 148.5 87.8173C148.737 87.9002 148.996 87.9416 149.278 87.9416C149.588 87.9416 149.864 87.8931 150.106 87.796C150.349 87.6966 150.541 87.5592 150.681 87.3841C150.821 87.2065 150.89 86.9993 150.89 86.7626C150.89 86.5472 150.829 86.3708 150.706 86.2335C150.585 86.0962 150.42 85.9825 150.212 85.8926C150.006 85.8026 149.773 85.7233 149.513 85.6547L148.653 85.4203C148.071 85.2617 147.609 85.0285 147.268 84.7207C146.93 84.4129 146.76 84.0057 146.76 83.4991C146.76 83.0801 146.874 82.7143 147.101 82.4018C147.329 82.0893 147.636 81.8466 148.025 81.6738C148.413 81.4986 148.851 81.411 149.339 81.411C149.831 81.411 150.265 81.4975 150.642 81.6703C151.021 81.8431 151.319 82.081 151.537 82.3841C151.754 82.6847 151.868 83.0304 151.878 83.421H150.819Z" fill="#FF8E4F"/>
<path d="M125.038 107.932C124.551 107.925 124.072 107.836 123.599 107.666C123.131 107.496 122.705 107.211 122.321 106.814C121.938 106.416 121.63 105.882 121.4 105.21C121.172 104.539 121.059 103.701 121.059 102.696C121.059 101.744 121.153 100.899 121.341 100.161C121.533 99.4221 121.808 98.7988 122.167 98.291C122.525 97.7797 122.958 97.3908 123.466 97.1245C123.974 96.8581 124.544 96.725 125.176 96.725C125.826 96.725 126.403 96.8528 126.907 97.1085C127.412 97.3642 127.82 97.7175 128.132 98.1685C128.449 98.6195 128.649 99.1326 128.734 99.7079H127.11C127 99.2534 126.781 98.8823 126.455 98.5946C126.128 98.307 125.702 98.1632 125.176 98.1632C124.377 98.1632 123.754 98.5112 123.306 99.2072C122.863 99.9032 122.639 100.871 122.635 102.11H122.715C122.903 101.801 123.134 101.539 123.408 101.322C123.685 101.102 123.994 100.933 124.335 100.816C124.679 100.695 125.041 100.635 125.421 100.635C126.053 100.635 126.625 100.789 127.136 101.098C127.651 101.404 128.061 101.826 128.367 102.366C128.672 102.906 128.825 103.524 128.825 104.22C128.825 104.916 128.667 105.546 128.351 106.111C128.038 106.675 127.598 107.123 127.03 107.453C126.462 107.78 125.798 107.939 125.038 107.932ZM125.032 106.547C125.451 106.547 125.826 106.444 126.156 106.238C126.487 106.032 126.748 105.756 126.939 105.407C127.131 105.059 127.227 104.671 127.227 104.241C127.227 103.822 127.133 103.44 126.945 103.096C126.76 102.751 126.504 102.478 126.178 102.275C125.854 102.073 125.485 101.972 125.07 101.972C124.754 101.972 124.461 102.032 124.191 102.153C123.924 102.274 123.69 102.441 123.488 102.654C123.285 102.867 123.125 103.112 123.008 103.389C122.895 103.662 122.838 103.952 122.838 104.257C122.838 104.665 122.932 105.044 123.12 105.392C123.312 105.74 123.573 106.02 123.903 106.233C124.237 106.443 124.613 106.547 125.032 106.547ZM134.563 107.964C133.722 107.961 133.002 107.739 132.406 107.298C131.809 106.858 131.353 106.217 131.037 105.376C130.721 104.534 130.563 103.52 130.563 102.334C130.563 101.151 130.721 100.141 131.037 99.3031C131.356 98.465 131.815 97.8258 132.411 97.3855C133.011 96.9451 133.729 96.725 134.563 96.725C135.398 96.725 136.113 96.9469 136.71 97.3908C137.306 97.8311 137.763 98.4703 138.079 99.3084C138.398 100.143 138.558 101.151 138.558 102.334C138.558 103.524 138.4 104.539 138.084 105.381C137.768 106.219 137.312 106.86 136.715 107.304C136.119 107.744 135.401 107.964 134.563 107.964ZM134.563 106.542C135.302 106.542 135.879 106.182 136.294 105.461C136.713 104.74 136.923 103.698 136.923 102.334C136.923 101.428 136.827 100.663 136.635 100.038C136.447 99.4096 136.175 98.9338 135.82 98.6106C135.469 98.2839 135.05 98.1206 134.563 98.1206C133.828 98.1206 133.251 98.4828 132.832 99.2072C132.413 99.9316 132.202 100.974 132.198 102.334C132.198 103.243 132.292 104.012 132.48 104.64C132.672 105.265 132.944 105.74 133.295 106.063C133.647 106.382 134.07 106.542 134.563 106.542ZM146.142 105.738V105.162C146.142 104.751 146.227 104.374 146.398 104.033C146.572 103.689 146.824 103.414 147.154 103.208C147.488 102.998 147.891 102.893 148.363 102.893C148.846 102.893 149.251 102.996 149.578 103.202C149.904 103.408 150.151 103.683 150.318 104.028C150.489 104.372 150.574 104.751 150.574 105.162V105.738C150.574 106.15 150.489 106.528 150.318 106.872C150.148 107.213 149.897 107.488 149.567 107.698C149.24 107.904 148.839 108.007 148.363 108.007C147.884 108.007 147.479 107.904 147.149 107.698C146.819 107.488 146.568 107.213 146.398 106.872C146.227 106.528 146.142 106.15 146.142 105.738ZM147.383 105.162V105.738C147.383 106.043 147.456 106.32 147.602 106.569C147.747 106.817 148.001 106.942 148.363 106.942C148.722 106.942 148.972 106.817 149.114 106.569C149.256 106.32 149.327 106.043 149.327 105.738V105.162C149.327 104.857 149.258 104.58 149.12 104.331C148.985 104.083 148.733 103.959 148.363 103.959C148.008 103.959 147.756 104.083 147.607 104.331C147.458 104.58 147.383 104.857 147.383 105.162ZM140.656 99.4949V98.9196C140.656 98.5076 140.741 98.1294 140.911 97.785C141.085 97.4405 141.337 97.1653 141.668 96.9593C142.001 96.7534 142.404 96.6504 142.877 96.6504C143.36 96.6504 143.765 96.7534 144.091 96.9593C144.418 97.1653 144.665 97.4405 144.832 97.785C144.999 98.1294 145.082 98.5076 145.082 98.9196V99.4949C145.082 99.9068 144.997 100.285 144.826 100.629C144.659 100.97 144.411 101.246 144.081 101.455C143.754 101.661 143.353 101.764 142.877 101.764C142.394 101.764 141.987 101.661 141.657 101.455C141.33 101.246 141.082 100.97 140.911 100.629C140.741 100.285 140.656 99.9068 140.656 99.4949ZM141.902 98.9196V99.4949C141.902 99.8002 141.973 100.077 142.115 100.326C142.261 100.574 142.515 100.699 142.877 100.699C143.232 100.699 143.48 100.574 143.623 100.326C143.768 100.077 143.841 99.8002 143.841 99.4949V98.9196C143.841 98.6142 143.772 98.3372 143.633 98.0886C143.495 97.84 143.243 97.7157 142.877 97.7157C142.522 97.7157 142.27 97.84 142.12 98.0886C141.975 98.3372 141.902 98.6142 141.902 98.9196ZM141.162 107.783L148.662 96.8741H149.935L142.435 107.783H141.162Z" fill="#AF7B40"/>
<circle cx="238" cy="34.7832" r="32" fill="#FFF7EC" stroke="#FFDDAB" stroke-width="4"/>
<g clip-path="url(#clip2_1302_2954)">
<path d="M251.558 47.9085H247.995C249.669 46.3287 249.152 43.5983 247.106 42.6891C247.065 42.6706 247.387 42.767 242.208 41.2527C242.21 40.6831 242.214 40.1884 242.222 39.756H245.374C247.161 39.756 248.115 37.6854 247.024 36.324L246.192 35.2842C246.041 35.0956 245.766 35.0649 245.578 35.2158C245.389 35.3667 245.358 35.6419 245.509 35.8306L246.341 36.8707C246.98 37.668 246.42 38.8814 245.374 38.8814C238.161 38.8814 238.663 38.9205 238.531 38.7898C238.397 38.6552 238.437 38.9004 238.437 34.5504C239.095 34.8876 239.311 36.3285 239.312 37.0565C239.312 37.298 239.508 37.4938 239.75 37.4938H243.603C243.966 37.4938 244.172 37.0732 243.947 36.7863L241.843 34.107C241.694 33.9171 241.419 33.8838 241.229 34.033C241.039 34.1822 241.006 34.4571 241.155 34.6471L241.805 35.4756C241.705 35.8531 241.624 36.2075 241.558 36.6191H240.168C240.053 35.1299 239.473 33.5199 238 33.602C236.527 33.5202 235.948 35.1272 235.832 36.6191H234.442C234.377 36.2075 234.295 35.8531 234.195 35.4756L234.845 34.6471C234.994 34.457 234.961 34.1822 234.771 34.033C234.581 33.8838 234.306 33.917 234.157 34.107L232.054 36.7863C231.829 37.0725 232.033 37.4938 232.397 37.4938H236.251C236.492 37.4938 236.688 37.2981 236.688 37.0568C236.689 36.3234 236.907 34.8869 237.563 34.5504C237.563 38.8948 237.602 38.6562 237.472 38.7873C237.336 38.9216 237.871 38.8814 230.626 38.8814C229.581 38.8814 229.02 37.6685 229.659 36.8704L233.206 32.4352C234.099 31.7977 235.15 31.461 236.248 31.461C239.805 31.461 241.105 31.2373 242.776 32.4117L243.274 33.0357C243.425 33.2245 243.7 33.2552 243.889 33.1044C244.077 32.9536 244.108 32.6784 243.957 32.4897C243.387 31.776 243.403 31.7854 243.334 31.7358C242.367 31.0395 241.22 30.644 240.033 30.5925C240.395 30.1965 240.491 29.8745 240.857 29.0452C241.241 28.1706 241.454 27.2151 241.454 26.225C241.454 25.201 240.923 24.2131 239.946 23.5973C239.946 22.6961 240.045 22.0243 239.376 21.352C238.159 20.1403 236.054 20.9885 236.054 22.729V23.5973C235.144 24.1704 234.546 25.1237 234.546 26.225C234.546 27.1944 234.747 28.1432 235.143 29.0458C235.538 29.9416 235.622 30.2157 235.968 30.5931C234.718 30.6493 233.563 31.0842 232.641 31.7644C232.57 31.8171 232.798 31.5444 228.977 36.3237C227.863 37.7138 228.873 39.756 230.626 39.756H233.778C233.786 40.1884 233.79 40.6831 233.792 41.2527C228.605 42.7693 228.935 42.6706 228.894 42.6889C226.843 43.599 226.336 46.3344 228.008 47.9085H224.442C224.2 47.9085 224.004 48.1043 224.004 48.3458C224.004 48.5874 224.2 48.7832 224.442 48.7832H251.558C251.8 48.7832 251.996 48.5874 251.996 48.3458C251.996 48.1043 251.8 47.9085 251.558 47.9085ZM242.495 36.3537L242.703 36.6191H242.445C242.46 36.5284 242.477 36.4403 242.495 36.3537ZM233.505 36.3537C233.523 36.4403 233.54 36.5285 233.555 36.6191H233.297L233.505 36.3537ZM236.929 22.729C236.929 21.7793 238.084 21.3004 238.757 21.9705C239.125 22.3394 239.071 22.717 239.071 23.2014C238.376 22.9936 237.626 22.9933 236.929 23.2014V22.729H236.929ZM236.161 24.6094C237.467 23.4224 239.707 23.8307 240.395 25.3695C239.207 25.1252 238.457 25.6078 237.835 26.0093C237.114 26.4744 236.581 26.8173 235.421 26.2399C235.421 25.5894 235.701 25.0272 236.161 24.6094ZM235.505 27.2267C236.673 27.65 237.397 27.3324 238.309 26.7444C238.953 26.329 239.516 25.9667 240.578 26.3236C240.554 27.7485 240.072 28.6575 239.668 29.5742C239.076 30.9195 236.923 30.9182 236.332 29.5738C235.927 28.6557 235.656 28.129 235.505 27.2267ZM234.485 46.5894C233.95 46.8566 233.319 47.0774 233.097 47.8997H232.405V46.0695L234.485 46.5894ZM234.046 47.8997C234.199 47.6722 234.208 47.7056 235.933 46.843C235.943 46.8383 235.964 46.8265 235.979 46.8169C236.799 46.2697 236.915 46.1352 237.336 46.1352C237.771 46.1352 238.155 46.4121 238.292 46.8243L238.339 46.9669C238.411 47.1839 238.638 47.3085 238.86 47.2532L243.595 46.0695V47.8998H234.046V47.8997ZM227.881 45.5948C227.881 44.686 228.413 43.8712 229.223 43.5L234.292 42.0177H239.043C239.285 42.0177 239.481 41.8219 239.481 41.5804C239.481 41.3388 239.285 41.143 239.043 41.143H234.666C234.665 40.6205 234.66 40.1618 234.653 39.756H237.246C237.523 39.756 237.785 39.6618 238 39.487C238.213 39.6612 238.477 39.756 238.754 39.756H241.347C241.336 40.3566 241.333 40.9818 241.333 41.5826C241.334 41.6675 241.359 41.7526 241.409 41.8257C241.536 42.0134 241.212 41.8726 246.777 43.5C248.231 44.1676 248.581 46.0882 247.444 47.2248C247.009 47.66 246.43 47.8998 245.815 47.8998H244.47V45.8508L244.893 45.7452C245.127 45.6865 245.27 45.4491 245.211 45.2147C245.152 44.9805 244.915 44.838 244.681 44.8965L239.024 46.3106C238.504 45.2523 237.181 44.9636 236.255 45.5815L235.656 45.9807L231.319 44.8965C231.085 44.8381 230.848 44.9804 230.789 45.2147C230.73 45.4491 230.873 45.6865 231.107 45.7452L231.53 45.8508V47.8998H230.185C228.915 47.8997 227.881 46.8658 227.881 45.5948Z" fill="#FF8E4F"/>
<path d="M244.435 34.4865C244.586 34.6752 244.861 34.7047 245.05 34.5537C245.238 34.4025 245.268 34.1273 245.117 33.9389L245.048 33.853C244.897 33.6646 244.622 33.6346 244.433 33.7858C244.245 33.937 244.215 34.2123 244.366 34.4007L244.435 34.4865Z" fill="#FF8E4F"/>
</g>
<path d="M270 34.7837C270 42.0042 267.558 49.0125 263.071 54.6696C258.584 60.3266 252.315 64.2999 245.284 65.9435C238.253 67.5872 230.873 66.8047 224.343 63.7231C217.813 60.6416 212.517 55.4422 209.316 48.97C206.115 42.4978 205.197 35.1332 206.711 28.0732C208.226 21.0132 212.083 14.6728 217.657 10.0825C223.23 5.49217 230.192 2.92178 237.412 2.78906" stroke="#FF8E4F" stroke-width="4" stroke-linecap="round"/>
<path d="M208.262 81.5105H209.594L211.909 87.1639H211.994L214.309 81.5105H215.641V88.7832H214.597V83.5204H214.53L212.385 88.7725H211.518L209.373 83.5169H209.306V88.7832H208.262V81.5105ZM217.237 88.7832V81.5105H221.796V82.4551H218.334V84.671H221.558V85.612H218.334V87.8386H221.839V88.7832H217.237ZM225.616 88.7832H223.262V81.5105H225.691C226.403 81.5105 227.015 81.6561 227.527 81.9473C228.038 82.2361 228.43 82.6516 228.702 83.1937C228.977 83.7335 229.114 84.381 229.114 85.1362C229.114 85.8938 228.976 86.5448 228.699 87.0893C228.424 87.6338 228.026 88.0529 227.506 88.3464C226.985 88.6376 226.355 88.7832 225.616 88.7832ZM224.359 87.8244H225.556C226.11 87.8244 226.57 87.7202 226.937 87.5119C227.304 87.3012 227.579 86.997 227.761 86.5993C227.943 86.1992 228.035 85.7115 228.035 85.1362C228.035 84.5656 227.943 84.0815 227.761 83.6838C227.581 83.286 227.313 82.9842 226.955 82.7782C226.598 82.5723 226.154 82.4693 225.623 82.4693H224.359V87.8244ZM231.576 81.5105V88.7832H230.479V81.5105H231.576ZM232.815 82.4551V81.5105H238.444V82.4551H236.175V88.7832H235.081V82.4551H232.815ZM239.443 88.7832H238.278L240.895 81.5105H242.163L244.78 88.7832H243.615L241.559 82.8315H241.502L239.443 88.7832ZM239.638 85.9352H243.416V86.8585H239.638V85.9352ZM244.612 82.4551V81.5105H250.241V82.4551H247.972V88.7832H246.878V82.4551H244.612ZM252.582 81.5105V88.7832H251.485V81.5105H252.582ZM260.497 85.1468C260.497 85.9234 260.355 86.591 260.071 87.1497C259.787 87.706 259.398 88.1345 258.903 88.4352C258.41 88.7335 257.851 88.8826 257.223 88.8826C256.593 88.8826 256.031 88.7335 255.536 88.4352C255.044 88.1345 254.656 87.7048 254.372 87.1461C254.088 86.5874 253.945 85.921 253.945 85.1468C253.945 84.3703 254.088 83.7039 254.372 83.1475C254.656 82.5888 255.044 82.1603 255.536 81.862C256.031 81.5614 256.593 81.411 257.223 81.411C257.851 81.411 258.41 81.5614 258.903 81.862C259.398 82.1603 259.787 82.5888 260.071 83.1475C260.355 83.7039 260.497 84.3703 260.497 85.1468ZM259.411 85.1468C259.411 84.555 259.315 84.0566 259.123 83.6518C258.934 83.2446 258.673 82.9368 258.342 82.7285C258.013 82.5178 257.64 82.4125 257.223 82.4125C256.804 82.4125 256.43 82.5178 256.101 82.7285C255.772 82.9368 255.512 83.2446 255.32 83.6518C255.13 84.0566 255.036 84.555 255.036 85.1468C255.036 85.7387 255.13 86.2382 255.32 86.6454C255.512 87.0502 255.772 87.358 256.101 87.5687C256.43 87.777 256.804 87.8812 257.223 87.8812C257.64 87.8812 258.013 87.777 258.342 87.5687C258.673 87.358 258.934 87.0502 259.123 86.6454C259.315 86.2382 259.411 85.7387 259.411 85.1468ZM267.735 81.5105V88.7832H266.727L263.03 83.4494H262.963V88.7832H261.865V81.5105H262.881L266.581 86.8514H266.649V81.5105H267.735Z" fill="#FF8E4F"/>
<path d="M224.285 107.783L229.047 98.3656V98.2857H223.539V96.8741H230.752V98.3336L226.006 107.783H224.285ZM236.058 107.932C235.391 107.932 234.791 107.805 234.258 107.549C233.729 107.29 233.306 106.934 232.99 106.483C232.674 106.032 232.506 105.518 232.484 104.939H234.082C234.121 105.407 234.329 105.793 234.705 106.095C235.082 106.396 235.533 106.547 236.058 106.547C236.477 106.547 236.849 106.452 237.172 106.26C237.498 106.064 237.754 105.796 237.939 105.455C238.127 105.115 238.221 104.726 238.221 104.289C238.221 103.845 238.125 103.449 237.933 103.101C237.742 102.753 237.477 102.48 237.14 102.281C236.806 102.082 236.422 101.981 235.989 101.977C235.659 101.977 235.327 102.034 234.993 102.148C234.659 102.261 234.389 102.41 234.183 102.595L232.676 102.371L233.289 96.8741H239.286V98.2857H234.657L234.311 101.338H234.375C234.588 101.132 234.871 100.96 235.222 100.821C235.577 100.683 235.957 100.613 236.362 100.613C237.026 100.613 237.617 100.771 238.136 101.088C238.658 101.404 239.068 101.835 239.366 102.382C239.668 102.925 239.817 103.55 239.814 104.257C239.817 104.964 239.657 105.594 239.334 106.148C239.015 106.702 238.571 107.139 238.003 107.458C237.438 107.774 236.79 107.932 236.058 107.932ZM247.454 105.738V105.162C247.454 104.751 247.539 104.374 247.709 104.033C247.883 103.689 248.135 103.414 248.466 103.208C248.799 102.998 249.203 102.893 249.675 102.893C250.158 102.893 250.563 102.996 250.889 103.202C251.216 103.408 251.463 103.683 251.63 104.028C251.8 104.372 251.885 104.751 251.885 105.162V105.738C251.885 106.15 251.8 106.528 251.63 106.872C251.459 107.213 251.209 107.488 250.879 107.698C250.552 107.904 250.151 108.007 249.675 108.007C249.195 108.007 248.791 107.904 248.46 107.698C248.13 107.488 247.88 107.213 247.709 106.872C247.539 106.528 247.454 106.15 247.454 105.738ZM248.695 105.162V105.738C248.695 106.043 248.767 106.32 248.913 106.569C249.059 106.817 249.313 106.942 249.675 106.942C250.033 106.942 250.284 106.817 250.426 106.569C250.568 106.32 250.639 106.043 250.639 105.738V105.162C250.639 104.857 250.57 104.58 250.431 104.331C250.296 104.083 250.044 103.959 249.675 103.959C249.32 103.959 249.068 104.083 248.918 104.331C248.769 104.58 248.695 104.857 248.695 105.162ZM241.967 99.4949V98.9196C241.967 98.5076 242.052 98.1294 242.223 97.785C242.397 97.4405 242.649 97.1653 242.979 96.9593C243.313 96.7534 243.716 96.6504 244.188 96.6504C244.671 96.6504 245.076 96.7534 245.403 96.9593C245.729 97.1653 245.976 97.4405 246.143 97.785C246.31 98.1294 246.394 98.5076 246.394 98.9196V99.4949C246.394 99.9068 246.308 100.285 246.138 100.629C245.971 100.97 245.722 101.246 245.392 101.455C245.065 101.661 244.664 101.764 244.188 101.764C243.705 101.764 243.299 101.661 242.968 101.455C242.642 101.246 242.393 100.97 242.223 100.629C242.052 100.285 241.967 99.9068 241.967 99.4949ZM243.214 98.9196V99.4949C243.214 99.8002 243.285 100.077 243.427 100.326C243.572 100.574 243.826 100.699 244.188 100.699C244.543 100.699 244.792 100.574 244.934 100.326C245.08 100.077 245.152 99.8002 245.152 99.4949V98.9196C245.152 98.6142 245.083 98.3372 244.945 98.0886C244.806 97.84 244.554 97.7157 244.188 97.7157C243.833 97.7157 243.581 97.84 243.432 98.0886C243.286 98.3372 243.214 98.6142 243.214 98.9196ZM242.473 107.783L249.973 96.8741H251.246L243.746 107.783H242.473Z" fill="#AF7B40"/>
<circle cx="340" cy="34.7832" r="32" fill="#FFF7EC" stroke="#FFDDAB" stroke-width="4"/>
<g clip-path="url(#clip3_1302_2954)">
<path fill-rule="evenodd" clip-rule="evenodd" d="M348.898 24.1503C348.611 24.0556 348.302 24.2114 348.207 24.4983C348.113 24.7849 348.268 25.0943 348.555 25.1889C351.158 26.0479 352.906 28.4678 352.906 31.2103C352.906 33.7956 351.36 36.0995 348.968 37.0796C348.968 37.0798 348.967 37.08 348.967 37.0802C348.967 37.0804 348.966 37.0804 348.966 37.0807C348.205 37.3966 347.42 37.5502 346.566 37.5502C346.264 37.5502 346.019 37.795 346.019 38.0971C346.019 38.3991 346.264 38.6439 346.566 38.6439C347.133 38.6439 347.675 38.5858 348.201 38.4677C347.736 39.3844 346.868 40.7832 345.398 42.1636C343.102 44.3188 338.843 46.8343 331.561 46.63C331.241 46.3886 330.307 45.6153 329.385 44.1875C328.34 42.5691 327.094 39.7514 327.094 35.5195C327.094 31.2688 327.439 28.4105 328.182 26.5238C328.873 24.7681 329.919 23.8003 331.575 23.3863C334.147 22.7436 335.19 23.0762 335.613 23.4684C336.01 23.8371 336.128 24.5111 335.963 25.4722C335.737 26.7862 335.36 27.5838 334.777 27.9822C334.186 28.3862 333.275 28.4554 331.992 28.1937C331.491 28.0848 330.871 27.9164 330.372 27.7539C330.084 27.6601 329.776 27.8173 329.682 28.1044C329.589 28.3915 329.746 28.7002 330.033 28.7938C330.431 28.9235 330.901 29.0565 331.337 29.164C331.373 30.5681 331.708 34.8489 334.375 36.798C333.7 38.8191 333.929 40.3049 333.939 40.3711C333.983 40.6396 334.215 40.8306 334.478 40.8306C334.508 40.8306 334.537 40.8285 334.566 40.8235C334.865 40.7753 335.067 40.4946 335.019 40.1963C335.017 40.1818 334.794 38.7328 335.544 36.7758C335.544 36.7747 335.545 36.7735 335.545 36.7724C335.546 36.7711 335.546 36.7703 335.546 36.7692C336.22 34.9395 337.446 33.3969 339.196 32.1737C339.336 33.2487 339.707 34.2801 340.292 35.1991C340.397 35.3627 340.574 35.4522 340.754 35.4522C340.855 35.4522 340.956 35.4244 341.048 35.3665C341.302 35.2042 341.377 34.8662 341.215 34.6114C340.568 33.5962 340.226 32.4202 340.226 31.2103C340.226 31.2099 340.226 31.2096 340.226 31.2094C340.227 28.4674 341.975 26.0479 344.578 25.1889C344.864 25.0943 345.02 24.7849 344.925 24.498C344.831 24.2114 344.521 24.0556 344.235 24.1503C341.282 25.125 339.266 27.8135 339.139 30.8999C337.122 32.1645 335.662 33.787 334.788 35.7331C332.875 34.1055 332.51 30.7749 332.442 29.3793C333.709 29.5492 334.658 29.3883 335.394 28.8854C336.249 28.3007 336.757 27.3053 337.04 25.6574C337.272 24.309 337.043 23.3028 336.357 22.6666C335.441 21.8169 333.79 21.7051 331.31 22.3253C329.303 22.8269 327.986 24.0336 327.164 26.1233C326.37 28.1418 326 31.1274 326 35.5195C326 40.0545 327.362 43.0907 328.504 44.839C329.761 46.7618 331.027 47.5958 331.08 47.6302C331.163 47.6845 331.26 47.7148 331.359 47.718C331.707 47.7298 332.052 47.7355 332.393 47.7355C335.398 47.7353 338.132 47.2848 340.531 46.3927C342.684 45.5925 344.573 44.4378 346.146 42.9608C348.392 40.8522 349.339 38.7089 349.611 37.9939C352.285 36.7946 354 34.1585 354 31.2103C354 27.9948 351.95 25.1577 348.898 24.1503Z" fill="#FF8E4F"/>
<path fill-rule="evenodd" clip-rule="evenodd" d="M346.566 24.8701C346.868 24.8701 347.113 24.6245 347.113 24.3232C347.113 24.022 346.868 23.7764 346.566 23.7764C346.265 23.7764 346.019 24.022 346.019 24.3232C346.019 24.6245 346.265 24.8701 346.566 24.8701Z" fill="#FF8E4F"/>
</g>
<path d="M372 34.7827C372 42.0033 369.558 49.0116 365.071 54.6686C360.584 60.3257 354.315 64.2989 347.284 65.9426C340.253 67.5863 332.873 66.8037 326.343 63.7222C319.813 60.6407 314.517 55.4413 311.316 48.9691C308.115 42.4968 307.197 35.1323 308.711 28.0723" stroke="#FF8E4F" stroke-width="4" stroke-linecap="round"/>
<path d="M317.759 83.421C317.721 83.0848 317.565 82.8244 317.29 82.6397C317.015 82.4527 316.67 82.3592 316.253 82.3592C315.955 82.3592 315.697 82.4065 315.479 82.5012C315.261 82.5936 315.092 82.7214 314.971 82.8848C314.853 83.0458 314.794 83.2292 314.794 83.4352C314.794 83.608 314.834 83.7572 314.914 83.8826C314.997 84.0081 315.105 84.1135 315.237 84.1987C315.372 84.2815 315.517 84.3514 315.671 84.4082C315.825 84.4627 315.973 84.5076 316.115 84.5431L316.825 84.7278C317.057 84.7846 317.295 84.8616 317.539 84.9586C317.782 85.0557 318.009 85.1835 318.217 85.3422C318.425 85.5008 318.593 85.6973 318.721 85.9316C318.851 86.166 318.916 86.4466 318.916 86.7733C318.916 87.1852 318.81 87.551 318.597 87.8706C318.386 88.1902 318.08 88.4423 317.677 88.627C317.277 88.8116 316.793 88.9039 316.225 88.9039C315.68 88.9039 315.209 88.8175 314.811 88.6447C314.414 88.4719 314.102 88.2269 313.877 87.9096C313.652 87.59 313.528 87.2112 313.505 86.7733H314.605C314.627 87.036 314.712 87.255 314.861 87.4302C315.013 87.603 315.206 87.7321 315.44 87.8173C315.677 87.9002 315.936 87.9416 316.218 87.9416C316.528 87.9416 316.804 87.8931 317.045 87.796C317.289 87.6966 317.481 87.5592 317.62 87.3841C317.76 87.2065 317.83 86.9993 317.83 86.7626C317.83 86.5472 317.768 86.3708 317.645 86.2335C317.524 86.0962 317.36 85.9825 317.152 85.8926C316.946 85.8026 316.712 85.7233 316.452 85.6547L315.593 85.4203C315.01 85.2617 314.549 85.0285 314.208 84.7207C313.869 84.4129 313.7 84.0057 313.7 83.4991C313.7 83.0801 313.813 82.7143 314.041 82.4018C314.268 82.0893 314.576 81.8466 314.964 81.6738C315.352 81.4986 315.79 81.411 316.278 81.411C316.77 81.411 317.205 81.4975 317.581 81.6703C317.96 81.8431 318.258 82.081 318.476 82.3841C318.694 82.6847 318.808 83.0304 318.817 83.421H317.759ZM319.869 82.4551V81.5105H325.498V82.4551H323.228V88.7832H322.135V82.4551H319.869ZM326.741 88.7832V81.5105H329.334C329.897 81.5105 330.365 81.6075 330.736 81.8017C331.11 81.9958 331.39 82.2645 331.574 82.6078C331.759 82.9487 331.851 83.3429 331.851 83.7903C331.851 84.2354 331.758 84.6272 331.571 84.9657C331.386 85.3019 331.107 85.5635 330.733 85.7505C330.361 85.9376 329.894 86.0311 329.33 86.0311H327.366V85.0865H329.231C329.586 85.0865 329.875 85.0356 330.097 84.9338C330.322 84.832 330.487 84.684 330.591 84.4899C330.695 84.2958 330.747 84.0626 330.747 83.7903C330.747 83.5157 330.694 83.2778 330.587 83.0765C330.483 82.8753 330.319 82.7214 330.094 82.6149C329.871 82.506 329.579 82.4515 329.217 82.4515H327.839V88.7832H326.741ZM330.332 85.502L332.128 88.7832H330.878L329.117 85.502H330.332ZM333.187 88.7832V81.5105H337.746V82.4551H334.284V84.671H337.508V85.612H334.284V87.8386H337.789V88.7832H333.187ZM345.082 81.5105V88.7832H344.074L340.377 83.4494H340.309V88.7832H339.212V81.5105H340.228L343.928 86.8514H343.995V81.5105H345.082ZM351.605 83.8081C351.536 83.5926 351.444 83.3997 351.328 83.2292C351.214 83.0564 351.078 82.9096 350.919 82.7889C350.761 82.6658 350.58 82.5723 350.376 82.5083C350.175 82.4444 349.953 82.4125 349.712 82.4125C349.302 82.4125 348.933 82.5178 348.604 82.7285C348.275 82.9392 348.014 83.2482 347.823 83.6554C347.633 84.0602 347.539 84.5562 347.539 85.1433C347.539 85.7328 347.634 86.2311 347.826 86.6383C348.018 87.0455 348.281 87.3545 348.615 87.5652C348.948 87.7759 349.328 87.8812 349.755 87.8812C350.15 87.8812 350.494 87.8007 350.788 87.6397C351.084 87.4788 351.312 87.2515 351.473 86.9579C351.637 86.662 351.718 86.314 351.718 85.9139L352.002 85.9672H349.921V85.0616H352.78V85.889C352.78 86.4998 352.65 87.0301 352.389 87.4799C352.131 87.9274 351.774 88.273 351.317 88.5169C350.862 88.7607 350.342 88.8826 349.755 88.8826C349.096 88.8826 348.519 88.7311 348.022 88.4281C347.527 88.1251 347.141 87.6954 346.864 87.139C346.587 86.5803 346.448 85.9174 346.448 85.1504C346.448 84.5704 346.529 84.0495 346.69 83.5879C346.851 83.1262 347.077 82.7344 347.368 82.4125C347.662 82.0881 348.006 81.8407 348.402 81.6703C348.799 81.4975 349.234 81.411 349.705 81.411C350.098 81.411 350.464 81.469 350.802 81.585C351.143 81.7011 351.446 81.8656 351.711 82.0787C351.979 82.2917 352.2 82.545 352.375 82.8386C352.55 83.1298 352.669 83.4529 352.73 83.8081H351.605ZM353.512 82.4551V81.5105H359.14V82.4551H356.871V88.7832H355.777V82.4551H353.512ZM360.384 88.7832V81.5105H361.481V84.671H365.107V81.5105H366.208V88.7832H365.107V85.612H361.481V88.7832H360.384Z" fill="#FF8E4F"/>
<path d="M329.138 107.932C328.47 107.932 327.87 107.805 327.337 107.549C326.808 107.29 326.385 106.934 326.069 106.483C325.753 106.032 325.585 105.518 325.563 104.939H327.161C327.2 105.407 327.408 105.793 327.785 106.095C328.161 106.396 328.612 106.547 329.138 106.547C329.557 106.547 329.928 106.452 330.251 106.26C330.578 106.064 330.833 105.796 331.018 105.455C331.206 105.115 331.3 104.726 331.3 104.289C331.3 103.845 331.204 103.449 331.013 103.101C330.821 102.753 330.556 102.48 330.219 102.281C329.885 102.082 329.502 101.981 329.068 101.977C328.738 101.977 328.406 102.034 328.072 102.148C327.738 102.261 327.468 102.41 327.263 102.595L325.755 102.371L326.368 96.8741H332.366V98.2857H327.737L327.39 101.338H327.454C327.667 101.132 327.95 100.96 328.301 100.821C328.656 100.683 329.036 100.613 329.441 100.613C330.105 100.613 330.696 100.771 331.215 101.088C331.737 101.404 332.147 101.835 332.445 102.382C332.747 102.925 332.896 103.55 332.893 104.257C332.896 104.964 332.737 105.594 332.413 106.148C332.094 106.702 331.65 107.139 331.082 107.458C330.517 107.774 329.869 107.932 329.138 107.932ZM338.439 107.932C337.772 107.932 337.172 107.805 336.639 107.549C336.11 107.29 335.687 106.934 335.371 106.483C335.055 106.032 334.886 105.518 334.865 104.939H336.463C336.502 105.407 336.71 105.793 337.086 106.095C337.463 106.396 337.914 106.547 338.439 106.547C338.858 106.547 339.229 106.452 339.553 106.26C339.879 106.064 340.135 105.796 340.32 105.455C340.508 105.115 340.602 104.726 340.602 104.289C340.602 103.845 340.506 103.449 340.314 103.101C340.123 102.753 339.858 102.48 339.521 102.281C339.187 102.082 338.803 101.981 338.37 101.977C338.04 101.977 337.708 102.034 337.374 102.148C337.04 102.261 336.77 102.41 336.564 102.595L335.057 102.371L335.669 96.8741H341.667V98.2857H337.038L336.692 101.338H336.756C336.969 101.132 337.251 100.96 337.603 100.821C337.958 100.683 338.338 100.613 338.743 100.613C339.407 100.613 339.998 100.771 340.517 101.088C341.039 101.404 341.449 101.835 341.747 102.382C342.049 102.925 342.198 103.55 342.195 104.257C342.198 104.964 342.038 105.594 341.715 106.148C341.396 106.702 340.952 107.139 340.384 107.458C339.819 107.774 339.171 107.932 338.439 107.932ZM349.834 105.738V105.162C349.834 104.751 349.92 104.374 350.09 104.033C350.264 103.689 350.516 103.414 350.847 103.208C351.18 102.998 351.583 102.893 352.056 102.893C352.539 102.893 352.943 102.996 353.27 103.202C353.597 103.408 353.844 103.683 354.011 104.028C354.181 104.372 354.266 104.751 354.266 105.162V105.738C354.266 106.15 354.181 106.528 354.011 106.872C353.84 107.213 353.59 107.488 353.259 107.698C352.933 107.904 352.532 108.007 352.056 108.007C351.576 108.007 351.171 107.904 350.841 107.698C350.511 107.488 350.261 107.213 350.09 106.872C349.92 106.528 349.834 106.15 349.834 105.738ZM351.076 105.162V105.738C351.076 106.043 351.148 106.32 351.294 106.569C351.44 106.817 351.693 106.942 352.056 106.942C352.414 106.942 352.665 106.817 352.807 106.569C352.949 106.32 353.02 106.043 353.02 105.738V105.162C353.02 104.857 352.951 104.58 352.812 104.331C352.677 104.083 352.425 103.959 352.056 103.959C351.701 103.959 351.448 104.083 351.299 104.331C351.15 104.58 351.076 104.857 351.076 105.162ZM344.348 99.4949V98.9196C344.348 98.5076 344.433 98.1294 344.604 97.785C344.778 97.4405 345.03 97.1653 345.36 96.9593C345.694 96.7534 346.097 96.6504 346.569 96.6504C347.052 96.6504 347.457 96.7534 347.784 96.9593C348.11 97.1653 348.357 97.4405 348.524 97.785C348.691 98.1294 348.774 98.5076 348.774 98.9196V99.4949C348.774 99.9068 348.689 100.285 348.519 100.629C348.352 100.97 348.103 101.246 347.773 101.455C347.446 101.661 347.045 101.764 346.569 101.764C346.086 101.764 345.68 101.661 345.349 101.455C345.023 101.246 344.774 100.97 344.604 100.629C344.433 100.285 344.348 99.9068 344.348 99.4949ZM345.594 98.9196V99.4949C345.594 99.8002 345.665 100.077 345.807 100.326C345.953 100.574 346.207 100.699 346.569 100.699C346.924 100.699 347.173 100.574 347.315 100.326C347.46 100.077 347.533 99.8002 347.533 99.4949V98.9196C347.533 98.6142 347.464 98.3372 347.326 98.0886C347.187 97.84 346.935 97.7157 346.569 97.7157C346.214 97.7157 345.962 97.84 345.813 98.0886C345.667 98.3372 345.594 98.6142 345.594 98.9196ZM344.854 107.783L352.354 96.8741H353.627L346.127 107.783H344.854Z" fill="#AF7B40"/>
<defs>
<clipPath id="clip0_1302_2954">
<rect width="34" height="34" fill="white" transform="translate(17 17.7832)"/>
</clipPath>
<clipPath id="clip1_1302_2954">
<rect width="28" height="28" fill="white" transform="translate(122 20.7832)"/>
</clipPath>
<clipPath id="clip2_1302_2954">
<rect width="28" height="28" fill="white" transform="translate(224 20.7832)"/>
</clipPath>
<clipPath id="clip3_1302_2954">
<rect width="28" height="28" fill="white" transform="translate(326 20.7832)"/>
</clipPath>
</defs>
</svg>
