<svg width="42" height="125" viewBox="0 0 42 125" fill="none" xmlns="http://www.w3.org/2000/svg">
<g clip-path="url(#clip0_3111_2715)">
<path d="M35.9905 98.8655C34.1883 99.9309 31.686 100.215 29.7796 99.1986C29.0127 100.037 28.73 101.244 29.0546 102.353C29.4691 101.956 30.038 101.562 30.7774 101.367C32.3073 100.963 33.9625 101.538 35.0968 102.867C35.4042 103.228 35.4042 103.772 35.0967 104.132C33.9626 105.462 32.3076 106.036 30.7774 105.633C30.038 105.437 29.4691 105.044 29.0546 104.647C28.73 105.755 29.0127 106.963 29.7796 107.801C30.6384 107.342 31.6535 107.187 32.5665 107.187C33.7504 107.187 34.9266 107.505 35.9905 108.134C37.8613 109.24 39.0922 111.134 39.3675 113.332C39.4491 113.984 39.0924 114.616 38.5002 114.869C36.5041 115.724 34.2861 115.58 32.4154 114.474C30.6108 113.407 29.1205 111.331 29.0282 109.132C28.5253 109.011 27.998 109.018 27.485 109.159C26.9049 109.318 26.3922 109.635 25.9919 110.073C26.5371 110.244 27.1439 110.55 27.6849 111.094C28.7886 112.204 29.2046 113.924 28.7705 115.584C28.647 116.055 28.1984 116.357 27.7283 116.288C25.9618 116.027 24.5322 114.831 24.0862 113.24C23.8752 112.488 23.9232 111.784 24.0538 111.216C22.9553 111.483 22.0768 112.337 21.7515 113.435C23.5822 114.631 24.5752 116.94 24.5752 119.108C24.5752 121.32 23.5882 123.358 21.8672 124.701C21.3567 125.1 20.6434 125.1 20.1328 124.701C18.4119 123.359 17.4249 121.32 17.4249 119.108C17.4249 116.938 18.4467 114.614 20.2487 113.435C19.9234 112.337 19.0449 111.483 17.9465 111.216C18.0771 111.784 18.1251 112.488 17.9141 113.24C17.468 114.831 16.0383 116.028 14.2721 116.288C13.8014 116.358 13.353 116.055 13.2297 115.583C12.7956 113.925 13.2116 112.205 14.3152 111.094C14.8563 110.55 15.4632 110.244 16.0083 110.073C15.6081 109.635 15.0954 109.318 14.5151 109.159C14.002 109.018 13.4748 109.011 12.9719 109.132C12.8796 111.298 11.3904 113.407 9.58472 114.474C7.71405 115.58 5.49613 115.724 3.49994 114.869C2.90758 114.616 2.55098 113.984 2.63269 113.332C2.90799 111.135 4.13881 109.24 6.00965 108.134C7.07362 107.505 8.24989 107.188 9.4337 107.188C10.3526 107.188 11.3719 107.348 12.2206 107.801C12.9874 106.963 13.2702 105.755 12.9456 104.647C12.5312 105.044 11.9623 105.437 11.2228 105.633C9.69284 106.036 8.03775 105.462 6.90364 104.133C6.59586 103.772 6.59586 103.228 6.90356 102.868C8.03775 101.538 9.69284 100.963 11.2228 101.367C11.9623 101.562 12.5313 101.956 12.9456 102.353C13.2702 101.245 12.9874 100.037 12.2207 99.1988C10.3132 100.214 7.81536 99.933 6.00973 98.8657C4.13897 97.7598 2.90807 95.8654 2.63277 93.6683C2.55098 93.0163 2.90766 92.3839 3.49994 92.1304C5.4894 91.2791 7.70806 91.4165 9.58481 92.5259C11.4118 93.6059 12.8769 95.6326 12.972 97.8678C13.4749 97.9888 14.0022 97.9816 14.5152 97.8409C15.0937 97.6821 15.605 97.3672 16.0048 96.9309C15.4607 96.762 14.8423 96.4545 14.3077 95.8975C13.1945 94.7379 12.8529 92.9024 13.4376 91.2213C13.5969 90.7634 14.066 90.4986 14.5293 90.6057C16.2108 90.9948 17.509 92.2074 17.9172 93.7705C18.1136 94.5224 18.0705 95.2151 17.9412 95.7855C19.042 95.5195 19.9229 94.6646 20.2487 93.565C18.4461 92.3877 17.425 90.0083 17.425 87.8916C17.425 85.68 18.412 83.6414 20.1329 82.2986C20.3882 82.0995 20.6941 81.9999 21.0001 81.9999C21.3061 81.9999 21.612 82.0995 21.8673 82.2987C23.5883 83.6414 24.5752 85.68 24.5752 87.8916C24.5752 90.0253 23.565 92.3803 21.7516 93.5649C22.077 94.6633 22.9562 95.5175 24.0552 95.7845C23.9263 95.2186 23.8786 94.5176 24.0851 93.7634C24.5044 92.2303 25.7933 91.0636 27.4484 90.7189C27.9003 90.6245 28.3601 90.8882 28.518 91.332C29.0973 92.9603 28.7747 94.7509 27.6962 95.8937C27.1633 96.4586 26.5453 96.7679 26.0003 96.9362C26.3993 97.3697 26.9089 97.6828 27.485 97.8408C27.998 97.9815 28.5253 97.9886 29.0282 97.8676C29.1218 95.6436 30.6291 93.5818 32.4154 92.5257C34.2906 91.4172 36.5119 91.2796 38.5002 92.1302C39.0925 92.3837 39.4491 93.0161 39.3675 93.668C39.0922 95.8653 37.8613 97.7597 35.9905 98.8655ZM31.0848 104.413C32.0698 104.673 33.1842 104.316 33.9899 103.5C33.1842 102.684 32.0694 102.327 31.0848 102.587C30.4405 102.757 29.9772 103.153 29.6783 103.5C29.9772 103.846 30.4406 104.243 31.0848 104.413ZM33.0306 113.383C34.566 114.291 36.3865 114.409 38.0258 113.707C38.1072 113.672 38.1582 113.582 38.147 113.492C37.921 111.688 36.9108 110.133 35.3754 109.225C34.029 108.429 32.4631 108.241 30.993 108.679L33.5277 110.177C33.8219 110.351 33.9227 110.737 33.7528 111.038C33.5829 111.339 33.2066 111.442 32.9124 111.268L30.3779 109.77C30.742 111.293 31.6843 112.587 33.0306 113.383ZM8.47252 110.177L11.0072 108.679C9.5369 108.241 7.97122 108.429 6.6249 109.225C5.08949 110.133 4.07925 111.688 3.85317 113.492C3.84193 113.582 3.89288 113.672 3.9745 113.707C5.61351 114.409 7.43407 114.29 8.96948 113.383C10.3158 112.587 11.2581 111.293 11.6223 109.771L9.08769 111.269C8.79335 111.442 8.41707 111.34 8.24726 111.038C8.07737 110.737 8.17819 110.352 8.47252 110.177ZM10.9155 102.587C9.93074 102.327 8.81616 102.684 8.01035 103.5C8.81599 104.316 9.93049 104.673 10.9155 104.413C11.5597 104.243 12.0232 103.846 12.3219 103.5C12.0232 103.153 11.5597 102.757 10.9155 102.587ZM8.96948 93.6168C7.43415 92.7091 5.6136 92.591 3.97442 93.2927C3.89288 93.3276 3.84193 93.418 3.85317 93.5079C4.07917 95.3118 5.08949 96.867 6.6249 97.7746C7.49805 98.2907 8.46325 98.5515 9.43501 98.5515C9.96126 98.5515 10.4893 98.4735 11.0057 98.3196L8.47252 96.8222C8.17827 96.6483 8.07745 96.263 8.24734 95.9618C8.41904 95.6574 8.79803 95.5596 9.08777 95.7312L11.6223 97.2294C11.2582 95.7065 10.3159 94.4127 8.96948 93.6168ZM25.2688 112.893C25.56 113.931 26.4768 114.734 27.6416 114.993C27.8568 113.858 27.5536 112.728 26.8226 111.993C26.3458 111.514 25.777 111.298 25.3346 111.201C25.1903 111.64 25.0873 112.246 25.2688 112.893ZM18.6555 119.108C18.6555 120.923 19.4658 122.597 20.8788 123.699C20.9491 123.754 21.0512 123.754 21.1215 123.699C22.5344 122.597 23.3448 120.923 23.3448 119.108C23.3448 117.516 22.7215 116.034 21.6154 114.95V117.946C21.6154 118.294 21.34 118.576 21.0002 118.576C20.6604 118.576 20.3849 118.294 20.3849 117.946V114.95C19.2787 116.034 18.6555 117.516 18.6555 119.108ZM15.1776 111.993C14.4465 112.728 14.1433 113.858 14.3585 114.993C15.5233 114.734 16.4402 113.931 16.7313 112.893C16.9129 112.245 16.8099 111.639 16.6656 111.201C16.2232 111.298 15.6545 111.513 15.1776 111.993ZM16.7284 94.0959C16.4592 93.0653 15.6231 92.2441 14.5165 91.9039C14.2042 93.0568 14.4552 94.2539 15.1853 95.0144C15.6487 95.4971 16.2143 95.7102 16.6569 95.8032C16.7981 95.3637 16.9002 94.7537 16.7284 94.0959ZM23.3447 87.8915C23.3447 86.0764 22.5343 84.403 21.1215 83.3006C21.051 83.2457 20.949 83.2458 20.8787 83.3005C19.4657 84.403 18.6554 86.0764 18.6554 87.8915C18.6554 89.4832 19.2786 90.9657 20.3848 92.05V89.0535C20.3848 88.7056 20.6603 88.4236 21.0001 88.4236C21.34 88.4236 21.6153 88.7056 21.6153 89.0535V92.05C22.7215 90.9657 23.3447 89.4833 23.3447 87.8915ZM26.8112 95.0184C27.5114 94.2763 27.7477 93.1206 27.4416 92.0153C26.364 92.322 25.5433 93.1037 25.2699 94.103C25.0895 94.7621 25.1943 95.3719 25.339 95.8091C25.7811 95.72 26.3484 95.5088 26.8112 95.0184ZM24.5938 97.1273C23.0655 97.0591 21.7372 96.1893 21.0001 94.9194C20.2631 96.1892 18.9347 97.0591 17.4065 97.1273C16.8137 98.0812 15.9069 98.7633 14.8337 99.0576C14.4731 99.1565 14.1073 99.2075 13.7435 99.2124C14.4476 100.5 14.5188 102.112 13.8128 103.5C14.5188 104.888 14.4476 106.499 13.7434 107.787C14.1072 107.792 14.473 107.843 14.8337 107.942C15.9069 108.236 16.8137 108.918 17.4065 109.872C18.9347 109.94 20.2631 110.81 21.0001 112.08C21.7371 110.81 23.0653 109.94 24.5937 109.872C25.1866 108.918 26.0933 108.236 27.1666 107.942C27.5273 107.843 27.8929 107.792 28.2568 107.787C27.5525 106.499 27.4814 104.888 28.1873 103.5C27.4809 102.111 27.5526 100.498 28.2582 99.2096C26.8156 99.191 25.4157 98.4483 24.5938 97.1273ZM38.0257 93.2926C36.3865 92.591 34.566 92.7092 33.0306 93.6167C31.6843 94.4126 30.742 95.7065 30.3779 97.2292L32.9124 95.7311C33.2015 95.5599 33.5811 95.6572 33.7528 95.9616C33.9227 96.2629 33.8219 96.6481 33.5277 96.822L30.9946 98.3194C31.511 98.4734 32.0389 98.5513 32.5652 98.5513C33.5369 98.5513 34.5023 98.2905 35.3754 97.7744C36.9108 96.8668 37.921 95.3117 38.147 93.5077C38.1582 93.418 38.1072 93.3275 38.0257 93.2926ZM21.0001 108.013C18.5694 108.013 16.5918 105.988 16.5918 103.5C16.5918 101.011 18.5693 98.9867 21.0001 98.9867C23.4308 98.9867 25.4083 101.011 25.4083 103.5C25.4083 105.988 23.4308 108.013 21.0001 108.013ZM21.0001 100.246C19.2479 100.246 17.8223 101.706 17.8223 103.5C17.8223 105.294 19.2479 106.753 21.0001 106.753C22.7522 106.753 24.1778 105.294 24.1778 103.5C24.1778 101.706 22.7523 100.246 21.0001 100.246Z" fill="#FF8E4F"/>
</g>
<path d="M21 82.9944L21 1" stroke="#FF8E4F" stroke-linecap="round"/>
<defs>
<clipPath id="clip0_3111_2715">
<rect width="42" height="43" fill="white" transform="matrix(1 0 0 -1 0 125)"/>
</clipPath>
</defs>
</svg>
