<svg width="17" height="19" viewBox="0 0 17 19" fill="none" xmlns="http://www.w3.org/2000/svg">
<g clip-path="url(#clip0_711_309)">
<path d="M14.5677 7.91643C13.8383 8.36239 12.8254 8.4814 12.0538 8.05586C11.7434 8.40676 11.6289 8.91225 11.7603 9.37628C11.9281 9.20996 12.1583 9.04528 12.4576 8.96354C13.0769 8.79447 13.7468 9.03508 14.206 9.59165C14.3304 9.74255 14.3304 9.97019 14.2059 10.1211C13.7469 10.6777 13.077 10.9182 12.4576 10.7492C12.1583 10.6675 11.9281 10.5028 11.7603 10.3364C11.6289 10.8005 11.7434 11.306 12.0538 11.6569C12.4014 11.4648 12.8123 11.4 13.1818 11.4C13.661 11.4 14.1371 11.5331 14.5677 11.7963C15.3249 12.2592 15.8231 13.0522 15.9346 13.972C15.9676 14.2449 15.8232 14.5096 15.5835 14.6157C14.7756 14.9734 13.8778 14.9131 13.1206 14.4502C12.3902 14.0036 11.787 13.1347 11.7496 12.214C11.5461 12.1634 11.3326 12.1664 11.125 12.2253C10.8902 12.292 10.6827 12.4244 10.5206 12.6079C10.7413 12.6794 10.9869 12.8077 11.2059 13.0355C11.6527 13.5001 11.821 14.2201 11.6453 14.9147C11.5953 15.1119 11.4137 15.2386 11.2235 15.2095C10.5085 15.1005 9.92981 14.5998 9.74928 13.9338C9.66388 13.6188 9.68334 13.3243 9.73616 13.0863C9.29156 13.1982 8.93595 13.5557 8.8043 14.0152C9.54527 14.5161 9.94721 15.4824 9.94721 16.3902C9.94721 17.3159 9.54773 18.1693 8.85112 18.7314C8.64449 18.8981 8.35578 18.8982 8.14912 18.7314C7.45254 18.1693 7.05306 17.3159 7.05306 16.3902C7.05306 15.4816 7.46662 14.5089 8.19601 14.0152C8.06435 13.5557 7.70877 13.1982 7.26417 13.0863C7.31703 13.3244 7.33646 13.6188 7.25106 13.9339C7.0705 14.5998 6.49182 15.1006 5.77691 15.2095C5.58639 15.2387 5.4049 15.1119 5.35499 14.9146C5.17928 14.2202 5.34765 13.5002 5.79438 13.0355C6.01339 12.8077 6.25903 12.6794 6.47967 12.6079C6.31767 12.4244 6.11014 12.292 5.87529 12.2253C5.6676 12.1664 5.4542 12.1635 5.25066 12.2141C5.21328 13.1207 4.61053 14.0034 3.87965 14.4502C3.12247 14.9131 2.22474 14.9734 1.41676 14.6158C1.17699 14.5097 1.03266 14.2449 1.06573 13.972C1.17716 13.0523 1.67535 12.2593 2.43259 11.7963C2.86325 11.5331 3.33936 11.4001 3.81852 11.4001C4.19043 11.4001 4.60302 11.4673 4.94655 11.6569C5.25694 11.3061 5.37139 10.8006 5.24001 10.3365C5.07226 10.5028 4.84199 10.6675 4.54269 10.7492C3.92341 10.9182 3.25349 10.6777 2.79445 10.1212C2.66987 9.97026 2.66987 9.74255 2.79442 9.59169C3.25349 9.03519 3.92341 8.79461 4.54269 8.96361C4.84199 9.04535 5.07229 9.21003 5.24001 9.37635C5.37139 8.91232 5.25694 8.40679 4.94658 8.05593C4.1745 8.48073 3.16348 8.36327 2.43263 7.9165C1.67542 7.45358 1.17719 6.66055 1.06576 5.74084C1.03266 5.46792 1.17703 5.20319 1.41676 5.09709C2.22202 4.74074 3.12004 4.79825 3.87968 5.26264C4.61916 5.71472 5.21218 6.5631 5.2507 7.49876C5.45424 7.54942 5.66767 7.54643 5.87533 7.48751C6.10948 7.42106 6.31644 7.28923 6.47824 7.10659C6.258 7.03589 6.00771 6.90718 5.79132 6.67402C5.34075 6.1886 5.20249 5.42025 5.43916 4.71651C5.50361 4.52484 5.6935 4.41399 5.88104 4.45885C6.56165 4.62169 7.0871 5.12929 7.25232 5.78363C7.33181 6.09839 7.31438 6.38833 7.26202 6.62712C7.70761 6.51577 8.06415 6.15791 8.19604 5.6976C7.46639 5.20477 7.0531 4.20878 7.0531 3.32268C7.0531 2.39689 7.45261 1.54356 8.14915 0.98144C8.25248 0.898083 8.3763 0.856386 8.50015 0.856386C8.624 0.856386 8.74782 0.898083 8.85118 0.981474C9.54776 1.54353 9.94724 2.39689 9.94724 3.32268C9.94724 4.21588 9.53833 5.20168 8.80433 5.69757C8.93605 6.15735 9.29193 6.51493 9.73676 6.62669C9.68456 6.38981 9.66527 6.09639 9.74885 5.78064C9.91858 5.13889 10.4402 4.65052 11.1102 4.5062C11.2931 4.46672 11.4792 4.57708 11.5431 4.76285C11.7776 5.44447 11.647 6.19402 11.2105 6.67243C10.9948 6.90886 10.7447 7.03835 10.5241 7.1088C10.6856 7.29028 10.8918 7.42135 11.125 7.48748C11.3326 7.54636 11.5461 7.54935 11.7496 7.49869C11.7875 6.56774 12.3976 5.70463 13.1206 5.26257C13.8796 4.79853 14.7788 4.74091 15.5835 5.09702C15.8233 5.20312 15.9676 5.46782 15.9346 5.74074C15.8231 6.66051 15.3249 7.45352 14.5677 7.91643ZM12.5821 10.2385C12.9807 10.3475 13.4318 10.198 13.7579 9.85639C13.4318 9.51476 12.9806 9.36545 12.5821 9.47423C12.3213 9.54542 12.1337 9.7114 12.0128 9.85639C12.1337 10.0014 12.3213 10.1673 12.5821 10.2385ZM13.3697 13.9934C13.9911 14.3734 14.728 14.4228 15.3915 14.1291C15.4245 14.1145 15.4451 14.0767 15.4406 14.039C15.3491 13.2839 14.9402 12.6329 14.3187 12.253C13.7737 11.9198 13.1399 11.8409 12.5449 12.0244L13.5708 12.6516C13.6899 12.7244 13.7307 12.8857 13.662 13.0118C13.5932 13.1379 13.4409 13.181 13.3218 13.1083L12.2959 12.4812C12.4433 13.1187 12.8247 13.6603 13.3697 13.9934ZM3.42947 12.6517L4.4554 12.0245C3.86029 11.8409 3.22656 11.9199 2.68162 12.253C2.06015 12.633 1.65124 13.2839 1.55973 14.0391C1.55518 14.0767 1.5758 14.1146 1.60884 14.1292C2.27225 14.4228 3.00914 14.3734 3.63062 13.9935C4.17556 13.6604 4.55697 13.1188 4.70436 12.4813L3.67847 13.1084C3.55933 13.1812 3.40703 13.1381 3.33829 13.0119C3.26953 12.8858 3.31034 12.7245 3.42947 12.6517ZM4.41828 9.47423C4.0197 9.36524 3.56856 9.51473 3.2424 9.85639C3.5685 10.198 4.0196 10.3474 4.41828 10.2385C4.67906 10.1673 4.86663 10.0014 4.98756 9.85639C4.86663 9.7114 4.67906 9.54542 4.41828 9.47423ZM3.63062 5.71929C3.00918 5.33932 2.27229 5.28989 1.60881 5.58362C1.5758 5.59821 1.55518 5.63608 1.55973 5.67369C1.65121 6.42883 2.06015 7.07983 2.68162 7.45977C3.03504 7.67581 3.42572 7.78497 3.81905 7.78497C4.03205 7.78497 4.24579 7.75231 4.4548 7.68791L3.42947 7.06109C3.31037 6.98828 3.26956 6.82702 3.33833 6.70091C3.40782 6.5735 3.56122 6.53254 3.6785 6.6044L4.7044 7.23153C4.557 6.59403 4.17559 6.05244 3.63062 5.71929ZM10.228 13.7883C10.3458 14.223 10.7169 14.559 11.1884 14.6673C11.2755 14.1924 11.1528 13.7194 10.8569 13.4117C10.6639 13.211 10.4337 13.1206 10.2546 13.0803C10.1962 13.2637 10.1545 13.5174 10.228 13.7883ZM7.55115 16.3901C7.55115 17.1499 7.87914 17.8504 8.45104 18.3118C8.4795 18.3348 8.52084 18.3348 8.54929 18.3119C9.1212 17.8504 9.44918 17.1499 9.44918 16.3901C9.44918 15.7238 9.19693 15.1032 8.74921 14.6493V15.9037C8.74921 16.0493 8.63775 16.1673 8.50019 16.1673C8.36266 16.1673 8.25116 16.0493 8.25116 15.9037V14.6493C7.8034 15.1032 7.55115 15.7238 7.55115 16.3901ZM6.14341 13.4117C5.8475 13.7195 5.72478 14.1924 5.81191 14.6673C6.28337 14.559 6.65449 14.223 6.77233 13.7883C6.84581 13.5173 6.80414 13.2637 6.74573 13.0803C6.56666 13.1206 6.33646 13.2109 6.14341 13.4117ZM6.77113 5.91983C6.66219 5.48842 6.32374 5.14469 5.87582 5.00227C5.74945 5.48487 5.85102 5.98599 6.14654 6.30434C6.3341 6.50639 6.56304 6.59562 6.74221 6.63453C6.79935 6.45056 6.84069 6.19521 6.77113 5.91983ZM9.44915 3.32265C9.44915 2.56283 9.12116 1.86237 8.54929 1.4009C8.52077 1.3779 8.47947 1.37794 8.45101 1.40086C7.87911 1.86237 7.55112 2.56283 7.55112 3.32265C7.55112 3.98894 7.80337 4.60953 8.25112 5.06341V3.80908C8.25112 3.66342 8.36262 3.5454 8.50015 3.5454C8.63771 3.5454 8.74918 3.66342 8.74918 3.80908V5.06341C9.1969 4.60953 9.44915 3.98897 9.44915 3.32265ZM10.8523 6.30599C11.1357 5.99535 11.2313 5.51159 11.1074 5.04889C10.6712 5.17728 10.3391 5.50452 10.2284 5.92282C10.1554 6.19873 10.1978 6.454 10.2564 6.637C10.4353 6.59969 10.6649 6.51131 10.8523 6.30599ZM9.95474 7.18882C9.33616 7.16027 8.79849 6.79615 8.50015 6.26458C8.20185 6.79611 7.66418 7.16027 7.04559 7.18882C6.80566 7.5881 6.43863 7.87364 6.00422 7.99683C5.85826 8.03824 5.71021 8.05958 5.56295 8.06162C5.84797 8.60075 5.87676 9.27528 5.591 9.85639C5.87676 10.4375 5.84797 11.1121 5.56291 11.6512C5.71017 11.6532 5.85823 11.6745 6.00422 11.7159C6.43863 11.8391 6.80566 12.1246 7.04559 12.5239C7.66418 12.5525 8.20185 12.9166 8.50015 13.4481C8.79845 12.9166 9.33609 12.5525 9.95471 12.5239C10.1947 12.1246 10.5617 11.8391 10.9961 11.7159C11.1421 11.6745 11.2901 11.6532 11.4374 11.6512C11.1523 11.1121 11.1235 10.4375 11.4093 9.85639C11.1234 9.27489 11.1524 8.59981 11.438 8.06046C10.8541 8.05269 10.2874 7.74177 9.95474 7.18882ZM15.3915 5.58359C14.728 5.28989 13.9911 5.33935 13.3697 5.71926C12.8247 6.05241 12.4433 6.59403 12.2959 7.23146L13.3218 6.60433C13.4388 6.53268 13.5925 6.5734 13.662 6.70084C13.7307 6.82695 13.6899 6.98821 13.5708 7.06102L12.5455 7.68784C12.7546 7.75228 12.9683 7.7849 13.1813 7.7849C13.5746 7.7849 13.9653 7.67574 14.3187 7.4597C14.9402 7.07976 15.3491 6.4288 15.4406 5.67362C15.4451 5.63608 15.4245 5.59818 15.3915 5.58359ZM8.50015 11.7456C7.51629 11.7456 6.71585 10.8981 6.71585 9.85639C6.71585 8.81465 7.51626 7.96716 8.50015 7.96716C9.48401 7.96716 10.2844 8.81465 10.2844 9.85639C10.2844 10.8981 9.48401 11.7456 8.50015 11.7456ZM8.50015 8.49448C7.79092 8.49448 7.2139 9.10543 7.2139 9.85635C7.2139 10.6073 7.79092 11.2182 8.50015 11.2182C9.20935 11.2182 9.78637 10.6073 9.78637 9.85635C9.78637 9.10543 9.20938 8.49448 8.50015 8.49448Z" fill="#FF8E4F"/>
</g>
<defs>
<clipPath id="clip0_711_309">
<rect width="17" height="18" fill="white" transform="matrix(1 0 0 -1 0 18.8564)"/>
</clipPath>
</defs>
</svg>
