<svg width="66" height="68" viewBox="0 0 66 68" fill="none" xmlns="http://www.w3.org/2000/svg">
<path d="M50.0514 52.8155C49.9497 52.8155 49.8481 52.8155 49.7464 52.8155C49.533 52.8155 49.3195 52.7953 49.1162 52.765C48.9028 52.7346 48.6995 52.684 48.5063 52.593C48.4352 52.5526 48.3539 52.5121 48.2827 52.4818C48.1099 52.4009 47.9269 52.32 47.7541 52.2391C47.6728 52.1986 47.5813 52.1683 47.5 52.1379C47.4085 52.0975 47.3069 52.057 47.2154 52.0065C47.1239 51.966 47.0324 51.9154 46.9409 51.875C46.8901 51.8548 46.8393 51.8244 46.7885 51.7941C46.7377 51.7739 46.6868 51.7435 46.6462 51.7233C46.4937 51.6323 46.3311 51.5413 46.1989 51.4098C46.1176 51.339 46.0464 51.2682 45.9753 51.1873C45.833 51.0356 45.711 50.8738 45.5789 50.7019C45.5179 50.6311 45.4569 50.5603 45.4061 50.4794C45.3451 50.3883 45.2841 50.2973 45.2231 50.2063C45.1723 50.1153 45.1113 50.0243 45.0605 49.9333C45.0096 49.8524 44.9588 49.7714 44.908 49.6905C44.8063 49.4984 44.7149 49.2961 44.6132 49.0939C44.5319 48.9118 44.4709 48.7197 44.4099 48.5376C44.3794 48.4365 44.3489 48.3354 44.3184 48.2342C44.2879 48.1432 44.2574 48.0522 44.2371 47.9612C44.1863 47.7589 44.1355 47.5465 44.1253 47.324C44.1151 47.1218 44.1253 46.9195 44.1355 46.7071C44.1456 46.4948 44.166 46.2925 44.1863 46.0801C44.1965 45.9891 44.2168 45.8981 44.2371 45.8071C44.2574 45.7059 44.2778 45.5947 44.2981 45.4936C44.3489 45.2913 44.4099 45.0789 44.4811 44.8868C44.5522 44.6946 44.6234 44.5126 44.6945 44.3204C44.7657 44.1182 44.8673 43.926 44.969 43.7339C45.0706 43.5417 45.1723 43.3394 45.2739 43.1473C45.2943 43.1068 45.3146 43.0765 45.3247 43.0462C45.3451 43.0057 45.3654 42.9551 45.3857 42.9147C45.3857 42.9147 45.3857 42.9248 45.3756 42.9248C45.3756 42.9248 45.3756 42.9147 45.3857 42.9046V42.8945C45.3857 42.8945 45.3857 42.8945 45.3857 42.9046C45.3959 42.8844 45.3959 42.8742 45.4061 42.854C45.4061 42.8439 45.4162 42.8439 45.4162 42.8338C45.4264 42.8237 45.4264 42.8136 45.4366 42.8034C45.528 42.6214 45.6297 42.4394 45.7415 42.2674C45.8533 42.0854 45.9651 41.9135 46.0973 41.7416C46.2294 41.5797 46.3717 41.4179 46.514 41.2763C46.6563 41.1348 46.819 41.0033 46.9918 40.8819C47.1646 40.7505 47.3577 40.6291 47.5407 40.5077C47.7135 40.3864 47.8964 40.2853 48.0794 40.1841C48.2522 40.083 48.4352 39.992 48.6181 39.9111C48.8519 39.8099 49.0959 39.6987 49.35 39.638C49.4415 39.6178 49.5431 39.6077 49.6448 39.5976C49.6854 39.5874 49.7363 39.5874 49.7769 39.5874C49.8074 39.5874 49.8379 39.5874 49.8684 39.5874C49.9192 39.5773 49.9802 39.5571 50.031 39.547C50.1327 39.5268 50.2343 39.5065 50.3462 39.4964C50.5596 39.4661 50.7629 39.4357 50.9764 39.4155C51.0679 39.4054 51.1492 39.3953 51.2407 39.3852C51.2813 39.3852 51.322 39.3751 51.3728 39.3751C51.3931 39.3751 51.4135 39.3751 51.4338 39.3751C51.4541 39.3751 51.4744 39.3751 51.4948 39.3751C51.5049 39.3751 51.5049 39.3751 51.5151 39.3751H51.5253C51.7082 39.365 51.8912 39.3548 52.064 39.3447C52.2571 39.3447 52.4401 39.3447 52.6332 39.3548C53.0195 39.3751 53.4159 39.3953 53.8022 39.4256C53.8937 39.4256 53.9852 39.4357 54.0868 39.4357C54.1884 39.4357 54.2799 39.4357 54.3816 39.4357C54.6052 39.4357 54.8187 39.456 55.0423 39.4661C55.2456 39.4863 55.4489 39.5167 55.6522 39.5672C55.8453 39.6178 56.0384 39.6785 56.2316 39.7391C56.3332 39.7796 56.445 39.8099 56.5467 39.8605C56.6483 39.901 56.7398 39.9515 56.8415 40.0021C57.0244 40.0931 57.1972 40.1942 57.37 40.3055C57.5428 40.4167 57.7055 40.5482 57.8579 40.6898C57.9291 40.7606 58.0002 40.8415 58.0714 40.9123C58.1324 40.9932 58.1934 41.064 58.2544 41.155C58.2849 41.1954 58.3052 41.2561 58.3357 41.2966C58.356 41.3471 58.3763 41.3977 58.3967 41.4483C58.4272 41.5494 58.4475 41.6607 58.4577 41.7618C58.478 41.964 58.4678 42.1663 58.4577 42.3585C58.4475 42.763 58.417 43.1776 58.3357 43.5822C58.2442 44.0271 58.1222 44.462 57.9799 44.8868C57.9799 44.8868 57.9799 44.8868 57.9799 44.8767V44.8868C57.9799 44.8969 57.9698 44.907 57.9698 44.9171V44.9272C57.9088 45.1093 57.8274 45.2913 57.7563 45.4733C57.675 45.6655 57.6038 45.8576 57.5327 46.0498C57.3904 46.424 57.2176 46.7779 57.0549 47.142C56.9736 47.324 56.8821 47.5061 56.8008 47.6982C56.7195 47.8904 56.6483 48.0825 56.5568 48.2646C56.4755 48.4466 56.3942 48.6388 56.2926 48.8107C56.1909 48.9826 56.0791 49.1545 55.9673 49.3265C55.8453 49.4984 55.7335 49.6602 55.5912 49.822C55.4489 49.9838 55.2964 50.1456 55.1439 50.3074C55.0118 50.449 54.8695 50.5906 54.7272 50.7322C54.5747 50.8738 54.4324 51.0255 54.2799 51.1671C54.1986 51.2379 54.1173 51.3087 54.0461 51.3794C53.9648 51.4502 53.8835 51.521 53.8022 51.5817C53.7107 51.6424 53.6294 51.7132 53.5277 51.7637C53.4363 51.8143 53.3448 51.8649 53.2533 51.9154C53.2431 51.9154 53.2431 51.9256 53.233 51.9256C53.2228 51.9357 53.2126 51.9357 53.1923 51.9458C53.2025 51.9458 53.2126 51.9357 53.2126 51.9357C52.8569 52.1177 52.4909 52.2795 52.1047 52.3908C51.9115 52.4413 51.7286 52.4919 51.5354 52.5324C51.3525 52.5728 51.1695 52.6234 50.9865 52.6739C50.8951 52.6942 50.7934 52.7245 50.7019 52.7447C50.5901 52.765 50.4783 52.7852 50.3563 52.8054C50.3055 52.8155 50.2445 52.8155 50.1937 52.8155C50.1632 52.8155 50.1327 52.8155 50.1022 52.8155C50.092 52.8155 50.0717 52.8155 50.0514 52.8155Z" fill="#F09785"/>
<path d="M55.459 63.6459H55.4285H55.4183C55.2963 63.6459 55.1947 63.6257 55.1032 63.6156C55.0016 63.5954 54.8999 63.565 54.7983 63.5347L54.7779 63.5246C54.7373 63.5145 54.6966 63.4943 54.656 63.4841C54.6153 63.4639 54.5645 63.4437 54.5238 63.4235L54.5136 63.4133C54.4222 63.3729 54.3307 63.3324 54.2494 63.2616C54.2087 63.2313 54.168 63.201 54.1376 63.1605C54.1172 63.1403 54.1071 63.1201 54.0969 63.0998C54.0766 63.0695 54.0664 63.0392 54.0562 63.0088C54.0461 62.9583 54.0562 62.9077 54.0766 62.8672C54.0969 62.8268 54.1172 62.7863 54.1376 62.756C54.1579 62.7155 54.1884 62.6852 54.229 62.6447C54.2595 62.6043 54.3002 62.5739 54.3307 62.5537C54.412 62.493 54.5035 62.4425 54.5848 62.402C55.0422 62.1694 55.7233 61.9773 56.1908 61.775L56.2518 61.7447C56.3433 61.7042 56.4348 61.6739 56.5263 61.6334C56.7092 61.5626 56.9125 61.4918 57.126 61.421C57.2277 61.3907 57.3395 61.3705 57.4309 61.3502C57.5326 61.33 57.6342 61.3098 57.7359 61.2997C57.8375 61.2795 57.9392 61.2693 58.051 61.2592H58.0713C58.112 61.2592 58.1526 61.2491 58.1933 61.2491C58.234 61.2491 58.2746 61.2491 58.3153 61.2491H58.3559C58.4678 61.2491 58.5796 61.2491 58.7219 61.2592C58.7219 61.2592 58.8134 61.2592 58.793 61.2592C59.3419 61.2693 60.1246 61.2693 60.6329 61.1075L60.6532 61.0974C60.6735 61.0873 60.6938 61.0772 60.7142 61.0772C60.7243 61.0772 60.7345 61.0671 60.7447 61.0671C60.765 61.0671 60.7752 61.057 60.7853 61.057C60.8565 61.0266 60.9276 60.9963 60.9988 60.9659C61.0394 60.9457 61.0801 60.9154 61.1106 60.8952C61.1309 60.885 61.1513 60.8648 61.1716 60.8547C61.8221 60.4401 61.9949 59.9041 62.9403 59.722C62.9809 59.7119 63.0317 59.7119 63.0724 59.7119C63.1232 59.7119 63.1639 59.7119 63.2147 59.722C63.296 59.7321 63.3875 59.7625 63.479 59.813C63.5502 59.8535 63.6111 59.9041 63.6721 59.9546C63.7636 60.0456 63.8348 60.167 63.8653 60.2884C63.8958 60.3794 63.9059 60.4906 63.9059 60.6221C63.9059 60.7333 63.8958 60.8446 63.8856 60.9356C63.8653 61.0469 63.8449 61.1581 63.8246 61.239C63.8043 61.3199 63.7738 61.421 63.7331 61.5222C63.7026 61.6031 63.6518 61.7143 63.601 61.8155C63.5502 61.9065 63.4993 61.9874 63.4282 62.0683C63.3774 62.129 63.3265 62.1795 63.2554 62.2301C63.1944 62.2807 63.1334 62.3211 63.0724 62.3515C62.9199 62.4425 62.798 62.5133 62.6658 62.5841L62.676 62.574C62.5133 62.6549 62.3304 62.756 62.1372 62.847C61.9441 62.938 61.7408 63.0088 61.5477 63.0796C61.4359 63.1201 61.3342 63.1605 61.2326 63.1909C61.1309 63.2212 61.0293 63.2515 60.948 63.2718C60.7548 63.3223 60.5414 63.3527 60.3279 63.3527C59.5554 63.3527 58.8032 63.292 58.0205 63.3527C57.9697 63.3527 57.9087 63.3628 57.8477 63.3628C57.7867 63.3628 57.7257 63.3729 57.6749 63.3729C57.5326 63.3931 57.3903 63.4133 57.248 63.4336C57.187 63.4437 57.1362 63.4538 57.0752 63.4538C56.882 63.4841 56.6889 63.5145 56.4551 63.5549C56.3636 63.5752 56.2518 63.5853 56.1299 63.5954H56.1197H56.1095H56.0994H56.0892H56.079H56.0689H56.0587C55.8656 63.6156 55.7029 63.6156 55.5606 63.6156C55.5606 63.6561 55.5098 63.6561 55.459 63.6459Z" fill="#F48B76"/>
<path d="M42.0211 53.3615C41.9093 53.3514 41.7975 53.3514 41.6857 53.3312C41.5739 53.3211 41.4621 53.3008 41.3502 53.2705C41.2384 53.2503 41.1368 53.2199 41.0351 53.1896C40.9843 53.1694 40.9233 53.1593 40.8725 53.1289C40.8217 53.1087 40.7708 53.0885 40.7099 53.0581C40.6082 53.0076 40.5167 52.957 40.4252 52.8862C40.3338 52.8255 40.2524 52.7648 40.1711 52.694C39.9983 52.5525 39.8459 52.3907 39.7137 52.2086C39.5816 52.0266 39.4698 51.8344 39.3783 51.6322C39.3376 51.5411 39.297 51.44 39.2563 51.3389C39.2156 51.2377 39.1851 51.1366 39.1546 51.0355C39.1242 50.9343 39.1038 50.8231 39.0733 50.722C39.053 50.6208 39.0327 50.5096 39.0225 50.3983C38.992 50.1759 38.9717 49.9635 38.9717 49.741C38.9717 49.6196 38.9818 49.5084 38.992 49.387C39.0022 49.2758 39.0123 49.1747 39.0327 49.0634C39.053 48.8814 39.0937 48.6993 39.1242 48.5274V48.5375C39.1648 48.3251 39.236 48.1027 39.3071 47.9004C39.3376 47.7993 39.3783 47.6981 39.4189 47.597C39.4596 47.4959 39.5104 47.3846 39.5612 47.2835C39.6629 47.0913 39.7747 46.8992 39.9068 46.7273C39.978 46.6362 40.039 46.5553 40.1203 46.4744C40.1915 46.3935 40.2728 46.3126 40.3439 46.2317C40.4049 46.171 40.4557 46.1205 40.5167 46.0699C40.6794 45.9283 40.8522 45.7766 41.025 45.6553C41.1165 45.5845 41.2181 45.5238 41.3096 45.453C41.4011 45.3923 41.4926 45.3417 41.5942 45.2811C41.6145 45.271 41.6349 45.2608 41.6552 45.2507C41.6755 45.2406 41.706 45.2204 41.7365 45.2103C41.7873 45.19 41.8382 45.1698 41.889 45.1395C41.95 45.1193 42.0008 45.099 42.0618 45.0788C42.1126 45.0586 42.1634 45.0485 42.2142 45.0383C42.2752 45.0181 42.3464 45.008 42.4074 44.9979C42.4887 44.9878 42.5599 44.9878 42.6412 44.9878C42.7123 44.9878 42.7835 44.9979 42.8445 45.008C42.9055 45.0181 42.9664 45.0282 43.0274 45.0383C43.0478 45.0383 43.0783 45.0485 43.0986 45.0586C43.1291 45.0687 43.1494 45.0687 43.1799 45.0788C43.2206 45.0889 43.2714 45.1091 43.3222 45.1193C43.3527 45.1294 43.373 45.1395 43.4035 45.1496C43.4239 45.1597 43.4442 45.1698 43.4747 45.1799C43.5662 45.2204 43.6475 45.271 43.7288 45.3215C43.7695 45.3519 43.8101 45.3923 43.8508 45.4227C43.8711 45.3114 43.8914 45.2103 43.9219 45.099C43.9829 44.8462 44.0642 44.5934 44.1557 44.3405C44.237 44.1079 44.3184 43.8753 44.42 43.6427C44.4607 43.5517 44.5013 43.4607 44.542 43.3798C44.542 43.3798 44.542 43.3899 44.5318 43.3899C44.5318 43.3798 44.542 43.3697 44.542 43.3596C44.542 43.3494 44.5522 43.3393 44.5522 43.3292C44.6741 43.0966 44.8266 42.8842 44.9994 42.6921C45.0909 42.6011 45.1824 42.51 45.284 42.419C45.3857 42.3381 45.4873 42.2673 45.5991 42.2066C45.7109 42.146 45.8329 42.0954 45.9549 42.055C46.0159 42.0347 46.0769 42.0145 46.148 41.9943C46.1785 41.9842 46.209 41.974 46.2497 41.974C46.2802 41.9639 46.3107 41.9639 46.3412 41.9538C46.4733 41.9336 46.6156 41.9336 46.7477 41.9336C46.8799 41.9336 47.0019 41.9538 47.1238 41.974C47.378 42.0145 47.6219 42.0853 47.8659 42.1662C48.1098 42.2471 48.3538 42.3179 48.5977 42.4089C48.6587 42.4291 48.7197 42.4595 48.7705 42.4797C48.8315 42.4999 48.8824 42.5303 48.9332 42.5505C49.0552 42.6011 49.167 42.6617 49.2686 42.7427C49.3194 42.7831 49.3703 42.8236 49.4109 42.8539C49.4516 42.8943 49.4922 42.9348 49.5329 42.9854C49.5736 43.0359 49.6041 43.0764 49.6345 43.127C49.665 43.1775 49.6854 43.2281 49.7159 43.2786C49.7464 43.3393 49.7667 43.4 49.787 43.4607C49.787 43.4708 49.7972 43.4809 49.7972 43.491C49.7972 43.5011 49.7972 43.5011 49.7972 43.5113C49.7972 43.5113 49.7972 43.5113 49.7972 43.5214C49.7972 43.5214 49.7972 43.5214 49.7972 43.5113C49.7972 43.5416 49.7972 43.5719 49.787 43.5922V43.6023C49.787 43.6023 49.787 43.6124 49.7769 43.6124C49.7667 43.6326 49.7565 43.6427 49.7464 43.663C49.7362 43.6832 49.7159 43.7034 49.7057 43.7236C49.6854 43.7439 49.665 43.7641 49.6447 43.7843C49.6345 43.7944 49.6346 43.7944 49.6244 43.8045C49.5837 43.8349 49.5431 43.8652 49.4922 43.8956C49.4719 43.9158 49.4414 43.936 49.4211 43.9461C49.4109 43.9562 49.4008 43.9663 49.3906 43.9663C49.3804 43.9663 49.3703 43.9765 49.3601 43.9866C49.3398 43.9967 49.3296 44.0068 49.3194 44.0169C49.2788 44.0574 49.2381 44.0978 49.1975 44.1484C49.1466 44.2091 49.106 44.2596 49.0653 44.3203C49.0653 44.3203 49.0653 44.3304 49.0552 44.3304C48.9942 44.4214 48.9433 44.5125 48.9027 44.6035C48.8824 44.654 48.8519 44.7046 48.8417 44.7552C48.8214 44.8057 48.8112 44.8664 48.7909 44.917C48.7705 44.9979 48.7604 45.0687 48.7502 45.1496C48.7502 45.1799 48.7502 45.2103 48.7502 45.2406C48.7502 45.271 48.7604 45.3013 48.7604 45.3316C48.7705 45.362 48.7807 45.3923 48.7807 45.4227C48.7909 45.4429 48.801 45.4631 48.801 45.4833C48.8112 45.5036 48.8214 45.5238 48.8315 45.5339C48.8519 45.5642 48.8722 45.5946 48.8925 45.6148C48.9128 45.635 48.9332 45.6553 48.9433 45.6654C48.9637 45.6856 48.984 45.6957 49.0145 45.7159C49.0552 45.7362 49.0958 45.7665 49.1365 45.7867C49.1771 45.807 49.228 45.8272 49.2686 45.8474C49.3194 45.8676 49.3601 45.8777 49.4109 45.8879C49.4617 45.898 49.5227 45.9081 49.5736 45.9081C49.6142 45.9081 49.6549 45.9081 49.7057 45.9081C49.7464 45.9081 49.7972 45.9081 49.8378 45.9081C49.9497 45.898 50.0716 45.8879 50.1834 45.8575C50.2343 45.8474 50.2749 45.8373 50.3258 45.8272C50.3766 45.8171 50.4274 45.7968 50.4782 45.7766C50.5697 45.7463 50.6612 45.7058 50.7527 45.6654C50.8645 45.6148 50.9661 45.5541 51.0678 45.4833C51.1796 45.4125 51.2812 45.3519 51.3931 45.2811C51.5455 45.1698 51.698 45.0485 51.8505 44.9271C51.9013 44.8765 51.9623 44.826 52.0131 44.7855C52.0639 44.735 52.1249 44.6945 52.1757 44.6439L52.1656 44.654C52.2266 44.6035 52.2876 44.5529 52.3485 44.5023C52.3587 44.5023 52.3587 44.4922 52.3689 44.4821L52.3587 44.4922C52.3994 44.4518 52.44 44.4214 52.4807 44.3911C52.5213 44.3608 52.562 44.3304 52.6027 44.3102C52.6433 44.2799 52.684 44.2495 52.7246 44.2192C52.7653 44.1888 52.7958 44.1585 52.8365 44.1383C52.8466 44.1282 52.867 44.118 52.8771 44.1079C52.9178 44.0776 52.9584 44.0675 53.0093 44.0675C53.0499 44.0776 53.0804 44.0978 53.1211 44.118C53.1516 44.1383 53.1719 44.1585 53.2024 44.1787C53.304 44.2495 53.4057 44.3203 53.5073 44.3911C53.609 44.4619 53.7106 44.5327 53.8021 44.6035C54.0156 44.7653 54.2087 44.9473 54.4018 45.1193C54.595 45.2912 54.7779 45.4732 54.9507 45.6553C55.0422 45.7564 55.1134 45.8575 55.1947 45.9586C55.276 46.0598 55.3472 46.171 55.4183 46.2722C55.4895 46.3733 55.5505 46.4744 55.6114 46.5857C55.6724 46.6969 55.7436 46.8082 55.8046 46.9194C55.8656 47.0306 55.9164 47.152 55.9571 47.2734C56.0079 47.3947 56.0384 47.5262 56.0587 47.6476C56.0689 47.7082 56.079 47.779 56.079 47.8397C56.079 47.9105 56.079 47.9712 56.079 48.042C56.079 48.1734 56.0587 48.2948 56.0282 48.4263C56.0079 48.5375 55.9774 48.6589 55.9469 48.7701C55.9164 48.8915 55.8757 49.0027 55.8351 49.1241C55.7944 49.2353 55.7436 49.3567 55.7029 49.4679C55.6521 49.5792 55.6114 49.6904 55.5606 49.7916C55.5606 49.7916 55.5606 49.7814 55.5708 49.7814C55.4793 49.9635 55.3878 50.1354 55.276 50.3073C55.2658 50.3174 55.2658 50.3276 55.2557 50.3377C55.2455 50.3478 55.2354 50.3579 55.2354 50.368C55.2354 50.368 55.2353 50.3579 55.2455 50.3579C55.093 50.5804 54.9202 50.7928 54.7271 50.9849C54.5441 51.167 54.351 51.3389 54.1477 51.5007C54.0156 51.6018 53.8834 51.6928 53.7411 51.7839C53.5988 51.8749 53.4565 51.9659 53.304 52.0367C53.304 52.0367 53.3142 52.0367 53.3142 52.0266C53.304 52.0266 53.2939 52.0367 53.2939 52.0367C53.2735 52.0569 53.243 52.0569 53.2227 52.0771C53.2126 52.0873 53.1922 52.0873 53.1821 52.0974C53.1516 52.1075 53.1211 52.1277 53.0906 52.1378C53.0296 52.1682 52.9788 52.1884 52.9178 52.2187C52.684 52.3199 52.4299 52.4109 52.1859 52.4918C51.942 52.5727 51.6878 52.6334 51.4337 52.694C51.3016 52.7244 51.1593 52.7547 51.0271 52.775C50.9051 52.7952 50.7832 52.8154 50.6612 52.8255C50.4172 52.8559 50.1834 52.866 49.9395 52.866C49.9192 52.866 49.8988 52.866 49.8887 52.866C49.6244 52.866 49.3703 52.8356 49.106 52.7952C48.923 52.7648 48.74 52.7244 48.5571 52.6839C48.3741 52.6435 48.1911 52.5828 48.0082 52.5221C48.0082 52.5221 48.0183 52.5221 48.0285 52.5322C47.9065 52.4918 47.7846 52.4412 47.6727 52.3906C47.5609 52.3401 47.4491 52.2895 47.3373 52.239C47.2153 52.1783 47.1035 52.1277 46.9815 52.0569C46.8697 51.9962 46.7477 51.9254 46.6359 51.8648C46.5241 51.8041 46.4123 51.7333 46.3107 51.6524C46.209 51.5816 46.1074 51.5007 46.0159 51.4198C45.8837 51.2984 45.7516 51.167 45.6296 51.0355C45.589 51.1265 45.5483 51.2175 45.4975 51.3085C45.4771 51.349 45.4467 51.3996 45.4263 51.44C45.4162 51.4602 45.406 51.4805 45.3857 51.5007C45.3755 51.5209 45.3552 51.5411 45.345 51.5614C45.3145 51.6018 45.284 51.6423 45.2637 51.6827C45.2332 51.7232 45.2027 51.7636 45.1722 51.8041C45.1519 51.8243 45.1315 51.8547 45.1112 51.8749C45.101 51.8951 45.0807 51.9052 45.0706 51.9254C45.0706 51.9356 45.0604 51.9356 45.0604 51.9457C45.0401 51.9659 45.0299 51.9861 45.0096 51.9962C44.9994 52.0063 44.9994 52.0165 44.9892 52.0165C44.9892 52.0266 44.9791 52.0266 44.9791 52.0367C44.9791 52.0367 44.9791 52.0367 44.9892 52.0266C44.9587 52.067 44.9181 52.0974 44.8876 52.1277C44.8469 52.1682 44.8063 52.2086 44.7656 52.239C44.6741 52.3199 44.5826 52.3906 44.4912 52.4716C44.4098 52.5322 44.3285 52.5929 44.237 52.6536C44.1456 52.7143 44.0541 52.7648 43.9626 52.8255C43.7695 52.9368 43.5662 53.0379 43.3629 53.1188C43.1596 53.1997 42.9461 53.2604 42.7327 53.2907C42.57 53.311 42.4074 53.3312 42.2447 53.3312C42.1329 53.3615 42.0719 53.3615 42.0211 53.3615Z" fill="#E8492A"/>
<path d="M45.6297 51.0859C45.65 51.1263 45.6805 51.1668 45.7009 51.2072C45.6602 51.1668 45.6094 51.1162 45.5687 51.0758C45.5281 51.1668 45.4874 51.2578 45.4366 51.3488C45.4163 51.3893 45.3858 51.4398 45.3654 51.4803C45.3553 51.5005 45.3451 51.5207 45.3248 51.541C45.3146 51.5612 45.2943 51.5814 45.2841 51.6016C45.2739 51.6219 45.2536 51.6421 45.2435 51.6623C45.213 51.6219 45.1926 51.5713 45.1621 51.5308C45.1113 51.4601 45.0707 51.3893 45.0198 51.3084C44.9588 51.2072 44.8979 51.1061 44.8369 51.005C44.7759 50.8937 44.7149 50.7825 44.6539 50.6611C44.5421 50.4487 44.4303 50.2262 44.3286 50.0038C44.2778 49.8824 44.227 49.761 44.1762 49.6397C44.1355 49.5284 44.0948 49.4172 44.0542 49.3059C43.9729 49.0632 43.8814 48.8205 43.8001 48.5778C43.7289 48.3553 43.6476 48.1328 43.5866 47.9204C43.5459 47.7991 43.5154 47.6777 43.4849 47.5665C43.4544 47.4552 43.424 47.3339 43.4036 47.2125C43.3731 47.0911 43.3528 46.9597 43.3325 46.8383C43.3121 46.717 43.302 46.5956 43.2918 46.4742C43.2816 46.3428 43.2715 46.2214 43.2715 46.0899C43.2715 45.9585 43.2715 45.8371 43.2816 45.7056C43.2918 45.5236 43.302 45.3416 43.3223 45.1494C43.3426 45.1595 43.3528 45.1595 43.3731 45.1696C43.3935 45.1798 43.4138 45.1899 43.4341 45.2C43.5256 45.2404 43.6069 45.291 43.6882 45.3416C43.7289 45.3719 43.7696 45.4022 43.8001 45.4427C43.8001 45.4831 43.7899 45.5337 43.7899 45.5843C43.7797 45.6955 43.7696 45.8169 43.7797 45.9281C43.7899 46.0192 43.8001 46.1001 43.8102 46.181C43.8102 46.2214 43.8204 46.2518 43.8305 46.2922C43.8305 46.3225 43.8407 46.3529 43.8407 46.3832C43.8407 46.4035 43.8509 46.4338 43.8509 46.454C43.8509 46.4742 43.8509 46.4945 43.861 46.5147C43.861 46.5349 43.8712 46.5552 43.8712 46.5653C43.8814 46.6057 43.8814 46.6361 43.8915 46.6765C43.9017 46.7271 43.9119 46.7675 43.9119 46.8181C43.9424 47.0001 43.983 47.1721 44.0135 47.3541C44.0542 47.526 44.105 47.6979 44.1558 47.8699C44.227 48.1025 44.3083 48.325 44.3998 48.5475C44.4913 48.7699 44.5726 48.9924 44.6641 49.2149C44.7352 49.3767 44.8064 49.5487 44.8877 49.7105C44.9893 49.933 45.091 50.1555 45.213 50.3779C45.3248 50.5903 45.4467 50.7926 45.5687 51.005C45.5789 51.0252 45.5891 51.0454 45.6094 51.0656C45.6297 51.0758 45.6297 51.0758 45.6297 51.0859Z" fill="#704514"/>
<path d="M57.4413 67.0345C57.0753 67.0142 56.8822 67.0041 56.5264 66.9839C56.3943 66.9738 56.252 66.9637 56.1199 66.9536C55.9979 66.9435 55.8759 66.9333 55.7539 66.9232C55.6218 66.9131 55.4896 66.8929 55.3677 66.8828C55.1135 66.8524 54.8696 66.8019 54.6256 66.7412C54.5037 66.7108 54.3918 66.6704 54.2699 66.6401C54.1581 66.5996 54.0361 66.5591 53.9548 66.4782C53.9039 66.4378 53.8531 66.3771 53.8429 66.3063C53.8328 66.2557 53.8226 66.1951 53.8328 66.1344C53.8633 66.0029 53.9446 65.9018 54.0361 65.8108C54.1276 65.7299 54.2292 65.6793 54.3309 65.6186C54.4325 65.5579 54.5342 65.5074 54.6358 65.4467C54.7476 65.386 54.8696 65.3354 54.9814 65.2849C55.1034 65.2343 55.2152 65.1939 55.3372 65.1534C55.449 65.113 55.571 65.0826 55.6929 65.0523C55.8251 65.0219 55.9471 64.9916 56.0792 64.9613C56.3333 64.9107 56.5874 64.8702 56.8416 64.8298C57.0957 64.7893 57.3396 64.759 57.5938 64.7388C57.858 64.7084 58.1122 64.6882 58.3764 64.6579C58.6306 64.6376 58.8847 64.6174 59.149 64.5871C59.2811 64.577 59.4031 64.5567 59.5352 64.5466C59.6572 64.5264 59.7894 64.5163 59.9113 64.5062C60.0536 64.4859 60.1959 64.4657 60.3382 64.4354C60.4806 64.4151 60.6127 64.3848 60.755 64.3646C60.9481 64.3241 61.1413 64.2837 61.3344 64.2331C61.5174 64.1927 61.7003 64.132 61.8731 64.0713C62.1882 63.9601 62.5338 63.778 62.7168 63.5151C62.7371 63.4847 62.7473 63.4645 62.7676 63.4342C62.849 63.2521 62.7981 63.1308 62.7575 62.9285C62.7168 62.7364 62.666 62.5442 62.6253 62.3521C62.5745 62.1599 62.5237 61.9678 62.4525 61.7756V61.7857C62.4424 61.7655 62.4424 61.7453 62.4322 61.725C62.4017 61.634 62.3712 61.543 62.3305 61.452C62.2899 61.361 62.2492 61.2598 62.2086 61.1688C62.1171 60.9665 62.0358 60.7744 61.9443 60.5721C61.8833 60.4609 61.8223 60.3395 61.7613 60.2283C61.6902 60.1069 61.619 59.9856 61.558 59.8642C61.497 59.7428 61.4259 59.6316 61.3649 59.5204C61.2937 59.399 61.2226 59.2776 61.1413 59.1563C60.999 58.9136 60.8567 58.681 60.7042 58.4484C60.5517 58.2158 60.3992 57.973 60.2468 57.7404C59.9317 57.255 59.5962 56.7898 59.2709 56.3044C58.9355 55.8088 58.6001 55.3031 58.2951 54.7874C58.1528 54.5447 58.0207 54.3019 57.8885 54.0592C57.7564 53.8064 57.6547 53.5536 57.5531 53.2906C57.4413 53.0277 57.3396 52.7647 57.2278 52.5119C57.116 52.2388 56.994 51.9759 56.8721 51.7028C56.7501 51.4197 56.6281 51.1365 56.5061 50.8432C56.3943 50.5702 56.2723 50.3072 56.1504 50.0443C56.0284 49.7712 55.8962 49.5083 55.7641 49.2352C55.6319 48.9521 55.4998 48.6689 55.3677 48.3857C55.3372 48.325 55.3168 48.2745 55.2863 48.2138V48.2037C55.1542 47.9306 55.0119 47.6576 54.8594 47.3845C54.7781 47.2429 54.6866 47.0912 54.6053 46.9597C54.524 46.8283 54.4427 46.7069 54.3613 46.5754L54.3715 46.5856C54.2597 46.4136 54.1377 46.2417 54.0056 46.0799C53.8836 45.9181 53.7515 45.7563 53.6193 45.6046C53.4364 45.3922 53.2432 45.1899 53.0399 44.9877C52.9484 44.8967 52.8468 44.8056 52.7553 44.7146C52.6638 44.6236 52.5622 44.5326 52.4707 44.4416C52.3589 44.3404 52.2471 44.2292 52.1353 44.1281C52.0336 44.037 51.9421 43.946 51.8405 43.855C51.627 43.6628 51.4237 43.4606 51.2204 43.2583C50.8037 42.8336 50.3971 42.3987 50.021 41.9335C49.8279 41.7009 49.6347 41.4582 49.4619 41.2154C49.279 40.9727 49.1062 40.7199 48.9232 40.4671C48.7504 40.2244 48.5877 39.9715 48.4149 39.7187C48.2523 39.4659 48.0897 39.1928 47.9372 38.9299C47.7949 38.677 47.6526 38.4141 47.5408 38.1511C47.4798 38.0096 47.429 37.868 47.3781 37.7264C47.3273 37.5949 47.2867 37.4533 47.2562 37.3117C47.2053 37.1095 47.1545 36.9072 47.1139 36.705C47.1139 36.6948 47.1139 36.6746 47.1037 36.6645V36.6544C47.1037 36.6544 47.1037 36.6544 47.1037 36.6443C47.0529 36.3914 47.0122 36.1386 46.9715 35.8858C46.9614 35.8049 46.9512 35.724 46.941 35.6532C46.9207 35.6228 46.9207 35.5824 46.9106 35.5419C46.9004 35.5015 46.9004 35.4509 46.9004 35.4105C46.9004 35.3194 46.9004 35.2385 46.9106 35.1475C46.9207 35.0565 46.9309 34.9756 46.941 34.8846C46.9512 34.8441 46.9512 34.7936 46.9614 34.7531C46.9715 34.7127 46.9715 34.6722 46.9817 34.6317C47.002 34.5407 47.0122 34.4497 47.0427 34.3587C47.063 34.2677 47.0834 34.1868 47.1139 34.0958C47.1342 34.0148 47.1647 33.9238 47.1952 33.8429C47.2155 33.8025 47.2257 33.762 47.246 33.7216C47.2663 33.6811 47.2867 33.6407 47.307 33.6002C47.3985 33.4485 47.5103 33.2968 47.6221 33.1653C47.6831 33.0945 47.7339 33.0237 47.7949 32.9631C47.8559 32.8923 47.9169 32.8316 47.988 32.7709C48.1202 32.6496 48.2625 32.5282 48.4149 32.4271C48.5573 32.3259 48.7199 32.2551 48.8825 32.1945C48.9638 32.1641 49.035 32.154 49.1163 32.1439C49.1976 32.1338 49.279 32.1338 49.3603 32.1338C49.3603 32.1338 49.3603 32.1338 49.3501 32.1338C49.3603 32.1338 49.3704 32.1338 49.3908 32.1338C49.3908 32.1338 49.3806 32.1338 49.3704 32.1338C49.4619 32.1338 49.5534 32.154 49.6449 32.1641C49.7364 32.1844 49.8279 32.2046 49.9193 32.245C50.0007 32.2754 50.082 32.3057 50.1531 32.3361C50.2344 32.3765 50.3056 32.417 50.3869 32.4574C50.4682 32.4979 50.5394 32.5383 50.6105 32.5889C50.6817 32.6394 50.7528 32.6799 50.824 32.7204C50.824 32.7204 50.824 32.7204 50.8138 32.7204C50.8545 32.7406 50.885 32.7709 50.9256 32.7911C50.9561 32.8114 50.9866 32.8417 51.0171 32.8619C51.0781 32.9125 51.1391 32.9631 51.1899 33.0238C51.2509 33.0844 51.3017 33.1451 51.3526 33.2159C51.4034 33.2766 51.4441 33.3271 51.4847 33.3878C51.5559 33.4788 51.6169 33.58 51.6778 33.6811C51.688 33.7013 51.6982 33.7114 51.7083 33.7317C51.7083 33.7317 51.7083 33.7418 51.7185 33.7418C51.81 33.853 51.8811 33.9744 51.9726 34.0856C52.0641 34.207 52.1454 34.3385 52.2369 34.4598C52.3284 34.5913 52.4097 34.7329 52.5012 34.8644C52.6638 35.1172 52.8163 35.3902 52.9688 35.6431C53.1314 35.9161 53.2839 36.1791 53.4465 36.4521C53.6092 36.7252 53.7616 36.9982 53.9243 37.2612C54.0869 37.5241 54.2394 37.7871 54.402 38.05C54.4833 38.1815 54.5646 38.3231 54.646 38.4545C54.7273 38.5759 54.7984 38.6973 54.8798 38.8186C54.9611 38.9501 55.0424 39.0917 55.1339 39.2333C55.2152 39.3647 55.3067 39.4962 55.388 39.6378C55.5405 39.8805 55.6929 40.1131 55.8454 40.3558C55.9877 40.5884 56.1199 40.8109 56.2622 41.0435C56.3333 41.1649 56.4045 41.2862 56.4858 41.4076C56.5569 41.529 56.6383 41.6402 56.7094 41.7616C56.7907 41.8829 56.8721 42.0144 56.9534 42.1358C57.0347 42.2571 57.116 42.3684 57.1973 42.4897C57.1973 42.4897 57.1973 42.4796 57.1872 42.4796C57.36 42.7324 57.5429 42.9751 57.7259 43.2179C57.919 43.4707 58.1122 43.7134 58.3053 43.9561C58.4984 44.1887 58.6814 44.4213 58.8745 44.6641C59.0575 44.8967 59.2404 45.1394 59.4234 45.3821C59.7792 45.8675 60.1248 46.353 60.4501 46.8687C60.7753 47.3845 61.0396 47.9306 61.2937 48.4868C61.3649 48.6284 61.4259 48.77 61.4869 48.9116C61.5479 49.0431 61.6088 49.1847 61.6597 49.3161C61.7816 49.5892 61.8935 49.8521 62.0053 50.1252C62.2492 50.6814 62.4932 51.2477 62.7168 51.8141C62.8286 52.0973 62.9404 52.3905 63.0421 52.6737C63.1437 52.967 63.2454 53.2603 63.3369 53.5536C63.4283 53.857 63.53 54.1604 63.6113 54.4638C63.6926 54.757 63.7739 55.0503 63.8654 55.3436C63.9467 55.6369 64.0382 55.9302 64.1297 56.2235C64.2212 56.5066 64.3025 56.7999 64.394 57.0831C64.4855 57.3865 64.577 57.7 64.6481 58.0034C64.7193 58.2967 64.7904 58.5798 64.8616 58.8731C64.9022 59.045 64.9429 59.217 64.9836 59.3889C65.0344 59.581 65.075 59.7732 65.1157 59.9653C65.1462 60.1069 65.1767 60.2485 65.2072 60.3901C65.2072 60.3901 65.2072 60.38 65.2072 60.3699C65.258 60.6126 65.319 60.8553 65.38 61.0879C65.4105 61.1991 65.4308 61.3205 65.4613 61.4318C65.4918 61.5531 65.5223 61.6846 65.5528 61.8059C65.5833 61.9172 65.6036 62.0385 65.6341 62.1498C65.6646 62.261 65.6849 62.3723 65.7053 62.4734C65.7256 62.5644 65.7459 62.6656 65.7561 62.7566C65.8069 63.1915 65.9289 63.5555 65.9594 64.0106C65.9695 64.132 65.9695 64.2634 65.9492 64.3848C65.9187 64.6275 65.8476 64.8601 65.7561 65.0826C65.7154 65.1939 65.6544 65.3051 65.5934 65.4062C65.5223 65.5074 65.4613 65.6186 65.3902 65.7197C65.3597 65.7703 65.319 65.8108 65.2885 65.8613C65.258 65.9119 65.2173 65.9625 65.1869 66.0029C65.1462 66.0535 65.1055 66.0939 65.0649 66.1344C65.0242 66.1748 64.9836 66.2052 64.9429 66.2355C64.8514 66.3063 64.7599 66.3771 64.6583 66.4277C64.5566 66.4782 64.4448 66.5187 64.333 66.549C64.0992 66.6198 63.8451 66.6502 63.6011 66.6805C63.4792 66.7007 63.3572 66.7007 63.2352 66.7108C63.1132 66.7108 62.9913 66.721 62.8693 66.721C62.7473 66.721 62.6253 66.721 62.5034 66.721C62.3814 66.721 62.2696 66.721 62.1476 66.7311C62.0154 66.7311 61.8935 66.7412 61.7613 66.7412C61.6393 66.7412 61.5072 66.7513 61.3852 66.7513C61.2429 66.7513 61.1006 66.7614 60.9481 66.7614C60.8058 66.7614 60.6534 66.7715 60.511 66.7816C60.3891 66.7918 60.2671 66.8019 60.1451 66.812C60.013 66.8221 59.891 66.8423 59.7589 66.8524C59.4946 66.8727 59.2405 66.903 58.9762 66.9232C58.844 66.9333 58.7017 66.9435 58.5696 66.9536C58.4374 66.9637 58.3155 66.9637 58.1833 66.9738C58.1325 66.9738 58.0918 66.9738 58.0512 66.9738C57.8682 67.0547 57.6547 67.0446 57.4413 67.0345Z" fill="#F09785"/>
<path d="M39.0835 29.838C38.992 29.7673 38.9107 29.6965 38.8192 29.6257C38.7379 29.5549 38.6566 29.4942 38.5651 29.4234C38.5143 29.383 38.4635 29.3425 38.4126 29.302C38.3618 29.2616 38.3008 29.2313 38.25 29.1908C38.128 29.1099 38.006 29.0391 37.8942 28.9582C37.8027 28.8975 37.7113 28.847 37.6096 28.8065C37.5791 28.7964 37.5588 28.7863 37.5283 28.7762C37.4876 28.766 37.447 28.7559 37.4063 28.7458C37.3758 28.7458 37.3555 28.7357 37.325 28.7357C37.3453 28.6649 37.3758 28.584 37.3961 28.5132C37.4368 28.3615 37.4775 28.2199 37.5181 28.0682C37.5486 27.9267 37.5893 27.7851 37.6096 27.6334C37.6401 27.4817 37.6706 27.3199 37.6909 27.1682C37.7316 26.8547 37.7722 26.5513 37.7926 26.2479C37.8231 25.9344 37.8434 25.631 37.8434 25.3174C37.8434 25.0039 37.8332 24.6904 37.8129 24.3769C37.7926 24.0836 37.7519 23.8005 37.7113 23.5072C37.6706 23.1937 37.6299 22.8802 37.5791 22.5667C37.5283 22.2734 37.4673 21.9902 37.4063 21.707C37.3657 21.5553 37.3352 21.4137 37.2945 21.2722C37.2538 21.1205 37.2132 20.9688 37.1725 20.8272C37.1319 20.6755 37.0912 20.5339 37.0404 20.3923C36.9896 20.2507 36.9387 20.099 36.8879 19.9574C36.8066 19.7451 36.7253 19.5327 36.6338 19.3203C36.6744 19.3405 36.7253 19.3608 36.7659 19.3709C36.8879 19.4214 37.0201 19.4619 37.1522 19.5024C37.4876 19.6035 37.8332 19.654 38.1788 19.7046H38.189C38.3516 19.735 38.5244 19.7552 38.6871 19.7754C38.87 19.8057 39.053 19.826 39.236 19.8361C39.4189 19.8563 39.6121 19.8664 39.795 19.8867C39.978 19.9069 40.161 19.917 40.3541 19.9271C40.72 19.9574 41.0961 19.9878 41.4621 20.0282C41.6552 20.0485 41.8382 20.0586 42.0313 20.0788C42.2143 20.099 42.3972 20.1193 42.57 20.1294C42.753 20.1496 42.936 20.1698 43.1189 20.19C43.3121 20.2103 43.5052 20.2406 43.6882 20.2811C43.8711 20.3114 44.0541 20.3519 44.2269 20.3923C44.4099 20.4429 44.5928 20.4833 44.7758 20.544C44.8571 20.5744 44.9384 20.5946 45.0299 20.6249C45.1214 20.6654 45.223 20.6957 45.3145 20.7362C45.4873 20.807 45.65 20.8879 45.8228 20.9587C46.1074 21.0901 46.3818 21.2216 46.6563 21.3632C46.7071 21.4036 46.7681 21.434 46.8291 21.4744C46.8901 21.5048 46.9511 21.5452 47.0019 21.5857C47.1137 21.6565 47.2153 21.7374 47.3272 21.8082C47.3576 21.8284 47.3881 21.8486 47.4186 21.8688C47.4288 21.8688 47.439 21.879 47.439 21.8891C47.4288 21.8992 47.4186 21.8992 47.4085 21.9093C47.2052 22.0408 47.012 22.1722 46.8189 22.3138C46.6156 22.4655 46.4123 22.6071 46.209 22.7588C46.1074 22.8296 46.0159 22.9105 45.9142 22.9813C45.8126 23.0622 45.711 23.1431 45.6093 23.2139C45.4162 23.3656 45.2332 23.5274 45.0401 23.6791C44.8571 23.8308 44.6741 23.9926 44.4912 24.1443C44.3895 24.2353 44.2879 24.3162 44.1964 24.4073C44.1049 24.4983 44.0033 24.5792 43.9118 24.6702C43.739 24.832 43.5763 25.0039 43.4137 25.1657C43.0681 25.5197 42.7327 25.8939 42.4074 26.2681L42.4176 26.258C42.3871 26.2883 42.3667 26.3187 42.3362 26.3591C42.2854 26.4198 42.2346 26.4805 42.1838 26.5411C41.8687 26.9153 41.5535 27.2996 41.2486 27.6839C40.9437 28.0682 40.6489 28.4525 40.3643 28.847C40.0695 29.2515 39.7849 29.6661 39.5104 30.0808C39.5003 30.101 39.4799 30.1212 39.4698 30.1516C39.3376 30.0504 39.2156 29.9392 39.0835 29.838Z" fill="#F09785"/>
<path d="M49.4515 40.8819C49.3498 40.8717 49.2482 40.8616 49.1567 40.8414C49.0551 40.8212 48.9636 40.8111 48.8721 40.7908C48.7806 40.7706 48.679 40.7504 48.5875 40.72C48.5875 40.7403 48.5773 40.7504 48.5672 40.7605C48.5468 40.7908 48.5062 40.8111 48.4655 40.8212C48.4655 40.8212 48.4553 40.8313 48.4452 40.8313C48.4248 40.8414 48.4147 40.8414 48.3944 40.8414C48.3537 40.8414 48.313 40.8212 48.2724 40.801C48.2419 40.7807 48.2114 40.7605 48.1809 40.7403C48.1199 40.6897 48.0589 40.6391 47.9979 40.5886C47.9471 40.5481 47.9064 40.4976 47.8556 40.447C47.8455 40.4369 47.8353 40.4268 47.8251 40.4167C47.8048 40.4065 47.7845 40.3964 47.7641 40.3762V40.3661V40.356L47.754 40.3459C47.7438 40.3357 47.7336 40.3256 47.7336 40.3155C47.7235 40.3054 47.7133 40.2953 47.693 40.2751C47.6828 40.265 47.6625 40.2548 47.6523 40.2447C47.6523 40.2447 47.6523 40.2447 47.6422 40.2447C47.6218 40.2245 47.6015 40.2144 47.5812 40.2043C47.571 40.2043 47.571 40.1942 47.5608 40.1942V40.184C47.5608 40.1739 47.5608 40.1537 47.5608 40.1436C47.5608 40.1436 47.5608 40.1436 47.571 40.1436L47.5507 40.1234C47.51 40.0728 47.4592 40.0222 47.4185 39.9717C47.3982 39.9514 47.388 39.9312 47.3779 39.911C47.3067 39.8301 47.2457 39.7593 47.1847 39.6784C47.1136 39.5874 47.0424 39.4964 46.9814 39.4053C46.9205 39.3345 46.8493 39.2637 46.7883 39.1828C46.6867 39.0615 46.5952 38.9401 46.4935 38.8188C46.4021 38.6974 46.3106 38.576 46.2191 38.4648C46.1276 38.3434 46.026 38.212 45.9446 38.0805C45.904 38.0198 45.8633 37.949 45.8227 37.8782C45.782 37.8176 45.7413 37.7569 45.7007 37.6962C45.6092 37.5445 45.5076 37.4029 45.4059 37.2512C45.3551 37.1804 45.3144 37.1096 45.2738 37.0388C45.2331 36.9579 45.1823 36.877 45.1416 36.7961C45.101 36.7354 45.0705 36.6647 45.04 36.604C44.9993 36.5332 44.9688 36.4624 44.9383 36.3916C44.8773 36.25 44.8062 36.1084 44.7554 35.9668C44.7249 35.896 44.7045 35.8354 44.6842 35.7646C44.6537 35.6837 44.6334 35.6129 44.613 35.532C44.5927 35.4612 44.5724 35.3904 44.5521 35.3196C44.5317 35.2488 44.5216 35.1881 44.5012 35.1173C44.4809 35.0668 44.4707 35.0263 44.4606 34.9757C44.4402 34.905 44.4199 34.8342 44.4098 34.7533C44.3996 34.6724 44.3793 34.5914 44.3691 34.5004C44.3589 34.4397 44.3488 34.3791 44.3488 34.3184C44.3386 34.2577 44.3386 34.1869 44.3284 34.1262C44.3284 34.0656 44.3183 34.0049 44.3183 33.9543C44.3183 33.8936 44.3081 33.833 44.3081 33.7824V33.7622C44.3081 33.661 44.3081 33.5498 44.3183 33.4487C44.3284 33.3374 44.3386 33.2262 44.3488 33.1149C44.3488 33.125 44.3488 33.125 44.3488 33.1351C44.3793 32.9127 44.4199 32.7003 44.4707 32.4778C44.4911 32.407 44.5114 32.3362 44.5317 32.2755C44.5521 32.2148 44.5724 32.1542 44.5927 32.0935C44.6232 32.0328 44.6435 31.9721 44.674 31.9013C44.7045 31.8305 44.735 31.7699 44.7655 31.6991C44.8265 31.5676 44.8977 31.4361 44.9688 31.3148C45.0298 31.2136 45.0908 31.1125 45.1619 31.0114C45.2839 30.8597 45.4059 30.7181 45.538 30.5765C45.6194 30.4956 45.7007 30.4248 45.782 30.3641C45.8633 30.3034 45.9446 30.2529 46.0361 30.1922C46.0463 30.1821 46.0565 30.1821 46.0666 30.172C46.2394 30.0708 46.4224 29.9899 46.6053 29.909C46.6053 29.909 46.6054 29.909 46.6155 29.909C46.7477 29.8484 46.89 29.7978 47.0221 29.7472C47.1644 29.6967 47.3067 29.6562 47.449 29.6056C47.571 29.5753 47.693 29.545 47.815 29.5045C47.9268 29.4742 48.0487 29.4438 48.1606 29.4135C48.3842 29.3528 48.6078 29.3022 48.8416 29.2719C48.9229 29.2618 49.0042 29.2517 49.0754 29.2416C49.1567 29.2314 49.238 29.2314 49.3194 29.2314C49.3905 29.2314 49.4617 29.2314 49.5328 29.2314C49.604 29.2314 49.6751 29.2416 49.7463 29.2517C49.7666 29.2517 49.7869 29.2517 49.8073 29.2618H49.8174C49.8784 29.2719 49.9394 29.282 50.0004 29.2921C50.0614 29.3022 50.1224 29.3124 50.1732 29.3326C50.2748 29.3629 50.3765 29.3933 50.4781 29.4236C50.5493 29.4539 50.6306 29.4843 50.7018 29.5247C50.7729 29.5551 50.8441 29.5955 50.9152 29.636C50.9762 29.6663 51.0372 29.7068 51.0982 29.7371C51.1592 29.7776 51.21 29.8079 51.271 29.8484C51.3625 29.9191 51.4438 29.9899 51.5353 30.0708C51.6064 30.1416 51.6776 30.2124 51.7386 30.2933C51.8097 30.3742 51.8707 30.445 51.9317 30.5259C52.013 30.6271 52.0842 30.7282 52.1553 30.8293C52.2265 30.9406 52.2976 31.0518 52.3586 31.1631C52.3586 31.1631 52.3586 31.153 52.3485 31.153C52.3586 31.1732 52.3688 31.1934 52.3891 31.2136C52.4704 31.3451 52.5314 31.4867 52.6026 31.6283C52.6127 31.6485 52.6229 31.6788 52.6331 31.7092C52.7246 31.9317 52.7957 32.1643 52.877 32.3969C52.9482 32.6093 53.0193 32.8317 53.0905 33.0441C53.1616 33.297 53.2328 33.5498 53.2836 33.8127C53.2938 33.8835 53.304 33.9644 53.304 34.0352C53.3141 34.1161 53.3243 34.197 53.3243 34.2779C53.3344 34.4397 53.3548 34.6016 53.3649 34.7634C53.3751 34.8746 53.3853 34.996 53.4056 35.1072C53.4158 35.2185 53.4259 35.3297 53.4361 35.4511C53.4463 35.5623 53.4463 35.6736 53.4463 35.7747C53.4463 35.8859 53.4564 35.9972 53.4564 36.0983C53.4564 36.2804 53.4564 36.4523 53.4564 36.6343C53.4564 36.695 53.4564 36.7456 53.4564 36.8062C53.4564 36.8568 53.4666 36.9175 53.4666 36.968V36.9782C53.4666 36.9782 53.4666 36.9782 53.4666 36.968C53.4666 36.9883 53.4767 37.0085 53.4767 37.0287C53.4767 37.049 53.4767 37.0793 53.4971 37.0995C53.5174 37.14 53.5682 37.1602 53.6089 37.1501C53.6394 37.14 53.6597 37.1197 53.68 37.0995C53.6597 37.2512 53.6495 37.3928 53.6292 37.5445C53.6089 37.6861 53.5987 37.8277 53.5682 37.9693C53.5581 38.0198 53.5479 38.0805 53.5174 38.1311C53.4971 38.2322 53.4869 38.3434 53.4666 38.4446C53.4463 38.5356 53.4259 38.6266 53.3954 38.7176C53.3649 38.8188 53.3344 38.9098 53.2938 39.0008C53.2531 39.0918 53.2125 39.1828 53.1616 39.2637C53.1108 39.3548 53.0498 39.4458 52.9787 39.5267C52.9177 39.6076 52.8465 39.6784 52.7652 39.7593C52.6941 39.8301 52.6229 39.9009 52.5518 39.9616C52.4399 40.0627 52.318 40.1537 52.196 40.2447C52.135 40.2852 52.074 40.3256 52.013 40.3661C51.9419 40.4065 51.8809 40.447 51.8097 40.4874C51.6268 40.5886 51.4336 40.6594 51.2405 40.7302C51.149 40.7605 51.0474 40.7908 50.9457 40.8111C50.8441 40.8313 50.7526 40.8616 50.6509 40.8717C50.4476 40.9021 50.2342 40.9223 50.0309 40.9223C50.0106 40.9223 50.0004 40.9223 49.9801 40.9223C49.8276 40.9122 49.6345 40.9021 49.4515 40.8819Z" fill="#F09785"/>
<path d="M48.0183 22.2328C48.0183 22.2328 48.0081 22.2328 47.998 22.2226C47.998 22.2226 48.0081 22.2226 48.0183 22.2328C47.9268 22.1822 47.8455 22.1316 47.7642 22.0811C47.7845 22.0912 47.815 22.1114 47.8353 22.1215C47.8658 22.1417 47.8861 22.162 47.9166 22.1721C47.9471 22.1923 47.9776 22.2024 48.0183 22.2328C48.0589 22.253 48.1098 22.2833 48.1504 22.3137C48.1098 22.2833 48.0589 22.253 48.0183 22.2328Z" fill="#F09785"/>
<path d="M37.2846 28.8369C37.2745 28.8774 37.2643 28.9077 37.244 28.9482C37.2338 28.9684 37.2338 28.9886 37.2236 29.0088C37.2338 28.9886 37.2338 28.9684 37.244 28.9482C37.2643 28.9178 37.2745 28.8774 37.2846 28.8369Z" fill="#704514"/>
<path d="M13.9561 52.0262V52.0161C13.9561 52.0161 13.9561 52.0161 13.9561 52.006C13.9561 51.9858 13.9662 51.9656 13.9662 51.9352C13.9764 51.8644 13.9866 51.7936 13.9967 51.7229V51.7127V51.7026C14.0069 51.6521 14.0171 51.6015 14.0171 51.5509C13.9459 51.561 13.8646 51.5712 13.7934 51.5813C13.58 51.6015 13.3665 51.6318 13.1531 51.6723C13.0006 51.6925 12.8583 51.7127 12.7058 51.733C12.5533 51.7532 12.411 51.7633 12.2586 51.7835C12.1162 51.8038 11.9638 51.8139 11.8215 51.8341C11.6893 51.8543 11.547 51.8644 11.4149 51.8746C11.2319 51.8847 11.0489 51.8847 10.8761 51.8847C10.7033 51.8847 10.5204 51.8644 10.3476 51.8543C10.2764 51.8442 10.2154 51.8341 10.1443 51.8341C10.0121 51.824 9.86983 51.8038 9.73768 51.7835C9.58521 51.7633 9.43274 51.7431 9.28027 51.7127C9.14813 51.6925 9.01598 51.6622 8.88384 51.6318C8.74153 51.6116 8.60939 51.5813 8.46709 51.5509C8.34511 51.5206 8.22313 51.4902 8.10115 51.47C8.10115 51.4801 8.10115 51.4801 8.10115 51.4902C8.09099 51.379 8.08082 51.2678 8.06049 51.1565L8.04016 50.9644C8.01983 50.7722 7.9995 50.5699 7.97918 50.3778C7.95885 50.1654 7.93852 49.9632 7.92835 49.7508C7.91819 49.5788 7.89786 49.4069 7.88769 49.2249C7.86736 49.0125 7.84703 48.79 7.8267 48.5776C7.81654 48.3956 7.79621 48.2035 7.78604 48.0214V47.9506C7.76571 47.7281 7.75555 47.5056 7.73522 47.3135C7.69456 46.7876 7.6539 46.3932 7.61324 46.0089C7.59291 45.8066 7.56242 45.6044 7.54209 45.4021V45.3819L7.52176 45.1897C7.50143 44.9773 7.47094 44.7852 7.44044 44.593C7.42011 44.4413 7.39978 44.2896 7.37945 44.1278L7.35912 43.9964L7.33879 43.8649C7.31846 43.7031 7.29813 43.5514 7.26764 43.3896L7.23714 43.1974C7.21682 43.0659 7.19649 42.9345 7.17616 42.803C7.11517 42.4086 7.06434 42.0142 7.00336 41.6198V41.6096C6.94237 41.2051 6.89154 40.8006 6.83055 40.4062C6.72891 39.7084 6.61709 38.8993 6.60693 38.0801C6.59676 37.6554 6.62726 37.3014 6.67808 36.9778C6.70858 36.7958 6.73907 36.6137 6.77973 36.4418C6.82039 36.2395 6.89154 36.0474 6.9322 35.8957C6.98303 35.7541 7.03385 35.6226 7.08467 35.5114C7.1355 35.4001 7.18632 35.2788 7.25747 35.1574C7.40995 34.8641 7.56242 34.6214 7.72506 34.409C7.81654 34.2877 7.91819 34.1663 8.00967 34.0652C8.12148 33.9438 8.21297 33.8326 8.30445 33.7416C8.39593 33.6506 8.47725 33.5696 8.56873 33.4786L8.61956 33.4281C8.70088 33.3472 8.78219 33.2662 8.87368 33.1955L8.97533 33.1044C9.07697 33.0134 9.16846 32.9123 9.2701 32.8213C9.4429 32.6493 9.62587 32.4673 9.80884 32.3055C9.94098 32.1841 10.0833 32.0527 10.2256 31.9313L10.2561 31.901C10.4391 31.7392 10.5814 31.6178 10.7237 31.4964C10.9371 31.3144 11.1506 31.1425 11.3641 30.9706C11.4657 30.8896 11.5673 30.8087 11.669 30.7278C12.0146 30.4447 12.3195 30.1918 12.6042 29.9491L12.655 29.9087C12.7871 29.7974 12.9294 29.6761 13.0616 29.5547C13.2039 29.4232 13.3563 29.2918 13.4885 29.1704C13.641 29.0288 13.7833 28.8973 13.9357 28.7558C14.0984 28.6142 14.2509 28.4625 14.4135 28.3209C14.6981 28.0579 14.9726 27.8051 15.2775 27.5624C15.5621 27.3298 15.8569 27.1073 16.1517 26.8848C16.2432 26.814 16.3245 26.7533 16.416 26.6825C16.6192 26.5308 16.8327 26.369 17.0462 26.2173L17.0665 26.1971L17.1072 26.1668H17.1173C17.3308 26.0151 17.5544 25.8533 17.7984 25.6915C17.8187 25.6712 17.839 25.651 17.8594 25.6409C18.1846 25.3678 18.4794 25.1453 18.764 24.9431C19.0791 24.7307 19.4044 24.5183 19.7398 24.3161C19.9025 24.2149 20.0753 24.1138 20.2481 24.0127C20.2379 23.8711 20.2278 23.7396 20.2176 23.6182C20.2074 23.4767 20.2074 23.3148 20.2074 23.153C20.2074 22.9609 20.2074 22.7789 20.2176 22.5968C20.2278 22.3035 20.2582 21.99 20.2989 21.5956C20.3192 21.454 20.3396 21.3023 20.3701 21.1304C20.3904 20.9888 20.431 20.8169 20.4615 20.645C20.5429 20.2809 20.6242 19.9573 20.7055 19.6539C20.797 19.3404 20.8986 19.037 20.9901 18.7336L21.0003 18.7032C21.1934 18.1167 21.3967 17.5099 21.6407 16.8525C21.722 16.63 21.8033 16.4075 21.8846 16.1749C22.0371 15.7704 22.1794 15.3456 22.342 14.931C22.4538 14.6377 22.5758 14.3343 22.6775 14.0512C22.8096 13.7275 22.9214 13.4342 23.0434 13.141C23.145 12.8982 23.267 12.6353 23.389 12.3724C23.2569 12.4634 23.1146 12.5544 22.9926 12.6252C22.9214 12.6656 22.8503 12.7162 22.7791 12.7567C22.7689 12.7567 22.7588 12.7668 22.7486 12.7668H22.7385C22.6978 12.787 22.647 12.7971 22.6063 12.8173C22.586 12.8275 22.5555 12.8376 22.5352 12.8477C22.5148 12.8578 22.4945 12.8679 22.4742 12.878C22.4538 12.8881 22.4233 12.8982 22.403 12.9084C22.342 12.9387 22.2709 12.9589 22.1997 12.9893C22.1184 13.0297 22.0371 13.0702 21.9659 13.1106L21.9558 13.1207H21.9659C21.8135 13.2016 21.6305 13.3028 21.4374 13.3837C21.2747 13.4444 21.0918 13.5253 20.8986 13.5758L20.8478 13.5859C20.8071 13.5961 20.7767 13.6062 20.7462 13.6163C20.6343 13.6466 20.5225 13.6972 20.4209 13.7376C20.3802 13.7579 20.3497 13.768 20.3091 13.7781C20.2278 13.8084 20.1464 13.8388 20.0651 13.8691C19.994 13.8995 19.9126 13.9197 19.8415 13.9399H19.8517C19.7805 13.9601 19.7093 13.9804 19.6382 14.0107L19.5467 14.041H19.5365C19.5264 14.041 19.5264 14.041 19.5162 14.0512H19.506H19.4959H19.506H19.5162C19.5264 14.0512 19.5264 14.0512 19.5365 14.0512H19.5467L19.6382 14.0208C19.6687 14.0107 19.6992 14.0006 19.7297 13.9905C19.6382 13.8792 19.5467 13.768 19.4552 13.6466C19.3841 13.5455 19.3129 13.4545 19.2418 13.3533C19.1706 13.2522 19.0995 13.1511 19.0283 13.0398C18.9572 12.9286 18.886 12.8173 18.8148 12.7162C18.7437 12.6151 18.6725 12.5038 18.6014 12.3926C18.5302 12.2813 18.4591 12.1802 18.3879 12.069C18.3168 11.9577 18.2355 11.8465 18.1643 11.7352C18.0931 11.624 18.022 11.5127 17.9508 11.4015C17.8187 11.1891 17.6866 10.9767 17.5646 10.7644C17.5646 10.7644 17.5544 10.7542 17.5544 10.7441V10.734C17.5544 10.734 17.5544 10.734 17.5544 10.7239C17.5544 10.7239 17.5544 10.7138 17.5442 10.7138C17.5442 10.7138 17.5442 10.7138 17.5442 10.7037C17.5442 10.7037 17.5442 10.6936 17.5341 10.6936C17.5341 10.6936 17.5341 10.6936 17.5341 10.6835C17.5239 10.6733 17.5239 10.6632 17.5138 10.643C17.4324 10.5014 17.3613 10.3497 17.28 10.2081C17.1986 10.0463 17.1072 9.8744 17.0258 9.71259C17.0665 9.68225 17.1072 9.64179 17.1478 9.60134V9.61145V9.60134C17.1986 9.55077 17.2596 9.51032 17.3105 9.45976L17.3511 9.4193L17.4019 9.37885C17.5442 9.25749 17.717 9.10579 17.8898 8.95409C17.9712 8.8833 18.0525 8.81251 18.1338 8.74172C18.3676 8.52934 18.6014 8.31696 18.825 8.09447L18.8352 8.08436C18.8453 8.07425 18.8555 8.06413 18.8657 8.05402L18.8758 8.04391C18.886 8.03379 18.8962 8.02368 18.8962 8.01357L18.9063 8.00345C18.9876 7.92255 19.0588 7.84164 19.1401 7.76074C19.2011 7.70006 19.2621 7.63938 19.3129 7.56859L19.3637 7.51802C19.4451 7.427 19.5264 7.3461 19.5874 7.28542L19.6585 7.21462C19.7195 7.14383 19.7907 7.08315 19.8517 7.01236C19.9126 6.95168 19.9635 6.891 20.0245 6.83032L20.1058 6.74942L20.1973 6.64828L20.2074 6.63817C20.2786 6.56738 20.3497 6.48647 20.4209 6.41568L20.5937 6.24376L20.5835 6.25387C20.797 6.03138 21.0308 5.80889 21.2544 5.5864L21.3662 5.47515C21.4577 5.38413 21.5492 5.30323 21.6407 5.22232C21.6508 5.21221 21.661 5.2021 21.6813 5.19198C21.7118 5.17176 21.7321 5.15153 21.7626 5.1313C21.7728 5.11108 21.7931 5.10096 21.8033 5.08074C21.9049 4.99983 22.0066 4.90881 22.1082 4.81779L22.1387 4.78745C22.1591 4.76723 22.1794 4.747 22.2099 4.72677C22.3624 4.60542 22.5148 4.48406 22.6673 4.3627L22.7486 4.29191C22.9418 4.14021 23.1247 3.98851 23.3178 3.83681C23.5008 3.69523 23.6838 3.54353 23.8667 3.40194C23.9684 3.32104 24.07 3.25025 24.1717 3.16934C24.2428 3.10866 24.314 3.04798 24.3852 2.9873L24.4156 2.95696C24.5071 2.87606 24.6088 2.80526 24.7003 2.72436C25.1983 2.34006 25.5948 2.02655 25.9709 1.75349C26.0725 1.6827 26.164 1.61191 26.2656 1.54111C26.3876 1.45009 26.5096 1.35908 26.6417 1.26806L26.7027 1.21749C26.8959 1.07591 27.0992 0.934321 27.3024 0.80285C27.4346 0.721944 27.5667 0.641038 27.6989 0.570246L27.7802 0.529793C27.8412 0.48934 27.9022 0.459001 27.9632 0.418548C27.9733 0.418548 27.9835 0.408435 27.9937 0.408435L28.0241 0.398321L28.0445 0.388208L28.075 0.367982C28.0953 0.357869 28.1156 0.347755 28.136 0.337642L28.2579 0.276963L28.2986 0.256736C28.4002 0.20617 28.5019 0.155604 28.6035 0.105038L28.634 0.0949251L28.6747 0.0848119C28.7052 0.0746987 28.7255 0.0645855 28.756 0.0544723C28.817 0.0443591 28.878 0.0342459 28.939 0.0241327C29.0305 0.0140195 29.1118 0.00390625 29.1931 0.00390625C29.2338 0.00390625 29.2744 0.00390625 29.3252 0.00390625C29.3557 0.00390625 29.3964 0.00390625 29.4269 0.00390625C29.5082 0.00390625 29.5997 0.00390625 29.7013 0.0140195C29.8741 0.0241327 30.0266 0.0443591 30.1588 0.0645855C30.2604 0.0848119 30.3417 0.0949251 30.4129 0.115152C30.4942 0.135378 30.5653 0.155604 30.6467 0.185944C30.8093 0.23651 30.9516 0.307302 31.0736 0.367982C31.2159 0.438774 31.348 0.529793 31.4598 0.610699C31.6022 0.711831 31.7241 0.80285 31.8359 0.893869C31.9783 1.01523 32.0799 1.11636 32.1714 1.21749C32.2324 1.28828 32.273 1.33885 32.3137 1.38942C32.3645 1.45009 32.4052 1.51077 32.4357 1.57145C32.4662 1.62202 32.5068 1.6827 32.5373 1.74338C32.578 1.8344 32.6186 1.90519 32.6491 1.9861C32.7813 2.2996 32.8728 2.63334 32.9541 2.91651C33.0252 3.20979 33.0964 3.51319 33.1574 3.83681C33.2793 4.4436 33.3708 5.07062 33.4623 5.75832C33.503 6.10217 33.5335 6.45613 33.564 6.71908C33.5945 7.03259 33.6046 7.35621 33.6148 7.67983C33.6249 8.03379 33.6249 8.35742 33.6148 8.66081C33.6046 8.96421 33.5945 9.29794 33.5741 9.66202C33.5538 10.0059 33.5335 10.3396 33.5131 10.6835C33.4928 10.9868 33.4725 11.3105 33.442 11.6745C33.4115 11.9982 33.381 12.3319 33.3505 12.6454C33.3098 12.9792 33.2793 13.3129 33.2285 13.6365C33.137 14.2939 33.0252 14.9512 32.8829 15.6086C32.8219 15.8816 32.7609 16.1345 32.7101 16.3671C32.6796 16.4884 32.6491 16.6199 32.6186 16.7413C32.5881 16.8727 32.5475 17.0042 32.517 17.1357C32.4052 17.5807 32.2832 18.0964 32.2019 18.6324C32.1917 18.7133 32.1815 18.7942 32.1714 18.865C32.3645 18.8347 32.5576 18.8044 32.7813 18.774C32.9439 18.7538 33.1167 18.7336 33.32 18.7235C33.5335 18.7032 33.7266 18.6931 33.9197 18.6931C33.9706 18.6931 34.0214 18.6931 34.0722 18.6931C34.3263 18.6931 34.5499 18.7032 34.7634 18.7336C35.0379 18.7639 35.3123 18.8145 35.5766 18.8954C35.7392 18.9459 35.8714 18.9864 36.0035 19.0269C36.1255 19.0673 36.2475 19.1179 36.3389 19.1583C36.3491 19.1583 36.3694 19.1684 36.3796 19.1785C36.4711 19.2089 36.5524 19.2493 36.6439 19.2797C36.7354 19.4921 36.8167 19.7044 36.898 19.9168C36.9488 20.0584 36.9997 20.2101 37.0505 20.3517C37.1013 20.4933 37.142 20.645 37.1826 20.7865C37.2233 20.9382 37.2639 21.0899 37.3046 21.2315C37.3453 21.3731 37.3758 21.5248 37.4164 21.6664C37.4876 21.9496 37.5486 22.2327 37.5892 22.526C37.64 22.8395 37.6807 23.153 37.7214 23.4665C37.762 23.7598 37.8027 24.043 37.823 24.3363C37.8433 24.6498 37.8637 24.9633 37.8535 25.2768C37.8433 25.5903 37.823 25.8937 37.8027 26.2072C37.7722 26.5106 37.7417 26.8241 37.701 27.1275C37.6807 27.2792 37.6502 27.441 37.6197 27.5927C37.5892 27.7343 37.5587 27.886 37.5282 28.0276C37.4876 28.1793 37.4469 28.3209 37.4062 28.4726C37.3859 28.5434 37.3656 28.6243 37.3351 28.6951C37.3351 28.6951 37.3351 28.6951 37.3249 28.6951H37.3148C37.2639 28.6951 37.2131 28.6951 37.1623 28.7052C37.1013 28.7153 37.0403 28.7254 36.9692 28.7456C36.7659 28.7962 36.5727 28.8569 36.4101 28.9176C36.217 28.9884 36.0442 29.049 35.8612 29.1198C35.6376 29.2108 35.4343 29.2918 35.2412 29.3828C35.17 29.4131 35.0988 29.4536 35.0277 29.4839L34.9362 29.5244C34.8549 29.5648 34.7532 29.6154 34.6618 29.6558C34.4483 29.7671 34.2552 29.8581 34.0722 29.9491C34.0112 29.9795 33.9401 30.0098 33.8791 30.0401C33.7469 30.1008 33.6046 30.1615 33.4725 30.2323C33.381 30.2829 33.2997 30.3334 33.2184 30.384C33.137 30.4447 33.0659 30.5053 32.9846 30.5761C32.8829 30.6773 32.7914 30.7784 32.7 30.8694C32.6186 30.9503 32.5373 31.0413 32.456 31.1222C32.273 31.3043 32.0799 31.4863 31.8563 31.6684C31.653 31.8403 31.4497 32.0021 31.2566 32.1437C31.0126 32.3358 30.8195 32.4774 30.6365 32.5988C30.5349 32.6696 30.423 32.7505 30.3011 32.8213C30.1892 32.8921 30.0673 32.9527 29.9656 33.0134C29.7725 33.1145 29.5489 33.2056 29.2541 33.3067C28.9898 33.3977 28.7255 33.4685 28.5222 33.5191C28.2783 33.5798 28.0241 33.6303 27.7395 33.6708C27.6277 33.6809 27.5159 33.7011 27.3634 33.7112C27.2313 33.7213 27.1093 33.7315 26.9975 33.7315C26.9772 33.7315 26.9568 33.7315 26.9365 33.7315C26.8247 33.7315 26.7027 33.7315 26.5807 33.7213C26.4486 33.7112 26.3165 33.7011 26.2046 33.691C26.0725 33.6809 25.9404 33.6607 25.8082 33.6404H25.7981C25.6659 33.6202 25.5338 33.6 25.4118 33.5696C25.178 33.5191 24.934 33.4584 24.6698 33.3775C24.5376 33.337 24.3953 33.2966 24.2632 33.2561C24.1717 33.2258 24.07 33.1955 23.9684 33.1651C23.9379 33.1955 23.9074 33.2157 23.8769 33.246L23.8667 33.2561C23.7854 33.3168 23.7143 33.3775 23.633 33.4281C23.5923 33.4584 23.5618 33.4786 23.5211 33.509C23.3077 33.6607 23.0841 33.8225 22.8604 33.9742L22.7791 34.0247C22.5758 34.1663 22.3115 34.3484 22.0371 34.5102C21.7931 34.6619 21.539 34.8035 21.2951 34.945L21.2646 34.9653C21.0511 35.0866 20.8478 35.1979 20.6648 35.3091C20.4514 35.4406 20.2481 35.5518 20.0651 35.653C19.8517 35.7642 19.6382 35.8755 19.4349 35.9867C19.2418 36.0878 19.0283 36.1991 18.8352 36.3002C18.5811 36.4418 18.3269 36.5935 18.0626 36.7351C17.8898 36.8261 17.7272 36.9272 17.5544 37.0182C17.4426 37.0789 17.3308 37.1396 17.2291 37.2104C17.036 37.3216 16.853 37.4329 16.6701 37.5441C16.5888 37.5947 16.5176 37.6352 16.4363 37.6857C16.2838 37.7767 16.1313 37.8678 15.9789 37.9487C15.8772 38.0093 15.7756 38.07 15.6739 38.1307C15.5316 38.2116 15.3893 38.2925 15.2572 38.3734C15.125 38.4543 14.9827 38.5453 14.8201 38.6465L14.6676 38.7476C14.4643 38.8791 14.2509 39.0207 14.0476 39.1724C13.9154 39.2735 13.7731 39.3847 13.6511 39.4859C13.5292 39.587 13.397 39.6982 13.2547 39.8297L13.2649 39.8196C13.1835 39.8904 13.1226 39.9612 13.0514 40.032C13.0412 40.0421 13.0311 40.0623 13.0209 40.0724L13.0006 40.1028C12.9904 40.123 12.9803 40.1432 12.9803 40.1635C12.9803 40.1837 12.9701 40.214 12.9701 40.2342C12.9701 40.2646 12.9599 40.2949 12.9599 40.3253C12.9599 40.3657 12.9599 40.4062 12.9701 40.4365C12.9904 40.568 13.0107 40.7096 13.0514 40.8613C13.0921 41.0028 13.1327 41.1444 13.1734 41.2759C13.1937 41.3568 13.2242 41.4276 13.2547 41.5085C13.275 41.5692 13.2954 41.6198 13.3157 41.6804C13.397 41.9333 13.4987 42.2367 13.58 42.5502C13.6206 42.6816 13.6511 42.8131 13.6816 42.9345L13.6918 42.985L13.7121 43.0862C13.7426 43.1974 13.7629 43.3087 13.7934 43.4199C13.8239 43.5312 13.8443 43.6525 13.8748 43.7739L13.8951 43.8851L13.9154 43.9559C13.9357 44.0672 13.9662 44.1784 13.9866 44.2896C14.0476 44.6234 14.0984 44.9167 14.139 45.1796C14.1594 45.3212 14.1797 45.4931 14.2102 45.665C14.2102 45.6954 14.2204 45.7257 14.2204 45.7561L14.2305 45.7965C14.2305 45.8066 14.2305 45.8066 14.2305 45.8167C14.2305 45.8167 14.2305 45.8167 14.2305 45.8269C14.2305 45.8572 14.2407 45.8875 14.2407 45.9179V45.9482C14.2509 46.019 14.2509 46.0898 14.261 46.1606C14.2813 46.3325 14.2915 46.4842 14.3017 46.6359C14.3118 46.7876 14.3118 46.9393 14.322 47.091C14.3322 47.2528 14.3322 47.4045 14.3322 47.5663C14.3322 47.7484 14.3322 47.9001 14.3322 48.0416C14.3322 48.1933 14.322 48.3552 14.322 48.5069C14.322 48.6484 14.3118 48.8001 14.3017 48.9417C14.2915 49.1642 14.2712 49.3867 14.261 49.5991C14.2509 49.6901 14.2509 49.771 14.2407 49.862C14.2204 50.1958 14.1899 50.489 14.1594 50.7621C14.1289 51.0554 14.0781 51.3588 14.0374 51.6622V51.6723V51.6824C13.9866 51.8341 13.9662 51.9352 13.9561 52.0262C13.9561 52.0262 13.9459 52.0262 13.9561 52.0262Z" fill="#704514"/>
<path d="M3.89313 20.9381C3.71016 20.9179 3.56786 20.8876 3.44588 20.8269C3.38489 20.7966 3.3239 20.7561 3.28324 20.7258C3.23242 20.6853 3.19176 20.6246 3.16126 20.5538C3.14094 20.5134 3.13077 20.4628 3.12061 20.4123C3.12061 20.3617 3.12061 20.3111 3.13077 20.2504C3.14093 20.21 3.1511 20.1796 3.16126 20.1392C3.18159 20.119 3.20192 20.0886 3.21209 20.0684C3.25275 20.0178 3.29341 19.9774 3.33407 19.9268V19.9369C3.37473 19.8864 3.43571 19.8156 3.50687 19.7549C3.55769 19.7043 3.61868 19.6639 3.67967 19.6234C3.72033 19.5931 3.76099 19.5627 3.80165 19.5425L3.83214 19.5223L3.89313 19.4818L3.92362 19.4616L3.93379 19.4515C3.95412 19.4313 3.97445 19.4212 3.99478 19.411C4.03544 19.3807 4.0761 19.3605 4.11676 19.3301L4.12692 19.32L4.20824 19.2695C4.27939 19.2189 4.36071 19.1683 4.41153 19.1279L4.49285 19.0672C4.53351 19.0369 4.57417 19.0065 4.61483 18.9762C4.65549 18.9458 4.69615 18.9155 4.74697 18.8852L4.81813 18.8346L4.83846 18.8245L4.84862 18.8144L4.86895 18.8042L4.87911 18.7941C4.91977 18.7638 4.96043 18.7436 4.99093 18.7132L5.02142 18.693C5.06208 18.6627 5.10274 18.6323 5.1434 18.5919C5.20439 18.5413 5.27554 18.4806 5.34669 18.4098L5.38735 18.3795L5.42801 18.3492C5.45851 18.3289 5.489 18.3087 5.5195 18.2885C5.57032 18.248 5.63131 18.1975 5.6923 18.1368C5.79395 18.0356 5.89559 17.9345 5.98708 17.8334L5.99724 17.8233C6.09889 17.712 6.2107 17.6008 6.32252 17.4996C6.414 17.4187 6.51565 17.3277 6.64779 17.2165C6.80026 17.085 6.91207 16.994 7.01372 16.9131C7.26784 16.7108 7.54229 16.5086 7.77608 16.3366L7.80658 16.3164C8.08103 16.1141 8.34531 15.9119 8.61976 15.7096L8.72141 15.6388C8.83322 15.5478 8.9552 15.4669 9.06701 15.386L9.08734 15.3759L9.11783 15.3556L9.20932 15.295C9.35162 15.2039 9.49393 15.1129 9.6464 15.0219L9.79887 14.9309C9.93102 14.85 10.0733 14.7691 10.2055 14.6983L10.1953 14.7084L10.2665 14.6679H10.2766C10.4189 14.587 10.5612 14.5061 10.7137 14.4353L10.8763 14.3544L10.9068 14.3443C11.0187 14.2836 11.1406 14.2331 11.2524 14.1724C11.3643 14.1117 11.4761 14.0612 11.5777 14.0106C11.659 13.9701 11.7404 13.9297 11.8115 13.8892C11.8725 13.8589 11.9335 13.8286 12.0046 13.7982L12.086 13.7578C12.1469 13.7274 12.2079 13.6971 12.2689 13.6667L12.3807 13.6162L12.4214 13.5959C12.5027 13.5555 12.584 13.515 12.6552 13.4746C12.7568 13.424 12.8483 13.3735 12.9398 13.3229C13.0008 13.2824 13.0618 13.2521 13.1329 13.2116L13.1431 13.2015L13.2041 13.1611C13.3057 13.1004 13.3972 13.0498 13.4785 12.9993L13.5294 12.9689C13.6005 12.9285 13.6717 12.8779 13.7327 12.8375C13.8038 12.7869 13.875 12.7262 13.9563 12.6554C13.9969 12.6251 14.0274 12.6049 14.0579 12.5745C14.1596 12.4936 14.2511 12.4127 14.3425 12.3318C14.3832 12.2913 14.434 12.2509 14.4747 12.2104C14.5255 12.17 14.5763 12.1194 14.617 12.079C14.6678 12.0284 14.7186 11.9879 14.7695 11.9374L14.7796 11.9273C14.9219 11.8059 15.0642 11.6744 15.1964 11.5531C15.2269 11.5227 15.2675 11.4924 15.298 11.4519L15.3285 11.4216L15.3489 11.4014C15.3895 11.3609 15.4403 11.3104 15.481 11.2699C15.5623 11.189 15.6436 11.1182 15.7249 11.0373L15.7758 10.9969L15.7859 10.9867C15.9689 10.8148 16.1722 10.6227 16.3653 10.4305C16.467 10.3294 16.5686 10.2283 16.6703 10.1271C16.7313 10.0766 16.7821 10.0159 16.8431 9.96531C16.8431 9.97542 16.8532 9.98553 16.8532 9.99565C16.8532 9.98553 16.8431 9.97542 16.8431 9.96531C16.8837 9.93497 16.9142 9.89451 16.9549 9.86417L16.9651 9.85406C16.9955 9.82372 17.0362 9.79338 17.0769 9.75293C17.1582 9.91474 17.2497 10.0766 17.331 10.2485C17.4123 10.3901 17.4835 10.5418 17.5648 10.6833C17.5749 10.6935 17.5749 10.7036 17.5851 10.7238C17.5851 10.7238 17.5851 10.7238 17.5851 10.7339C17.5851 10.7339 17.5851 10.744 17.5953 10.744C17.5953 10.744 17.5953 10.744 17.5953 10.7541C17.5953 10.7541 17.5953 10.7643 17.6054 10.7643V10.7744V10.7845C17.6054 10.7845 17.6156 10.7946 17.6156 10.8047C17.7376 11.0171 17.8697 11.2295 18.0019 11.4418C18.073 11.5531 18.134 11.6643 18.2153 11.7756C18.2865 11.8868 18.3576 11.9981 18.4389 12.1093C18.5101 12.2206 18.5813 12.3217 18.6524 12.4329C18.7236 12.5442 18.7947 12.6453 18.8659 12.7566C18.937 12.8678 19.0082 12.979 19.0793 13.0802C19.1505 13.1813 19.2216 13.2926 19.2928 13.3937C19.3639 13.4948 19.4351 13.5959 19.5063 13.687C19.5977 13.7982 19.6892 13.9196 19.7807 14.0308C19.7502 14.0409 19.7197 14.051 19.6892 14.0612L19.5977 14.0915H19.5876C19.5774 14.0915 19.5774 14.0915 19.5672 14.0915H19.5571H19.5469H19.5266L19.5063 14.1016C19.4554 14.1218 19.3944 14.1319 19.3436 14.1522C19.2725 14.1825 19.2013 14.2129 19.1403 14.2331C19.0183 14.2836 18.8862 14.3342 18.7337 14.3949H18.7236C18.6524 14.4252 18.5711 14.4556 18.4999 14.4758C18.4796 14.4859 18.4491 14.496 18.4186 14.5061L18.3983 14.5163C18.3576 14.5365 18.317 14.5466 18.2661 14.5567C18.2052 14.5769 18.1543 14.5972 18.1035 14.6174L18.0629 14.6376C17.9815 14.6679 17.9104 14.6983 17.8392 14.7387L17.7884 14.7691L17.7376 14.7994L17.7172 14.8095C17.6868 14.8298 17.6563 14.85 17.6156 14.8601L17.5648 14.8904C17.514 14.9208 17.453 14.9511 17.4021 14.9815L17.3615 15.0118C17.3107 15.0421 17.2497 15.0725 17.1988 15.1028C17.1582 15.123 17.1175 15.1433 17.0769 15.1635L17.0667 15.1736L17.0464 15.1837C17.026 15.1938 17.0057 15.2039 16.9854 15.2141C16.8634 15.2849 16.7313 15.3556 16.5788 15.4568C16.5178 15.4972 16.4467 15.5377 16.3755 15.5883C16.3145 15.6287 16.2535 15.6793 16.1824 15.7399H16.1722L16.1519 15.7501C16.0807 15.8107 15.9994 15.8815 15.9181 15.9523C15.8368 16.0231 15.7758 16.104 15.7046 16.1849C15.6741 16.2254 15.6436 16.2557 15.6233 16.2861C15.603 16.3164 15.5826 16.3569 15.5623 16.3872C15.542 16.4276 15.5318 16.4681 15.5115 16.5086C15.5013 16.549 15.481 16.5895 15.481 16.64C15.4708 16.6906 15.4708 16.7412 15.4708 16.7917C15.4708 16.8221 15.4708 16.8524 15.4607 16.8827C15.4505 16.9535 15.4505 17.0142 15.4607 17.085C15.4607 17.1558 15.4607 17.2367 15.4607 17.3075C15.4607 17.3581 15.4607 17.4086 15.4607 17.4592C15.4607 17.4794 15.4505 17.4996 15.4505 17.5098C15.3997 17.8132 15.3285 18.0458 15.2167 18.2379C15.1557 18.3492 15.0846 18.4402 15.0033 18.5413C14.9321 18.6222 14.8406 18.7031 14.7288 18.7941C14.5662 18.9155 14.373 19.0166 14.1087 19.1076C14.0579 19.1178 14.0071 19.1279 13.9461 19.1279L13.8953 19.138H13.875C13.7733 19.1582 13.6615 19.1683 13.5598 19.1784H13.57C13.5192 19.1886 13.4684 19.1886 13.4074 19.1886C13.387 19.1886 13.3667 19.1886 13.3464 19.1886H13.2956H13.2142H13.2346H13.2041H13.1736H13.1634H13.1533C13.0821 19.1683 13.011 19.1582 12.9398 19.138H12.9296C12.8178 19.1178 12.7162 19.0874 12.6044 19.0672C12.5027 19.047 12.4112 19.0267 12.3096 19.0065C12.2079 18.9863 12.1266 18.9762 12.0453 18.9661H12.0351H12.025H12.0148C12.0148 18.9661 12.0046 18.9661 11.9945 18.9661H11.9843H11.9741H11.9538H11.9436H11.9335C11.8115 18.9559 11.6692 18.9458 11.4964 18.9357C11.3744 18.9256 11.2321 18.9155 11.0695 18.9054H11.0593H11.0491H11.0085H10.978C10.9678 18.9054 10.9678 18.9054 10.9577 18.9054C10.9272 18.9054 10.9068 18.9054 10.8763 18.8953C10.7747 18.8852 10.6934 18.8852 10.6019 18.8852H10.5917C10.4901 18.8852 10.3986 18.8852 10.297 18.8953C10.2055 18.9054 10.1038 18.9155 10.0225 18.9357C9.94118 18.9458 9.8497 18.9661 9.74805 18.9863C9.68706 18.9964 9.61591 19.0065 9.55492 19.0065L9.49393 19.0166C9.44311 19.0267 9.39228 19.0267 9.34146 19.0369H9.35162L9.26014 19.0571L9.17882 19.0773C9.08734 19.0975 9.00602 19.1178 8.90437 19.138L8.87388 19.1481L8.7824 19.1683L8.7519 19.1784C8.72141 19.1886 8.69091 19.1987 8.66042 19.1987C8.5791 19.2189 8.49778 19.2593 8.38597 19.2998C8.29449 19.3403 8.21317 19.3807 8.13185 19.4313C8.07086 19.4616 8.00987 19.5021 7.94888 19.5324H7.93872C7.83707 19.5931 7.74559 19.6436 7.64394 19.7043C7.57278 19.7448 7.5118 19.7751 7.44064 19.8055C7.37965 19.8358 7.32883 19.856 7.26784 19.8864C7.22718 19.9066 7.19669 19.9268 7.15603 19.947L7.1357 19.9572C7.09504 19.9774 7.05438 20.0077 7.00356 20.0279C6.97306 20.0482 6.94257 20.0684 6.91207 20.0886C6.87141 20.0987 6.83075 20.119 6.77993 20.1291C6.66812 20.1695 6.55631 20.21 6.45466 20.2606C6.34284 20.3111 6.2412 20.3516 6.12938 20.392L6.04807 20.4224L6.02774 20.4325C5.95658 20.4628 5.88543 20.4932 5.81428 20.5235C5.76345 20.5437 5.71263 20.5639 5.6618 20.5842C5.60082 20.6145 5.53983 20.6347 5.47884 20.6651C5.40768 20.6954 5.32637 20.7258 5.25521 20.7561L5.15356 20.7966C4.99093 20.8572 4.84862 20.8977 4.70631 20.928C4.57417 20.9584 4.43186 20.9786 4.26923 20.9887C4.18791 20.9988 4.11676 20.9988 4.03544 20.9988C4.03544 20.9483 3.95412 20.9482 3.89313 20.9381Z" fill="#F09785"/>
<path d="M11.5574 64.3843C11.3032 64.3843 11.0288 64.3641 10.7645 64.3438C10.7239 64.3337 10.673 64.3337 10.6324 64.3236C10.5307 64.3135 10.4087 64.3034 10.2969 64.2832C10.1445 64.2629 9.98182 64.2326 9.82935 64.2124H9.80902C9.50408 64.1618 9.27029 64.1315 9.02633 64.0809C8.97551 64.0708 8.92468 64.0607 8.87386 64.0506H8.86369C8.79254 64.0303 8.71122 64.0202 8.64007 64.0101C8.58924 64 8.53842 63.9899 8.49776 63.9798C8.42661 63.9697 8.34529 63.9494 8.27414 63.9393C8.12166 63.9191 7.94886 63.8989 7.77606 63.8786C7.61342 63.8685 7.45079 63.8584 7.27799 63.8483H7.24749H7.23733H7.22716H7.16617C7.10518 63.8483 7.03403 63.8483 6.97304 63.8483C6.91205 63.8483 6.85106 63.8483 6.80024 63.8483C6.65793 63.8584 6.52579 63.8685 6.39365 63.8786C6.26151 63.8989 6.13953 63.909 6.00739 63.9393C5.9159 63.9494 5.82442 63.9697 5.73294 63.9899L5.61096 64.0101C5.28569 64.0708 5.03157 64.1112 4.79778 64.1517C4.53349 64.1921 4.25904 64.2124 3.98459 64.2225C3.83212 64.2225 3.68981 64.2225 3.55767 64.2225H3.43569H3.31372C3.26289 64.2225 3.21207 64.2225 3.16124 64.2225C3.12059 64.2225 3.09009 64.2225 3.04943 64.2225H2.99861C2.87663 64.2225 2.76482 64.2225 2.64284 64.2225H2.65301C2.54119 64.2225 2.42938 64.2124 2.3379 64.2124H2.24641C2.09394 64.2023 1.9618 64.1921 1.83982 64.182C1.54504 64.1517 1.28076 64.1112 1.0368 64.0506C0.904661 64.0202 0.772518 63.9798 0.640376 63.9292C0.528563 63.8786 0.406586 63.818 0.294773 63.7371C0.243949 63.6966 0.193125 63.6561 0.142301 63.6157C0.0914772 63.5651 0.0304885 63.5044 0.0203237 63.4235C0.0101589 63.3831 0.0203237 63.3325 0.0304885 63.2921C0.0406533 63.2617 0.0508181 63.2415 0.0711476 63.2112C0.111807 63.1606 0.152466 63.1201 0.193125 63.0797C0.243949 63.0392 0.294773 62.9988 0.335432 62.9786C0.386256 62.9482 0.43708 62.9179 0.487904 62.8875C0.548893 62.8572 0.620046 62.8269 0.67087 62.8066C0.721694 62.7864 0.782683 62.7662 0.853837 62.746C0.965649 62.7156 1.08763 62.6853 1.2096 62.6549L1.22993 62.6448C1.38241 62.6044 1.50438 62.5841 1.6162 62.5639C1.67718 62.5538 1.72801 62.5437 1.789 62.5437L1.86015 62.5336C1.94147 62.5235 2.01262 62.5134 2.10411 62.4931C2.17526 62.483 2.25658 62.4628 2.32773 62.4527L2.38872 62.4426C2.43954 62.4324 2.50053 62.4223 2.56152 62.4122C2.57169 62.4122 2.58185 62.4021 2.59202 62.4021C2.63268 62.392 2.66317 62.3819 2.69366 62.3718C2.77498 62.3515 2.8563 62.3212 2.92745 62.2909C3.00877 62.2605 3.07993 62.2201 3.15108 62.1796C3.22223 62.1392 3.28322 62.1088 3.35438 62.0785C3.51701 61.9976 3.66948 61.9167 3.83212 61.8358C3.91344 61.7953 3.98459 61.7447 4.06591 61.7043C4.13706 61.6638 4.21838 61.6133 4.28954 61.5627C4.28954 61.5627 4.28954 61.5627 4.2997 61.5627C4.2997 61.5627 4.2997 61.5627 4.30987 61.5627C4.40135 61.502 4.503 61.4515 4.60465 61.4009C4.71646 61.3503 4.81811 61.2998 4.92992 61.2391C5.03157 61.1784 5.13321 61.1177 5.24503 61.057C5.30602 61.0166 5.367 60.9863 5.43816 60.9458C5.50931 60.9053 5.5703 60.875 5.64145 60.8346C5.65162 60.8346 5.66178 60.8244 5.67195 60.8143C5.83459 60.7334 5.99722 60.6525 6.15986 60.5716C6.25134 60.5211 6.33266 60.4705 6.41398 60.4098C6.45464 60.3795 6.48513 60.3592 6.51563 60.3289C6.54612 60.3087 6.57662 60.2783 6.60711 60.2581C6.65793 60.2177 6.71892 60.1873 6.76975 60.1469C6.82057 60.1165 6.87139 60.0761 6.92222 60.0356C6.97304 59.9952 7.03403 59.9547 7.08485 59.9143C7.14584 59.8738 7.19667 59.8232 7.24749 59.7828C7.23733 59.7828 7.23733 59.7929 7.22716 59.7929C7.27799 59.7423 7.32881 59.7019 7.37963 59.6513C7.41013 59.621 7.44062 59.6007 7.47112 59.5704C7.50161 59.5401 7.53211 59.5097 7.55244 59.4794C7.5626 59.4592 7.58293 59.4389 7.59309 59.4187C7.60326 59.3985 7.61342 59.3884 7.62359 59.3783C7.67441 59.3075 7.72524 59.2266 7.7659 59.1457C7.77606 59.1153 7.79639 59.0951 7.80656 59.0647C7.81672 59.0445 7.82688 59.0344 7.83705 59.0142C7.83705 59.0041 7.83705 58.994 7.83705 58.9838C7.83705 58.9737 7.84721 58.9535 7.84721 58.9434C7.85738 58.9232 7.86754 58.9029 7.86754 58.8827C7.89804 58.7614 7.92853 58.64 7.95903 58.5186V58.5287C7.95903 58.5085 7.96919 58.4883 7.96919 58.4681C7.96919 58.4782 7.96919 58.4782 7.96919 58.4883C7.98952 58.4175 7.99969 58.3467 8.02002 58.2759C8.03018 58.2152 8.05051 58.1647 8.06068 58.104C8.08101 57.9725 8.1115 57.8512 8.13183 57.7197C8.14199 57.659 8.15216 57.5983 8.16232 57.5377C8.17249 57.477 8.18265 57.4163 8.19282 57.3455C8.21315 57.214 8.24364 57.0927 8.26397 56.9612C8.2843 56.8297 8.30463 56.6983 8.33512 56.5769C8.34529 56.5061 8.36562 56.4353 8.36562 56.3645C8.37578 56.2937 8.38595 56.2229 8.38595 56.1521C8.39611 56.0712 8.39611 55.9903 8.40628 55.9094C8.40628 55.9195 8.40628 55.9195 8.40628 55.9297C8.41644 55.8184 8.42661 55.7173 8.42661 55.606C8.42661 55.5049 8.42661 55.4038 8.41644 55.2925C8.41644 55.1813 8.41644 55.0801 8.41644 54.9689C8.41644 54.8678 8.41644 54.7565 8.41644 54.6554C8.41644 54.5745 8.40628 54.4936 8.39611 54.4127C8.39611 54.3217 8.39611 54.2407 8.38595 54.1497C8.38595 54.0789 8.37578 53.998 8.37578 53.9272C8.37578 53.8767 8.37578 53.816 8.37578 53.7654V53.725C8.36562 53.6542 8.35545 53.5834 8.35545 53.5126C8.34529 53.4317 8.34529 53.3508 8.33512 53.28C8.32496 53.1789 8.3148 53.0676 8.3148 52.9665C8.25381 52.6631 8.21315 52.39 8.17249 52.1271L8.20298 52.1372C8.19282 52.1372 8.18265 52.1372 8.17249 52.1271C8.16232 52.1271 8.16232 52.1271 8.15216 52.1271C8.16232 52.1271 8.17249 52.1271 8.17249 52.1271C8.15216 52.026 8.14199 51.9349 8.13183 51.854C8.13183 51.8439 8.13183 51.8338 8.13183 51.8136C8.12166 51.7731 8.12166 51.7428 8.12166 51.7124C8.1115 51.6518 8.1115 51.6012 8.10133 51.5506C8.10133 51.5304 8.09117 51.5001 8.09117 51.4697C8.21315 51.5001 8.33512 51.5304 8.4571 51.5607C8.59941 51.5911 8.73155 51.6214 8.87386 51.6417C9.006 51.6619 9.13814 51.6922 9.27028 51.7226C9.42276 51.7529 9.57523 51.7731 9.7277 51.7934C9.85984 51.8136 10.0022 51.8338 10.1343 51.8439C10.2054 51.854 10.2664 51.854 10.3376 51.8641C10.5104 51.8743 10.6832 51.8945 10.8662 51.8945C11.0491 51.8945 11.2219 51.8945 11.4049 51.8844C11.537 51.8743 11.6793 51.8641 11.8115 51.8439C11.9538 51.8237 12.1063 51.8035 12.2486 51.7934C12.401 51.7731 12.5433 51.763 12.6958 51.7428C12.8483 51.7226 12.9906 51.7023 13.1431 51.6821C13.3565 51.6518 13.57 51.6214 13.7835 51.5911C13.8546 51.581 13.9359 51.5709 14.0071 51.5607C13.9969 51.6113 13.9867 51.6619 13.9867 51.7124V51.7226V51.7327C13.9766 51.8035 13.9664 51.8743 13.9461 51.945C13.9461 51.9653 13.9359 51.9855 13.9359 52.0158V52.026V52.0361C13.9359 52.0361 13.9359 52.0361 13.9359 52.0462C14.0071 52.0361 14.0884 52.026 14.1596 52.0158C14.0884 52.026 14.0071 52.0361 13.9359 52.0462C13.9359 52.0664 13.9258 52.0866 13.9258 52.0967C13.9258 52.1069 13.9258 52.1069 13.9258 52.117C13.9258 52.1372 13.9258 52.1473 13.9156 52.1675C13.8851 52.3192 13.8546 52.4709 13.8343 52.6125C13.7733 52.8856 13.7123 53.1789 13.631 53.5227C13.5598 53.816 13.4988 54.0992 13.4277 54.3924C13.387 54.5543 13.3565 54.7262 13.3159 54.8779L13.2955 54.9891C13.265 55.1307 13.2346 55.2723 13.2041 55.4139C13.1329 55.7476 13.0719 56.1016 13.0211 56.4454L13.0109 56.4859C12.9906 56.6072 12.9703 56.7387 12.9499 56.8601C12.9398 56.9713 12.9194 57.0826 12.9093 57.1938L12.8991 57.2747C12.889 57.3455 12.889 57.4163 12.8788 57.4871C12.8788 57.5377 12.8686 57.5781 12.8686 57.6287L12.8585 57.6894C12.8585 57.7197 12.8483 57.7601 12.8483 57.7905V57.8309C12.8483 57.8512 12.8483 57.8815 12.8381 57.9017C12.8381 57.9523 12.828 57.9927 12.8178 58.0433L12.8076 58.1141V58.1647C12.7975 58.2658 12.7873 58.3669 12.767 58.4681C12.7568 58.5186 12.7568 58.5591 12.7466 58.6097L12.7365 58.6804C12.7263 58.7512 12.7162 58.822 12.706 58.8928C12.6857 59.0546 12.6653 59.1962 12.645 59.3277C12.6348 59.4086 12.6247 59.4693 12.6247 59.53V59.5502C12.6247 59.6109 12.6145 59.6715 12.6043 59.7221C12.5942 59.803 12.584 59.894 12.584 59.9749C12.6145 60.1974 12.6348 60.3997 12.6653 60.5918C12.6958 60.8244 12.7568 61.057 12.7975 61.2492C12.8585 61.4616 12.9194 61.7549 12.9703 62.038C12.9906 62.1796 13.0109 62.3111 13.0211 62.4426V62.4527C13.0313 62.5841 13.0414 62.7156 13.0414 62.8471C13.0414 62.9078 13.0414 62.9786 13.0414 63.0392V63.0291C13.0414 63.1707 13.0313 63.3022 13.0008 63.4235C12.9906 63.4943 12.9703 63.555 12.9601 63.6157C12.9398 63.6764 12.9194 63.7371 12.889 63.8078C12.8585 63.8685 12.8178 63.9292 12.7771 63.9697C12.7365 64.0101 12.6958 64.0607 12.645 64.1011C12.5433 64.1921 12.4315 64.2528 12.3096 64.2933C12.1977 64.3337 12.0758 64.3641 11.9335 64.3843C11.8623 64.3944 11.8013 64.4045 11.7403 64.4045C11.6692 64.4045 11.6082 64.4146 11.5574 64.4146V64.3843Z" fill="#F09785"/>
<path d="M47.5306 40.1737C47.5103 40.1636 47.5001 40.1535 47.49 40.1434C47.4696 40.1332 47.4493 40.1231 47.429 40.1029C47.3883 40.0827 47.3578 40.0625 47.3172 40.0422C47.2968 40.0321 47.2765 40.022 47.2562 40.0119C47.2358 40.0018 47.2155 39.9917 47.2054 39.9815C47.2054 39.9815 47.2054 39.9815 47.1952 39.9815C47.1647 39.9613 47.124 39.9411 47.0935 39.9209C47.063 39.9006 47.0326 39.8905 47.0021 39.8703C46.9817 39.8602 46.9614 39.84 46.9411 39.8298C46.9411 39.8298 46.9309 39.8299 46.9309 39.8197C46.9004 39.7995 46.8699 39.7793 46.8394 39.7591C46.8191 39.7388 46.7988 39.7287 46.7784 39.7085C46.7683 39.6984 46.7479 39.6883 46.7378 39.6782C46.7174 39.668 46.6971 39.6478 46.6869 39.6377C46.6666 39.6276 46.6565 39.6074 46.6361 39.5972C46.6158 39.5871 46.5955 39.5669 46.5853 39.5568C46.565 39.5467 46.5548 39.5265 46.5345 39.5163C46.504 39.4961 46.4735 39.4658 46.443 39.4354C46.4328 39.4253 46.4328 39.4253 46.4227 39.4152C46.3617 39.3545 46.3007 39.2837 46.2295 39.2231C46.0771 39.0714 45.9348 38.9095 45.8026 38.7579C45.6603 38.6062 45.518 38.4443 45.3859 38.2825C45.3147 38.2016 45.2435 38.1106 45.1724 38.0297C45.1012 37.9387 45.0403 37.8578 44.9691 37.7668C44.837 37.5948 44.715 37.4229 44.593 37.251C44.349 36.897 44.1254 36.5431 43.8916 36.1891C43.7697 36.0071 43.6578 35.825 43.546 35.643C43.4342 35.4609 43.3224 35.2789 43.2004 35.0868C43.1496 35.0058 43.0886 34.9148 43.0378 34.8339C42.9768 34.7429 42.926 34.6519 42.865 34.5609C42.8142 34.4699 42.7532 34.3889 42.7024 34.2979C42.6414 34.2069 42.5804 34.1159 42.5194 34.0249C42.4584 33.9338 42.3974 33.8428 42.3263 33.7518C42.2653 33.6709 42.2043 33.5799 42.1433 33.499C42.0823 33.408 42.0213 33.3271 41.9603 33.236C41.8993 33.1551 41.8383 33.0742 41.7774 32.9832C41.6554 32.8113 41.5334 32.6394 41.4114 32.4674C41.3504 32.3865 41.2996 32.2955 41.2386 32.2146C41.1776 32.1236 41.1166 32.0427 41.0557 31.9517C41.0252 31.9112 40.9947 31.8708 40.9642 31.8202C40.9337 31.7797 40.9032 31.7393 40.8727 31.6988C40.8727 31.6988 40.8727 31.6988 40.8625 31.6887C40.8625 31.6887 40.8625 31.6887 40.8625 31.6988C40.832 31.6685 40.8117 31.628 40.7812 31.5977C40.7507 31.5572 40.7304 31.5269 40.6999 31.4865C40.6186 31.3853 40.5271 31.2842 40.4356 31.1831C40.3441 31.0819 40.2526 30.9707 40.151 30.8797C40.1103 30.8392 40.0697 30.7988 40.0392 30.7684C39.9985 30.728 39.9579 30.6875 39.9172 30.6471C39.907 30.6369 39.8867 30.6167 39.8765 30.6066C39.8765 30.5965 39.8664 30.5864 39.8562 30.5763C39.8257 30.5459 39.7952 30.5156 39.7647 30.4852C39.7647 30.4852 39.7647 30.4852 39.7546 30.4751L39.7444 30.465C39.7342 30.4549 39.7241 30.4448 39.7139 30.4347C39.6428 30.3639 39.5818 30.3032 39.5106 30.2425C39.4903 30.2223 39.4801 30.2021 39.4598 30.1818C39.4496 30.1717 39.4496 30.1616 39.4395 30.1616C39.4598 30.1313 39.4801 30.1009 39.5004 30.0706C39.7749 29.6458 40.0595 29.2413 40.3543 28.8368C40.6389 28.4424 40.9337 28.0581 41.2386 27.6738C41.5436 27.2895 41.8587 26.9052 42.1738 26.531C42.2246 26.4703 42.2754 26.4096 42.3364 26.3489C42.3669 26.3186 42.3974 26.2883 42.4177 26.2478L42.4076 26.2579C42.7328 25.8837 43.0683 25.5095 43.4139 25.1556C43.5765 24.9837 43.7493 24.8218 43.912 24.66C44.0034 24.569 44.0949 24.4881 44.1966 24.3971C44.2982 24.3061 44.3999 24.2252 44.4914 24.1342C44.6743 23.9723 44.8573 23.8206 45.0403 23.6689C45.2232 23.5071 45.4164 23.3554 45.6095 23.2037C45.7111 23.1228 45.8128 23.0419 45.9144 22.9711C46.0161 22.8902 46.1076 22.8194 46.2092 22.7486C46.4125 22.5969 46.6158 22.4452 46.8191 22.3037C47.0122 22.1621 47.2054 22.0306 47.4086 21.8991C47.4188 21.889 47.429 21.889 47.4391 21.8789C47.4595 21.889 47.4798 21.8991 47.5001 21.9092C47.5611 21.9396 47.6221 21.9699 47.6729 22.0003C47.7034 22.0205 47.7339 22.0407 47.7746 22.0508C47.8559 22.1014 47.9372 22.152 48.0185 22.1924C48.0185 22.1924 48.0084 22.1924 48.0084 22.1823C48.0185 22.1823 48.0185 22.1924 48.0287 22.1924C48.0694 22.2126 48.1202 22.243 48.1608 22.2632C48.171 22.2733 48.1812 22.2733 48.1913 22.2834C48.2523 22.3239 48.3133 22.3542 48.3743 22.3846C48.4353 22.4149 48.4861 22.4452 48.5471 22.4756C48.6081 22.5059 48.6589 22.5363 48.7199 22.5666C48.7707 22.5969 48.8317 22.6273 48.8825 22.6475C48.9435 22.6778 49.0045 22.7082 49.0553 22.7385C49.1163 22.7689 49.1773 22.7992 49.2383 22.8397C49.2993 22.87 49.3603 22.9003 49.4111 22.9307C49.5026 22.9812 49.6042 23.0318 49.7059 23.0723C49.8482 23.1532 49.9905 23.2341 50.1227 23.3251C50.265 23.4161 50.4174 23.497 50.5597 23.588C50.5597 23.588 50.5597 23.588 50.5699 23.588C50.702 23.6588 50.824 23.7296 50.9562 23.8004C50.9867 23.8206 51.0273 23.8308 51.0578 23.851C51.1391 23.8712 51.2204 23.8813 51.3018 23.9015C51.4542 23.942 51.6067 23.9723 51.7592 24.0229C51.8405 24.0532 51.9117 24.0836 51.993 24.1038C52.0743 24.1342 52.1556 24.1645 52.2369 24.1847C52.3996 24.2454 52.552 24.3162 52.7045 24.387C52.6943 24.387 52.6943 24.3769 52.6842 24.3769C52.7553 24.4173 52.8366 24.4477 52.9078 24.4881C52.979 24.5286 53.0399 24.569 53.1111 24.6196C53.2331 24.7005 53.3551 24.8016 53.477 24.8926C53.599 24.9938 53.7311 25.0848 53.8328 25.2062C53.8836 25.2668 53.9446 25.3174 53.9853 25.3781C54.0259 25.4388 54.0768 25.4994 54.1174 25.5601C54.1682 25.6309 54.1987 25.7118 54.2394 25.7826C54.28 25.8534 54.3105 25.9242 54.341 25.995C54.402 26.1568 54.463 26.3287 54.5037 26.5108C54.5037 26.5006 54.5037 26.5006 54.5037 26.4905C54.524 26.5815 54.5342 26.6625 54.5443 26.7535C54.5647 26.8243 54.5748 26.8849 54.585 26.9557C54.6155 27.0973 54.6257 27.2389 54.6358 27.3805C54.6561 27.5322 54.646 27.694 54.6358 27.8558C54.6257 28.0075 54.6155 28.1592 54.6155 28.3109C54.6053 28.4626 54.5952 28.6143 54.585 28.766C54.5748 28.9076 54.5748 29.0492 54.5647 29.1806C54.5545 29.3222 54.5443 29.4638 54.524 29.6054C54.5037 29.7571 54.4833 29.8987 54.463 30.0504C54.4427 30.2021 54.4224 30.3538 54.402 30.5055C54.3817 30.6673 54.3614 30.819 54.3512 30.9808C54.341 31.1325 54.3309 31.2741 54.3105 31.4258C54.28 31.7494 54.2496 32.0629 54.2292 32.3865C54.2191 32.5382 54.2089 32.7 54.2089 32.8517C54.2089 33.0135 54.1987 33.1652 54.1784 33.3271C54.1682 33.4788 54.1479 33.6305 54.1377 33.7923C54.1276 33.944 54.1174 34.0957 54.0971 34.2474C54.0869 34.3991 54.0768 34.5508 54.0564 34.7025C54.0463 34.8542 54.0361 34.9957 54.0158 35.1474C53.9954 35.3092 53.9751 35.4609 53.9548 35.6228C53.9344 35.7745 53.9141 35.9363 53.8938 36.088C53.8735 36.2397 53.843 36.3812 53.8125 36.5329C53.8023 36.6037 53.7921 36.6644 53.782 36.7352C53.782 36.7655 53.7718 36.806 53.7616 36.8363C53.7616 36.8566 53.7515 36.8869 53.7413 36.9071C53.7413 36.9375 53.721 36.9779 53.6905 36.988C53.6905 36.988 53.6905 36.988 53.6803 36.988C53.6803 36.9982 53.6803 36.9982 53.6803 37.0083C53.6702 37.0487 53.6397 37.0791 53.599 37.0892C53.5482 37.0993 53.5075 37.0791 53.4872 37.0386C53.477 37.0184 53.4669 36.9982 53.4669 36.9678C53.4669 36.9476 53.4567 36.9274 53.4567 36.9071C53.4567 36.9071 53.4567 36.9071 53.4567 36.9172V36.9071C53.4465 36.8566 53.4465 36.7959 53.4364 36.7453C53.4364 36.6846 53.4364 36.624 53.4364 36.5734C53.4364 36.3914 53.4364 36.2194 53.4364 36.0374C53.4364 35.9262 53.4262 35.8149 53.4262 35.7138C53.4262 35.6025 53.416 35.5014 53.416 35.3902C53.4059 35.2789 53.3957 35.1677 53.3856 35.0463C53.3754 34.9351 53.3652 34.8137 53.3449 34.7025C53.3246 34.5406 53.3144 34.3788 53.3042 34.217C53.2941 34.1361 53.2839 34.0552 53.2839 33.9743C53.2737 33.9035 53.2737 33.8226 53.2636 33.7518C53.2229 33.4889 53.1416 33.236 53.0704 32.9832C53.0094 32.7607 52.9383 32.5483 52.857 32.336C52.7757 32.1034 52.7045 31.8708 52.613 31.6483C52.6029 31.6179 52.5927 31.5977 52.5825 31.5674C52.5215 31.4258 52.4504 31.2842 52.3691 31.1527C52.3589 31.1325 52.3487 31.1123 52.3284 31.092C52.3284 31.092 52.3284 31.1022 52.3386 31.1022C52.2674 30.9909 52.2064 30.8797 52.1353 30.7684C52.0641 30.6572 51.9828 30.556 51.9117 30.465C51.8507 30.3841 51.7795 30.3032 51.7185 30.2324C51.6575 30.1616 51.5864 30.0807 51.5152 30.0099C51.4339 29.929 51.3424 29.8582 51.2509 29.7874C51.2001 29.747 51.1391 29.7065 51.0781 29.6762C51.0172 29.6357 50.9562 29.6054 50.8952 29.5751C50.824 29.5346 50.7529 29.4942 50.6817 29.4638C50.6106 29.4335 50.5394 29.4031 50.4581 29.3627C50.3564 29.3222 50.2548 29.2919 50.1531 29.2717C50.0922 29.2514 50.0312 29.2413 49.9803 29.2312C49.9194 29.2211 49.8584 29.211 49.7974 29.2009H49.7872C49.7669 29.2009 49.7466 29.1908 49.7262 29.1908C49.6551 29.1806 49.5839 29.1705 49.5128 29.1705C49.4416 29.1705 49.3705 29.1705 49.2993 29.1705C49.218 29.1705 49.1367 29.1806 49.0553 29.1806C48.974 29.1908 48.8927 29.2009 48.8216 29.211C48.5878 29.2514 48.3641 29.302 48.1405 29.3526C48.0287 29.3829 47.9067 29.4132 47.7949 29.4436C47.6729 29.4739 47.551 29.5043 47.429 29.5447C47.2867 29.5852 47.1342 29.6256 47.0021 29.6863C46.8699 29.7369 46.7276 29.7975 46.5955 29.8481C46.5955 29.8481 46.5955 29.8481 46.5853 29.8481C46.4023 29.929 46.2194 30.0099 46.0466 30.1111C46.0364 30.1212 46.0262 30.1212 46.0161 30.1313C45.9348 30.1818 45.8433 30.2425 45.762 30.3032C45.6806 30.374 45.5892 30.4448 45.518 30.5156C45.3859 30.6572 45.2537 30.7988 45.1419 30.9505C45.0707 31.0516 45.0098 31.1426 44.9488 31.2538C44.8776 31.3853 44.8065 31.5067 44.7455 31.6382C44.715 31.6988 44.6845 31.7696 44.654 31.8404C44.6235 31.9011 44.6032 31.9618 44.5727 32.0326C44.5523 32.0932 44.532 32.1539 44.5117 32.2146C44.4914 32.2854 44.471 32.3461 44.4507 32.4169C44.3999 32.6292 44.349 32.8517 44.3287 33.0742C44.3287 33.0641 44.3287 33.0641 44.3287 33.054C44.3186 33.1652 44.3084 33.2765 44.2982 33.3877C44.2881 33.4889 44.2881 33.6001 44.2881 33.7012C44.2881 33.8226 44.2982 33.9541 44.3084 34.0754C44.3084 34.1361 44.3186 34.2069 44.3287 34.2676C44.3389 34.3283 44.349 34.3889 44.349 34.4496C44.3592 34.5305 44.3795 34.6215 44.3897 34.7025C44.3999 34.7732 44.4202 34.8542 44.4405 34.9249C44.4914 35.0766 44.5422 35.2385 44.6032 35.38C44.6133 35.4003 44.6235 35.4205 44.6235 35.4407C44.6845 35.5722 44.7455 35.7037 44.8065 35.8351C44.8776 35.9565 44.9386 36.0778 45.0098 36.1992C45.1012 36.3408 45.1927 36.4824 45.2944 36.624C45.396 36.7655 45.4977 36.9071 45.5993 37.0386C45.6095 37.0487 45.6196 37.0588 45.6298 37.0689L45.6196 37.0588C45.64 37.0892 45.6705 37.1195 45.6908 37.1498C45.8433 37.342 46.0059 37.5139 46.1787 37.6859C46.26 37.7668 46.3515 37.8477 46.4328 37.9185C46.5141 37.9892 46.6056 38.06 46.6869 38.1308C46.7784 38.2016 46.8699 38.2724 46.9614 38.3432C47.0529 38.414 47.1444 38.4848 47.2257 38.5556C47.2765 38.596 47.3273 38.6365 47.3782 38.6871C47.4391 38.7376 47.49 38.7882 47.5408 38.8388C47.5916 38.8893 47.6323 38.9399 47.6729 39.0006C47.7136 39.0511 47.7441 39.1118 47.7746 39.1725C47.7847 39.2028 47.7949 39.2332 47.8051 39.2635C47.8152 39.2939 47.8254 39.3242 47.8254 39.3545C47.8356 39.3849 47.8356 39.4152 47.8457 39.4557C47.8559 39.5163 47.8559 39.577 47.8457 39.6377C47.8457 39.668 47.8356 39.6984 47.8254 39.7287C47.8152 39.7692 47.7949 39.8096 47.7746 39.8501C47.7543 39.8804 47.7441 39.9006 47.7238 39.931C47.7034 39.9613 47.6831 39.9815 47.6526 40.0119C47.6221 40.0422 47.5916 40.0827 47.551 40.1029C47.551 40.1029 47.551 40.1029 47.5408 40.113C47.5408 40.1231 47.5408 40.1332 47.5408 40.1535V40.1636C47.551 40.1838 47.5408 40.1737 47.5306 40.1737Z" fill="#704514"/>
<path d="M58.0408 43.895C58.0306 43.8849 58.0103 43.8748 58.0103 43.8647C58.0001 43.8546 58.0001 43.8445 57.99 43.8343H57.9798C57.9493 43.8242 57.9188 43.7939 57.9086 43.7636C57.8985 43.7534 57.8985 43.7534 57.8985 43.7433C57.8985 43.7433 57.8985 43.7433 57.8985 43.7534V43.7433V43.7332C57.8985 43.7332 57.8985 43.7332 57.8985 43.7433C57.8985 43.7433 57.8985 43.7332 57.8883 43.7332C57.8781 43.7231 57.868 43.713 57.8578 43.713C57.8375 43.6928 57.8171 43.6725 57.7968 43.6422C57.746 43.5916 57.7053 43.531 57.6647 43.4804C57.6647 43.4804 57.6647 43.4703 57.6545 43.4703C57.6545 43.4703 57.6545 43.4703 57.6545 43.4804C57.5834 43.3894 57.5122 43.2882 57.4411 43.1972C57.4004 43.1466 57.3597 43.0961 57.3191 43.0455L57.3089 43.0354C57.2987 43.0253 57.2886 43.0152 57.2886 43.0152C57.2581 42.9848 57.2276 42.9444 57.1971 42.914C57.1666 42.8736 57.1361 42.8433 57.1158 42.8028C57.0853 42.7623 57.065 42.7219 57.0345 42.6814C56.9938 42.6106 56.943 42.55 56.9023 42.4792L56.8413 42.3882C56.821 42.3679 56.8108 42.3376 56.7905 42.3174C56.7295 42.2365 56.6787 42.1454 56.6177 42.0645C56.5567 41.9735 56.4957 41.8926 56.4347 41.8016C56.3941 41.7409 56.3636 41.6903 56.3229 41.6297C56.2823 41.569 56.2518 41.5083 56.2111 41.4476C56.1806 41.3971 56.1501 41.3364 56.1196 41.2858C56.079 41.2251 56.0485 41.1543 56.0078 41.0937C55.9977 41.0734 55.9875 41.0532 55.9773 41.0431C55.9163 40.942 55.8553 40.8307 55.8045 40.7296C55.7232 40.588 55.6419 40.4464 55.5606 40.3048C55.5199 40.2239 55.4793 40.143 55.4386 40.0621C55.4183 40.0217 55.4081 39.9913 55.3878 39.9509L55.3776 39.9408L55.3674 39.9205C55.3471 39.87 55.3166 39.8093 55.3064 39.7486C55.2963 39.6677 55.3878 39.6171 55.4488 39.6677C55.4589 39.6778 55.4691 39.6879 55.4792 39.7082C55.4894 39.7082 55.4996 39.7183 55.4996 39.7183C55.5199 39.7284 55.5402 39.7486 55.5504 39.7688C55.5606 39.7891 55.5809 39.7992 55.5911 39.8194C55.5911 39.8194 55.6012 39.8194 55.6012 39.8295C55.6114 39.8396 55.6216 39.8497 55.6419 39.8599C55.6825 39.8902 55.713 39.9408 55.7435 39.9812C55.7639 40.0116 55.7842 40.0318 55.8147 40.0621C55.8452 40.1026 55.8757 40.1531 55.9062 40.1936C55.9367 40.234 55.9672 40.2745 55.9977 40.315C56.0281 40.3655 56.0586 40.4161 56.0993 40.4666C56.14 40.5273 56.1908 40.588 56.2416 40.6386C56.2924 40.6993 56.3433 40.7599 56.4042 40.8307C56.5059 40.9521 56.6177 41.0734 56.7092 41.1948C56.76 41.2555 56.8007 41.3263 56.8515 41.387C56.9023 41.4476 56.9531 41.5184 57.004 41.5791C57.1056 41.7106 57.1869 41.8319 57.2784 41.9634C57.3292 42.0342 57.3801 42.105 57.4309 42.1758C57.4817 42.2466 57.5224 42.3174 57.563 42.3882C57.6037 42.4488 57.6443 42.5196 57.685 42.5904C57.7257 42.6612 57.7663 42.732 57.807 42.8028C57.8476 42.8837 57.8781 42.9545 57.9086 43.0354C57.9391 43.1062 57.9696 43.177 58.0001 43.2478C58.0204 43.3085 58.0509 43.3793 58.0713 43.45C58.0814 43.4905 58.0916 43.5411 58.1018 43.5815C58.1119 43.6321 58.1119 43.6826 58.1221 43.7332C58.1323 43.7737 58.1526 43.8343 58.1323 43.8748C58.1119 43.9153 58.0814 43.9355 58.0408 43.9355C58.0713 43.9051 58.0509 43.9051 58.0408 43.895Z" fill="#F28972"/>
<path d="M52.0029 44.4615C51.9927 44.4615 51.9826 44.4514 51.9724 44.4413C51.9521 44.4413 51.9419 44.4413 51.9216 44.4311C51.9013 44.421 51.8911 44.4109 51.8809 44.4109C51.8809 44.4109 51.8911 44.4109 51.8911 44.421C51.8809 44.421 51.8809 44.4109 51.8708 44.4109C51.8606 44.4109 51.8504 44.4008 51.8403 44.4008C51.8199 44.4008 51.8098 44.4008 51.7996 44.3907C51.759 44.3705 51.7183 44.3502 51.6776 44.33C51.6471 44.3098 51.6065 44.2896 51.576 44.2795C51.576 44.2795 51.576 44.2795 51.5658 44.2795C51.5048 44.2491 51.4337 44.2188 51.3727 44.1884C51.3727 44.1884 51.3727 44.1884 51.3829 44.1884C51.3727 44.1783 51.3524 44.1783 51.3422 44.1682C51.3422 44.1682 51.3422 44.1682 51.3524 44.1682H51.3422C51.2405 44.1176 51.1389 44.0671 51.0373 44.0165C50.9356 43.9659 50.8238 43.9154 50.7221 43.8547C50.5087 43.7435 50.3359 43.5918 50.1529 43.4401C50.0614 43.3591 49.9598 43.2884 49.8785 43.2075C49.787 43.1265 49.6955 43.0456 49.6142 42.9546C49.5329 42.8737 49.4515 42.8029 49.3702 42.722C49.2787 42.631 49.1974 42.54 49.1059 42.449C48.9433 42.277 48.7908 42.1051 48.6485 41.9231C48.4961 41.7309 48.3639 41.5388 48.2216 41.3466C48.1606 41.2556 48.0895 41.1646 48.0285 41.0736C47.998 41.023 47.9675 40.9825 47.9472 40.932C47.9268 40.8915 47.9065 40.8511 47.8862 40.8207C47.8862 40.8106 47.876 40.8106 47.876 40.8005C47.876 40.7904 47.8658 40.7803 47.8658 40.7601C47.8658 40.7398 47.8658 40.7196 47.876 40.6994C47.876 40.6994 47.876 40.6893 47.8862 40.6893C47.876 40.669 47.8658 40.6387 47.8557 40.6084C47.8455 40.5679 47.8658 40.5275 47.8963 40.5173C47.9167 40.5072 47.9268 40.5072 47.9472 40.5072C47.9777 40.4567 48.059 40.4465 48.0996 40.4971C48.12 40.5173 48.1403 40.5376 48.1505 40.5578C48.1505 40.5578 48.1505 40.5578 48.1606 40.5679C48.1809 40.5881 48.2013 40.6084 48.2114 40.6286L48.2216 40.6387C48.2216 40.6387 48.2216 40.6387 48.2318 40.6488C48.2419 40.6589 48.2521 40.6791 48.2623 40.6893C48.2826 40.7095 48.3029 40.7297 48.3233 40.7499C48.3233 40.7499 48.3233 40.7398 48.3131 40.7398C48.3436 40.7803 48.3842 40.8106 48.4147 40.8511C48.4554 40.8915 48.4961 40.9421 48.5367 40.9825C48.618 41.0736 48.6994 41.1646 48.7908 41.2556C48.8722 41.3365 48.9535 41.4275 49.0348 41.5084C49.1161 41.5893 49.2076 41.6702 49.2889 41.7613C49.3804 41.8422 49.4617 41.9332 49.5532 42.0141C49.6345 42.095 49.7158 42.1759 49.7971 42.2568C49.9699 42.4287 50.1326 42.6108 50.3156 42.7726C50.4985 42.9445 50.6815 43.1265 50.8746 43.2985C50.9254 43.3389 50.9661 43.3895 51.0169 43.4299L51.0271 43.4401C51.1592 43.5614 51.2914 43.6727 51.4235 43.7839C51.4337 43.794 51.4438 43.8041 51.454 43.8142C51.5353 43.8749 51.6065 43.9356 51.6878 43.9963C51.759 44.057 51.8301 44.1075 51.9013 44.1682C51.9114 44.1783 51.9216 44.1783 51.9216 44.1884C51.9419 44.2087 51.9622 44.2188 51.9826 44.239C52.0029 44.2491 52.0131 44.2592 52.0334 44.2795C52.0537 44.2896 52.0741 44.3098 52.0944 44.3199C52.1249 44.3401 52.135 44.3806 52.1249 44.4109C52.1147 44.4514 52.0741 44.4716 52.0436 44.4716C52.0232 44.4615 52.0131 44.4615 52.0029 44.4615Z" fill="#F28972"/>
<path d="M27.018 6.48695C27.0383 6.51729 27.0485 6.55774 27.0383 6.59819C27.0383 6.63864 27.0282 6.6791 27.018 6.71955C27.0078 6.76 26.9977 6.80046 26.9875 6.85102C26.9672 6.93193 26.9367 7.01283 26.9062 7.09374C26.8554 7.24544 26.7944 7.40725 26.7334 7.55895C26.6724 7.73087 26.6013 7.9028 26.5301 8.06461C26.4691 8.2163 26.398 8.37812 26.3268 8.52981C26.2963 8.60061 26.2658 8.66129 26.2252 8.72197C26.1845 8.79276 26.154 8.85344 26.1133 8.92423C26.0422 9.04559 25.9609 9.15683 25.8897 9.27819C25.7982 9.42989 25.7169 9.57147 25.6356 9.72317C25.5543 9.87487 25.473 10.0266 25.3815 10.1783C25.3002 10.33 25.2087 10.4716 25.1172 10.6131C25.0257 10.7547 24.9342 10.9064 24.8427 11.048C24.7513 11.1896 24.6598 11.3413 24.5683 11.4829C24.4768 11.6245 24.3955 11.766 24.304 11.9076C24.2024 12.0593 24.1007 12.2009 23.9991 12.3425C23.8873 12.4841 23.7653 12.6156 23.6535 12.747C23.4298 12.9999 23.2164 13.2729 22.9928 13.5359C22.9318 13.6066 22.8708 13.6673 22.8098 13.7381C22.8911 13.546 22.9623 13.3538 23.0436 13.1718C23.1452 12.9189 23.2672 12.6661 23.3892 12.4032C23.257 12.4942 23.1147 12.5852 22.9928 12.656C22.9216 12.6965 22.8504 12.747 22.7793 12.7875C22.7691 12.7875 22.759 12.7976 22.7488 12.7976H22.7386L22.7285 12.8077C22.6878 12.8279 22.637 12.838 22.5963 12.8583C22.5862 12.8684 22.576 12.8684 22.5557 12.8785C22.6167 12.7672 22.6878 12.656 22.7488 12.5448C22.8403 12.3829 22.9318 12.2312 23.0334 12.0694C23.1249 11.9279 23.2265 11.7964 23.318 11.6548C23.4197 11.5031 23.5213 11.3514 23.6128 11.1997C23.9177 10.7244 24.2125 10.2491 24.5073 9.77374V9.76363C24.5073 9.76363 24.5073 9.75351 24.5175 9.75351C24.5378 9.72317 24.5581 9.68272 24.5785 9.65238C24.5785 9.64227 24.5886 9.63215 24.5988 9.62204C24.7818 9.31864 24.9444 9.01525 25.1172 8.71185C25.29 8.39834 25.4831 8.10506 25.6864 7.81178C25.7677 7.69042 25.8491 7.57917 25.9304 7.4477C26.0625 7.2151 26.1947 6.98249 26.3573 6.77012C26.4386 6.66898 26.5199 6.56785 26.6013 6.46672C26.6419 6.41615 26.6724 6.3757 26.7131 6.33525C26.7334 6.31502 26.7537 6.2948 26.7741 6.27457C26.8045 6.23412 26.8554 6.224 26.9062 6.23412C26.957 6.24423 26.9977 6.28468 27.0078 6.33525C27.018 6.38581 27.0078 6.42627 26.9977 6.47683C27.018 6.47683 27.018 6.47683 27.018 6.48695Z" fill="#5E360A"/>
<path d="M10.7239 42.0238C10.7036 42.034 10.6731 42.0542 10.6527 42.0643C10.6222 42.0845 10.5918 42.1048 10.5613 42.125C10.5409 42.1351 10.5308 42.1452 10.5104 42.1654C10.4901 42.1755 10.4698 42.1857 10.4494 42.1857C10.4189 42.1857 10.3885 42.1755 10.3681 42.1553C10.358 42.1654 10.3376 42.1654 10.3275 42.1755C10.297 42.1857 10.2766 42.1755 10.2461 42.1654C10.1953 42.1452 10.175 42.0744 10.1852 42.0238C10.2055 41.9531 10.2665 41.8924 10.3173 41.8418C10.3478 41.8115 10.3783 41.7811 10.4088 41.7508C10.4494 41.7103 10.5003 41.6699 10.5511 41.6294C10.6121 41.5789 10.6629 41.5283 10.7239 41.4777C10.7849 41.4272 10.8459 41.3766 10.9069 41.3362C11.0695 41.2047 11.2525 41.0934 11.4354 40.9923C11.4761 40.962 11.5167 40.9316 11.5472 40.9114C11.6591 40.8305 11.7709 40.7597 11.8827 40.6788C11.9945 40.5979 12.1165 40.517 12.2384 40.4462C12.3401 40.3754 12.4519 40.3147 12.5637 40.254C12.6755 40.1832 12.7873 40.1125 12.8992 40.0315C13.011 39.9506 13.1329 39.8697 13.2549 39.7989C13.3667 39.7282 13.4786 39.6574 13.5904 39.5967C13.4887 39.6776 13.3769 39.7787 13.2753 39.8798L13.2854 39.8697C13.2041 39.9405 13.1431 40.0113 13.072 40.0821C13.0618 40.0922 13.0516 40.1125 13.0415 40.1226L13.0211 40.1529C13.011 40.1731 13.0008 40.1934 13.0008 40.2136C13.0008 40.2338 12.9906 40.2642 12.9906 40.2844C12.9906 40.3147 12.9805 40.3451 12.9805 40.3754C12.9805 40.4159 12.9805 40.4563 12.9906 40.4866C13.011 40.6181 13.0313 40.7597 13.072 40.9114C13.0923 40.9923 13.1126 41.0732 13.1431 41.144C13.1329 41.144 13.1228 41.1541 13.1025 41.1541C12.9093 41.2148 12.7162 41.2856 12.5231 41.3665C12.2689 41.4676 12.0047 41.5789 11.7404 41.6699C11.6082 41.7103 11.4659 41.7508 11.3338 41.8014C11.2626 41.8216 11.1813 41.8519 11.1102 41.8722C11.039 41.8924 10.978 41.9227 10.917 41.9531C10.8357 41.9632 10.7849 41.9935 10.7239 42.0238Z" fill="#5E360A"/>
<path d="M20.2074 23.6386V23.6285C20.2074 23.5476 20.1973 23.4768 20.1973 23.3857C20.2074 23.406 20.2074 23.4161 20.2074 23.4363C20.2074 23.5071 20.2074 23.5779 20.2074 23.6386Z" fill="#5E360A"/>
<path d="M25.1173 33.5389H25.1071C25.0665 33.5288 25.036 33.5186 24.9953 33.5085C24.975 33.5085 24.9648 33.4984 24.9445 33.4984C24.8632 33.4782 24.792 33.458 24.7107 33.4377H24.7005H24.6904H24.6802H24.6701H24.6599H24.6497H24.6396H24.6294H24.6192H24.6091H24.5989H24.5887H24.5786H24.5684H24.5582H24.5481H24.5379H24.5277H24.5176H24.5074H24.4973H24.4871H24.4769H24.4668H24.4566H24.4464H24.4363H24.4261H24.4159H24.4058H24.3956H24.3854H24.3753H24.3651H24.3549H24.3448H24.3346H24.3245H24.3143H24.3041H24.294H24.2838H24.2736H24.2635H24.2533H24.2431H24.233H24.2228H24.2126H24.2025H24.1923H24.1821H24.172H24.1618H24.1516H24.1415H24.1313H24.1212H24.111H24.1008H24.0907H24.0805H24.0703H24.0602C24.0297 33.4276 23.9992 33.4175 23.9687 33.4074C23.9382 33.4377 23.9077 33.458 23.8874 33.4782C23.7247 33.3669 23.5723 33.2557 23.4198 33.1343C23.2673 33.013 23.1148 32.8916 22.9725 32.7703C22.9115 32.7197 22.8404 32.659 22.7794 32.5983C22.7082 32.5377 22.6473 32.477 22.5761 32.4163C22.505 32.3455 22.4338 32.2848 22.3728 32.214C22.3017 32.1433 22.2305 32.0623 22.1593 31.9916C22.0882 31.9106 22.0272 31.8399 21.9561 31.7589C21.8951 31.6882 21.8341 31.6073 21.7731 31.5263C21.6613 31.3848 21.5495 31.2331 21.4478 31.0915C21.336 30.9297 21.2344 30.7679 21.1327 30.606C21.0412 30.4341 20.9497 30.2622 20.8684 30.0802C20.7871 29.9082 20.6956 29.7363 20.6143 29.5644C20.5635 29.4531 20.5127 29.3419 20.4618 29.2205C20.4517 29.1902 20.4313 29.1599 20.4212 29.1396C20.2789 28.8767 20.1467 28.6137 20.0349 28.3306C20.0044 28.2497 19.9739 28.1789 19.9434 28.098C19.9333 28.0676 19.9129 28.0272 19.9028 27.9968C19.8926 27.9463 19.8824 27.9058 19.8621 27.8553C19.8214 27.7137 19.791 27.562 19.7605 27.4204C19.6995 27.1473 19.6283 26.8743 19.5673 26.5911C19.5368 26.4596 19.5165 26.318 19.5063 26.1765C19.4962 26.0349 19.486 25.8832 19.4758 25.7416C19.4758 25.6809 19.4657 25.6303 19.4657 25.5697C19.4657 25.5798 19.4657 25.5899 19.4657 25.5899C19.4555 25.4382 19.4352 25.2966 19.425 25.1449C19.4149 25.0033 19.4047 24.8516 19.4149 24.71C19.5165 24.6494 19.6182 24.5786 19.7198 24.5179C19.8824 24.4168 20.0451 24.3257 20.2179 24.2246C20.2179 24.2954 20.2179 24.3662 20.228 24.437C20.2382 24.4977 20.2382 24.5685 20.2484 24.6291C20.2687 24.8415 20.289 25.0539 20.2992 25.2764C20.2992 25.3168 20.3094 25.3674 20.3094 25.4079C20.3195 25.509 20.3297 25.6 20.3399 25.7011C20.3399 25.7214 20.3399 25.7416 20.3297 25.7618C20.3805 26.0349 20.4313 26.3079 20.4923 26.5709C20.533 26.7327 20.5736 26.9046 20.6245 27.0664C20.6855 27.2383 20.7464 27.4103 20.8074 27.5822C20.9192 27.9058 21.0107 28.2497 21.1225 28.5733C21.153 28.6542 21.1835 28.7452 21.2242 28.8261C21.2648 28.907 21.3055 28.998 21.336 29.0789C21.4173 29.2408 21.4885 29.4127 21.5698 29.5745C21.6511 29.7363 21.7324 29.8981 21.8137 30.07C21.8442 30.1307 21.8747 30.1914 21.8951 30.2622C21.9662 30.3633 22.0374 30.4645 22.1085 30.5757C22.1593 30.6465 22.2102 30.7072 22.2712 30.778C22.4745 31.0409 22.6879 31.2937 22.8912 31.5668C22.9319 31.6275 22.9725 31.678 23.0132 31.7387C23.0335 31.7691 23.0539 31.7994 23.0742 31.8297C23.1962 31.9612 23.3181 32.0826 23.4503 32.214C23.5011 32.2646 23.5519 32.3152 23.6027 32.3657C23.6637 32.4264 23.7247 32.4871 23.7857 32.5478C23.8772 32.6388 23.9687 32.7197 24.0602 32.8107C24.1618 32.8916 24.2533 32.9624 24.3549 33.0433C24.5989 33.2355 24.853 33.4276 25.1071 33.6198C25.1986 33.6906 25.2799 33.7513 25.3714 33.822C25.2799 33.5793 25.1986 33.5692 25.1173 33.5389Z" fill="#5E360A"/>
<path d="M31.9376 19.2396C31.9884 19.0677 32.0393 18.8958 32.0901 18.7137C32.0901 18.7238 32.0901 18.7238 32.0799 18.734C32.1816 18.4002 32.2527 18.0564 32.3239 17.7226C32.3645 17.5507 32.4052 17.3889 32.456 17.217C32.5068 17.0451 32.5577 16.8731 32.6085 16.7012C32.639 16.59 32.6695 16.4888 32.7 16.3877V16.3978C32.6695 16.5192 32.639 16.6506 32.6085 16.772C32.578 16.9035 32.5373 17.0349 32.5068 17.1765C32.395 17.6215 32.273 18.1373 32.1917 18.6733C32.1816 18.7542 32.1714 18.8351 32.1714 18.9059C32.3645 18.8755 32.5577 18.8452 32.7813 18.8149C32.8728 18.8048 32.9744 18.7946 33.0761 18.7845C33.0354 18.8452 32.9947 18.8958 32.9642 18.9463C32.9033 19.0374 32.8423 19.1284 32.7813 19.2194C32.7406 19.2801 32.7101 19.3408 32.6796 19.4014C32.639 19.4722 32.6085 19.5329 32.578 19.6037C32.4763 19.8262 32.3849 20.0487 32.273 20.2712C32.2222 20.3824 32.1612 20.4937 32.1002 20.6049C32.0393 20.706 31.9884 20.8173 31.9376 20.9184C31.9173 20.969 31.8868 21.0195 31.8665 21.0701C31.836 21.1409 31.8055 21.2218 31.775 21.2926C31.7241 21.4241 31.6835 21.5555 31.6327 21.687C31.592 21.8185 31.5412 21.9398 31.5005 22.0713C31.4497 22.2129 31.4192 22.3545 31.3684 22.4961C31.3582 22.5466 31.3074 22.5871 31.2566 22.5871C31.2566 22.5871 31.2566 22.5871 31.2464 22.5871C31.1956 22.5871 31.1448 22.5466 31.1244 22.4961C31.1041 22.4455 31.1244 22.3848 31.1346 22.3343C31.1447 22.2837 31.1549 22.2331 31.1651 22.1826C31.1752 22.1623 31.1752 22.132 31.1854 22.1017C31.1956 22.041 31.2159 21.9702 31.2261 21.9095C31.2667 21.7477 31.3074 21.5859 31.3379 21.414C31.3582 21.3331 31.3785 21.242 31.3989 21.1611C31.4192 21.0701 31.4395 20.9892 31.4599 20.8982C31.5005 20.7364 31.5412 20.5644 31.5818 20.4026C31.6123 20.2712 31.6632 20.1498 31.6936 20.0183C31.7241 19.897 31.7648 19.7756 31.8055 19.6543C31.8156 19.6239 31.8258 19.5936 31.836 19.5531C31.8665 19.4722 31.8868 19.3812 31.9173 19.3003C31.9274 19.2801 31.9274 19.2598 31.9376 19.2396Z" fill="#5E360A"/>
</svg>
