<svg width="167" height="37" viewBox="0 0 167 37" fill="none" xmlns="http://www.w3.org/2000/svg">
<path d="M15.3531 2.68557H36.2359L20.8828 25.4419H0L15.3531 2.68557Z" fill="#704514"/>
<path d="M16.2676 27.5509L10.321 36.365H32.1944L47.5475 13.6087H31.4035L21.997 27.5509H16.2676Z" fill="#704514"/>
<path d="M68.3285 19.1903C65.786 19.1903 63.7306 18.3565 62.1622 16.6891C60.5773 15.0216 59.7848 12.7846 59.7848 9.97795C59.7848 7.15482 60.569 4.90952 62.1374 3.24206C63.6893 1.5911 65.753 0.765625 68.3285 0.765625C70.3922 0.765625 72.1505 1.31869 73.6033 2.42483C75.0561 3.53097 75.9642 5.1324 76.3274 7.22911H72.9347C72.6375 6.07344 72.0844 5.19844 71.2755 4.60409C70.483 3.99324 69.5007 3.68781 68.3285 3.68781C66.7601 3.68781 65.5219 4.24914 64.6138 5.37179C63.7223 6.47793 63.2766 8.01331 63.2766 9.97795C63.2766 11.9591 63.7223 13.5027 64.6138 14.6089C65.5054 15.715 66.7436 16.2681 68.3285 16.2681C69.5502 16.2681 70.5986 15.9049 71.4736 15.1785C72.3486 14.452 72.8769 13.445 73.0585 12.1572H76.4017C76.187 14.4025 75.312 16.136 73.7766 17.3577C72.2578 18.5794 70.4417 19.1903 68.3285 19.1903Z" fill="#704514"/>
<path d="M92.2907 14.1136L92.4393 16.7386C92.4558 17.5806 92.6374 18.2657 92.9841 18.794H89.5418C89.2447 18.2988 89.0878 17.5971 89.0713 16.6891L88.997 14.7575C88.9475 13.6843 88.6998 12.9414 88.2541 12.5287C87.8248 12.0994 87.1314 11.8848 86.1739 11.8848H81.8154V18.794H78.4722V1.16185H86.4711C88.4357 1.16185 89.9628 1.60761 91.0525 2.49913C92.1421 3.39064 92.6869 4.60409 92.6869 6.13948C92.6869 8.2527 91.7046 9.65601 89.7399 10.3494C90.6315 10.6301 91.2671 11.0758 91.6468 11.6867C92.043 12.281 92.2577 13.09 92.2907 14.1136ZM81.8154 3.91069V9.25978H86.2729C87.214 9.25978 87.9404 9.02865 88.4522 8.56638C88.9805 8.08761 89.2447 7.40246 89.2447 6.51095C89.2447 5.66896 88.9723 5.02509 88.4274 4.57933C87.8991 4.13357 87.1397 3.91069 86.1491 3.91069H81.8154Z" fill="#704514"/>
<path d="M109.404 16.6643C107.786 18.3483 105.656 19.1903 103.015 19.1903C100.373 19.1903 98.2433 18.3483 96.6254 16.6643C95.0075 14.9638 94.1985 12.735 94.1985 9.97795C94.1985 7.22086 95.0075 4.99207 96.6254 3.29158C98.2433 1.60761 100.373 0.765625 103.015 0.765625C105.656 0.765625 107.786 1.60761 109.404 3.29158C111.005 4.95905 111.806 7.18784 111.806 9.97795C111.806 12.7681 111.005 14.9968 109.404 16.6643ZM97.6903 9.97795C97.6903 11.9096 98.1773 13.4367 99.1513 14.5593C100.125 15.682 101.413 16.2433 103.015 16.2433C104.633 16.2433 105.929 15.682 106.903 14.5593C107.86 13.4532 108.339 11.9261 108.339 9.97795C108.339 8.02982 107.86 6.50269 106.903 5.39655C105.929 4.2739 104.633 3.71258 103.015 3.71258C101.413 3.71258 100.125 4.2739 99.1513 5.39655C98.1773 6.5192 97.6903 8.04633 97.6903 9.97795Z" fill="#704514"/>
<path d="M121.751 19.1903C119.208 19.1903 117.153 18.3565 115.584 16.6891C113.999 15.0216 113.207 12.7846 113.207 9.97795C113.207 7.15482 113.991 4.90952 115.56 3.24206C117.112 1.5911 119.175 0.765625 121.751 0.765625C123.814 0.765625 125.573 1.31869 127.026 2.42483C128.478 3.53097 129.386 5.1324 129.75 7.22911H126.357C126.06 6.07344 125.507 5.19844 124.698 4.60409C123.905 3.99324 122.923 3.68781 121.751 3.68781C120.182 3.68781 118.944 4.24914 118.036 5.37179C117.145 6.47793 116.699 8.01331 116.699 9.97795C116.699 11.9591 117.145 13.5027 118.036 14.6089C118.928 15.715 120.166 16.2681 121.751 16.2681C122.972 16.2681 124.021 15.9049 124.896 15.1785C125.771 14.452 126.299 13.445 126.481 12.1572H129.824C129.609 14.4025 128.734 16.136 127.199 17.3577C125.68 18.5794 123.864 19.1903 121.751 19.1903Z" fill="#704514"/>
<path d="M146.357 16.6643C144.739 18.3483 142.609 19.1903 139.968 19.1903C137.326 19.1903 135.196 18.3483 133.578 16.6643C131.96 14.9638 131.151 12.735 131.151 9.97795C131.151 7.22086 131.96 4.99207 133.578 3.29158C135.196 1.60761 137.326 0.765625 139.968 0.765625C142.609 0.765625 144.739 1.60761 146.357 3.29158C147.958 4.95905 148.759 7.18784 148.759 9.97795C148.759 12.7681 147.958 14.9968 146.357 16.6643ZM134.643 9.97795C134.643 11.9096 135.13 13.4367 136.104 14.5593C137.078 15.682 138.366 16.2433 139.968 16.2433C141.586 16.2433 142.882 15.682 143.856 14.5593C144.813 13.4532 145.292 11.9261 145.292 9.97795C145.292 8.02982 144.813 6.50269 143.856 5.39655C142.882 4.2739 141.586 3.71258 139.968 3.71258C138.366 3.71258 137.078 4.2739 136.104 5.39655C135.13 6.5192 134.643 8.04633 134.643 9.97795Z" fill="#704514"/>
<path d="M157.421 19.1903C155.027 19.1903 153.169 18.6537 151.849 17.5806C150.544 16.5075 149.884 14.9721 149.867 12.9744H153.161C153.178 14.2292 153.549 15.1289 154.276 15.6737C155.018 16.2186 156.1 16.491 157.52 16.491C158.675 16.491 159.559 16.2763 160.169 15.8471C160.78 15.4013 161.086 14.7657 161.086 13.9402C161.086 13.2468 160.822 12.7185 160.293 12.3553C159.781 11.9921 158.84 11.6702 157.47 11.3895L155.984 11.0923C152.204 10.3824 150.313 8.5994 150.313 5.74325C150.313 4.22437 150.891 3.01918 152.047 2.12766C153.202 1.21964 154.804 0.765625 156.851 0.765625C159.179 0.765625 160.937 1.26091 162.126 2.25148C163.331 3.24206 163.967 4.62886 164.033 6.41189H160.789C160.723 5.40481 160.384 4.66188 159.773 4.1831C159.179 3.70432 158.221 3.46494 156.901 3.46494C155.877 3.46494 155.093 3.65479 154.548 4.03451C154.003 4.41423 153.731 4.95079 153.731 5.64419C153.731 6.3541 153.978 6.89892 154.474 7.27864C154.985 7.65836 155.885 7.98029 157.173 8.24445L158.708 8.54162C160.772 8.95436 162.258 9.57346 163.166 10.3989C164.09 11.2079 164.553 12.3306 164.553 13.7669C164.553 15.4839 163.925 16.8212 162.671 17.7787C161.416 18.7197 159.666 19.1903 157.421 19.1903Z" fill="#704514"/>
<path d="M62.7661 29.5895L63.5387 28.3216H65.0147L62.3699 32.591V35.3745H61.0326V32.591L58.368 28.3216H59.8835L60.6661 29.5994C61.3001 30.656 61.6534 31.2504 61.726 31.3825C61.9043 31.0655 62.251 30.4678 62.7661 29.5895Z" fill="#704514"/>
<path d="M73.2821 34.5226C72.6349 35.1962 71.783 35.533 70.7264 35.533C69.6698 35.533 68.8179 35.1962 68.1708 34.5226C67.5236 33.8424 67.2 32.9509 67.2 31.848C67.2 30.7452 67.5236 29.8537 68.1708 29.1735C68.8179 28.4999 69.6698 28.1631 70.7264 28.1631C71.783 28.1631 72.6349 28.4999 73.2821 29.1735C73.9227 29.8405 74.243 30.732 74.243 31.848C74.243 32.9641 73.9227 33.8556 73.2821 34.5226ZM68.5967 31.848C68.5967 32.6207 68.7915 33.2315 69.1811 33.6806C69.5708 34.1296 70.0859 34.3542 70.7264 34.3542C71.3736 34.3542 71.892 34.1296 72.2816 33.6806C72.6646 33.2381 72.8562 32.6273 72.8562 31.848C72.8562 31.0688 72.6646 30.4579 72.2816 30.0155C71.892 29.5664 71.3736 29.3419 70.7264 29.3419C70.0859 29.3419 69.5708 29.5664 69.1811 30.0155C68.7915 30.4645 68.5967 31.0754 68.5967 31.848Z" fill="#704514"/>
<path d="M81.153 32.6504V31.5707H84.303V35.3745H83.3322L83.144 34.4433C82.6355 35.1697 81.8695 35.533 80.8459 35.533C79.8289 35.533 79.0133 35.1962 78.3992 34.5226C77.785 33.849 77.478 32.9575 77.478 31.848C77.478 30.7386 77.7916 29.8438 78.419 29.1636C79.0464 28.4966 79.895 28.1631 80.9648 28.1631C81.8497 28.1631 82.586 28.3876 83.1737 28.8367C83.7549 29.2857 84.1049 29.8966 84.2238 30.6692H82.8469C82.7478 30.2532 82.5299 29.9263 82.1931 29.6886C81.8629 29.4508 81.4568 29.332 80.9747 29.332C80.3275 29.332 79.8157 29.5565 79.4393 30.0056C79.0629 30.4546 78.8747 31.0688 78.8747 31.848C78.8747 32.6273 79.0662 33.2414 79.4492 33.6905C79.8322 34.1395 80.3572 34.3641 81.0242 34.3641C81.5525 34.3641 82.0049 34.2056 82.3813 33.8886C82.7577 33.5716 82.9624 33.1589 82.9955 32.6504H81.153Z" fill="#704514"/>
<path d="M94.3668 35.3745H92.9502L92.3955 33.8193H89.3049L88.7601 35.3745H87.3832L90.0677 28.3216H91.6328L94.3668 35.3745ZM89.9785 31.9174L89.7111 32.6801H91.9894L91.712 31.9174C91.4809 31.3296 91.1903 30.524 90.8403 29.5004C90.563 30.3192 90.2757 31.1249 89.9785 31.9174Z" fill="#704514"/>
<path d="M102.079 28.3216H107.943V29.5202H105.685V35.3745H104.338V29.5202H102.079V28.3216Z" fill="#704514"/>
<path d="M116.821 33.5023L116.88 34.5523C116.887 34.8891 116.959 35.1631 117.098 35.3745H115.721C115.602 35.1763 115.539 34.8957 115.533 34.5325L115.503 33.7598C115.483 33.3306 115.384 33.0334 115.206 32.8683C115.034 32.6966 114.757 32.6108 114.374 32.6108H112.631V35.3745H111.293V28.3216H114.493C115.279 28.3216 115.889 28.4999 116.325 28.8565C116.761 29.2131 116.979 29.6985 116.979 30.3126C116.979 31.1579 116.586 31.7192 115.8 31.9966C116.157 32.1089 116.411 32.2872 116.563 32.5315C116.722 32.7693 116.807 33.0928 116.821 33.5023ZM112.631 29.4211V31.5608H114.414C114.79 31.5608 115.081 31.4683 115.285 31.2834C115.497 31.0919 115.602 30.8178 115.602 30.4612C115.602 30.1244 115.493 29.8669 115.275 29.6886C115.064 29.5103 114.76 29.4211 114.364 29.4211H112.631Z" fill="#704514"/>
<path d="M126.869 35.3745H125.453L124.898 33.8193H121.807L121.262 35.3745H119.886L122.57 28.3216H124.135L126.869 35.3745ZM122.481 31.9174L122.213 32.6801H124.492L124.214 31.9174C123.983 31.3296 123.693 30.524 123.343 29.5004C123.065 30.3192 122.778 31.1249 122.481 31.9174Z" fill="#704514"/>
<path d="M131.397 35.3745H130.06V28.3216H131.397V35.3745Z" fill="#704514"/>
<path d="M139.895 30.164V28.3216H141.183V35.3745H139.697L137.736 32.2343C137.201 31.3957 136.782 30.6891 136.478 30.1145C136.504 30.8541 136.518 31.9933 136.518 33.532V35.3745H135.23V28.3216H136.716L138.687 31.4617C139.275 32.4126 139.691 33.1193 139.935 33.5815C139.909 32.5976 139.895 31.4584 139.895 30.164Z" fill="#704514"/>
<path d="M146.352 35.3745H145.014V28.3216H146.352V35.3745Z" fill="#704514"/>
<path d="M154.85 30.164V28.3216H156.138V35.3745H154.652L152.691 32.2343C152.156 31.3957 151.737 30.6891 151.433 30.1145C151.459 30.8541 151.473 31.9933 151.473 33.532V35.3745H150.185V28.3216H151.671L153.642 31.4617C154.23 32.4126 154.646 33.1193 154.89 33.5815C154.864 32.5976 154.85 31.4584 154.85 30.164Z" fill="#704514"/>
<path d="M163.347 32.6504V31.5707H166.497V35.3745H165.527L165.338 34.4433C164.83 35.1697 164.064 35.533 163.04 35.533C162.023 35.533 161.208 35.1962 160.593 34.5226C159.979 33.849 159.672 32.9575 159.672 31.848C159.672 30.7386 159.986 29.8438 160.613 29.1636C161.241 28.4966 162.089 28.1631 163.159 28.1631C164.044 28.1631 164.78 28.3876 165.368 28.8367C165.949 29.2857 166.299 29.8966 166.418 30.6692H165.041C164.942 30.2532 164.724 29.9263 164.387 29.6886C164.057 29.4508 163.651 29.332 163.169 29.332C162.522 29.332 162.01 29.5565 161.634 30.0056C161.257 30.4546 161.069 31.0688 161.069 31.848C161.069 32.6273 161.26 33.2414 161.643 33.6905C162.027 34.1395 162.551 34.3641 163.218 34.3641C163.747 34.3641 164.199 34.2056 164.576 33.8886C164.952 33.5716 165.157 33.1589 165.19 32.6504H163.347Z" fill="#704514"/>
</svg>
