<svg width="165" height="164" viewBox="0 0 165 164" fill="none" xmlns="http://www.w3.org/2000/svg">
<circle opacity="0.1" cx="82.7968" cy="82.0107" r="81.8046" fill="url(#paint0_linear_3112_2714)"/>
<circle cx="82.7969" cy="82.0108" r="66.0938" fill="white"/>
<g clip-path="url(#clip0_3112_2714)">
<path d="M108.035 104.002H105.509C105.273 102.821 104.365 101.854 103.178 101.597L101.05 101.136L98.304 98.923L96.314 97.0702C95.5868 96.3932 94.5595 97.5395 95.2865 98.2166L96.7574 99.586C96.4963 99.9033 96.2353 100.221 95.9743 100.538L79.9315 91.7246C79.7902 91.6471 79.6289 91.617 79.4696 91.6384L71.4303 92.7289C70.142 92.9037 69.127 93.9433 68.9619 95.2571L68.3902 99.8064H67.193L67.1761 93.5266C67.1728 92.2844 67.8788 91.1317 68.9745 90.5898C69.4703 90.3446 75.1769 87.5569 75.1769 87.5569H83.8373L92.3021 95.4379C93.0291 96.1149 94.0567 94.9686 93.3296 94.2915L84.8945 86.4382V78.6684H99.0934C101.118 78.6684 102.765 76.9904 102.765 74.9278C102.765 74.499 102.424 74.1514 102.003 74.1514H83.7301C83.4092 73.7424 83.029 73.3797 82.5987 73.077C83.5519 72.1934 84.1548 70.9223 84.1629 69.5096V65.6545C84.1626 65.4732 84.1692 65.2935 84.1505 65.1156C86.0474 63.9236 86.3815 61.1326 84.8074 59.513C83.0774 57.7328 80.0286 58.3107 79.0475 60.6081C76.719 60.675 74.2714 62.0993 73.998 64.7558C73.9167 65.5468 74.1075 66.3951 74.6555 66.9831L74.6391 69.4664C74.6308 70.9069 75.2656 72.2953 76.3487 73.219C75.9956 73.4916 75.6809 73.8053 75.4089 74.1516H67.43C66.4451 74.1516 66.4451 75.7043 67.43 75.7043H74.5572C74.3993 76.1537 74.2991 76.6278 74.2622 77.1159H60.9608C60.0446 77.1159 59.2605 76.5286 58.9522 75.7043H63.2969C64.2817 75.7043 64.2817 74.1516 63.2969 74.1516H58.0509C57.6301 74.1516 57.2891 74.4992 57.2891 74.928C57.2891 76.9906 58.9363 78.6686 60.9608 78.6686H74.2456V86.2888C74.2456 86.2888 68.7986 88.9512 68.3096 89.193C66.6909 89.9935 65.6478 91.6964 65.6527 93.5311L65.6718 101.177L62.8279 102.122C61.9627 102.409 61.3299 103.129 61.1267 104.002H57.5586C57.1378 104.002 56.7969 104.35 56.7969 104.778C56.7969 105.207 57.1378 105.555 57.5586 105.555H108.035C108.456 105.555 108.797 105.207 108.797 104.778C108.797 104.35 108.456 104.002 108.035 104.002ZM75.7691 86.0043V83.6174H83.3712V86.0043H75.7691ZM101.102 75.7042C100.794 76.5285 100.01 77.1158 99.0934 77.1158H84.8782C84.841 76.6272 84.7396 76.1534 84.5814 75.7042H101.102ZM82.296 59.999C82.8314 59.999 83.3483 60.2179 83.7251 60.6056C84.4899 61.3926 84.4829 62.7262 83.7093 63.5069C83.4669 62.9827 83.1207 62.4853 82.7176 62.0767C82.1363 61.4875 81.4372 61.0632 80.6745 60.8256C81.0463 60.3167 81.6384 59.999 82.296 59.999ZM75.5131 64.9176C75.6988 63.1142 77.5092 62.164 79.2017 62.1573C81.0895 62.1573 82.6264 63.7339 82.6293 65.6478V68.3885C81.0003 67.1098 79.1182 66.3038 77.0355 66.3038C76.163 66.3038 75.4064 65.9564 75.5131 64.9176ZM76.1737 67.7832C76.6378 67.8737 76.7326 67.8565 77.0358 67.8565C79.2351 67.8565 80.876 68.9842 82.5453 70.27C82.1969 71.7147 80.9155 72.7892 79.3916 72.7891C79.3876 72.7891 79.3835 72.7891 79.3796 72.7891C78.5159 72.7859 77.7058 72.4399 77.0981 71.8148C76.4897 71.1888 76.1574 70.358 76.1625 69.4761L76.1737 67.7832ZM79.3801 74.3419H79.3977C80.0072 74.3419 80.5901 74.2228 81.1268 74.0085C81.7817 74.3083 82.3244 74.78 82.7119 75.3597C82.714 75.363 82.7165 75.3662 82.7188 75.3696C83.1351 75.9966 83.3711 76.747 83.3711 77.5394V77.5404V82.0645H75.769V77.5404V77.5394C75.769 76.7487 76.0038 75.9987 76.4209 75.3707C76.4266 75.3624 76.4319 75.3538 76.4372 75.3452C76.7843 74.8315 77.2541 74.4008 77.8211 74.1009C77.8321 74.0951 77.8423 74.0882 77.8529 74.0819C78.3376 74.2501 78.8514 74.3399 79.3801 74.3419ZM100.559 102.617L102.861 103.116C103.28 103.206 103.628 103.475 103.837 103.834H99.4649C98.7968 103.834 98.2533 103.279 98.2533 102.597C98.2533 102.359 98.1468 102.135 97.9643 101.988L97.2463 101.408L97.9181 100.592L100.245 102.467C100.337 102.541 100.445 102.593 100.559 102.617ZM63.2996 103.598L66.6694 102.479C66.983 102.375 67.1951 102.077 67.1951 101.741V101.359H68.169C68.1331 101.552 68.0801 101.785 68.0847 101.984L68.1093 102.985C68.0731 103.5 67.8032 103.783 67.2995 103.834H62.9084C63.0176 103.729 63.1501 103.648 63.2996 103.598ZM69.6323 102.947L69.6094 102.016L70.4731 95.4544C70.5506 94.838 71.0267 94.3502 71.6312 94.2682L79.4259 93.2109L95.7389 102.172L96.7576 102.995C96.8085 103.357 96.9289 103.698 97.1034 104.002H69.4204C69.5679 103.676 69.6414 103.317 69.6323 102.947Z" fill="#FF8E4F"/>
</g>
<defs>
<linearGradient id="paint0_linear_3112_2714" x1="82.7968" y1="0.206055" x2="82.7968" y2="163.815" gradientUnits="userSpaceOnUse">
<stop stop-color="#704514"/>
<stop offset="1" stop-color="#FFF8ED"/>
</linearGradient>
<clipPath id="clip0_3112_2714">
<rect width="52" height="53" fill="white" transform="translate(56.7969 55.5107)"/>
</clipPath>
</defs>
</svg>
