<svg width="164" height="164" viewBox="0 0 164 164" fill="none" xmlns="http://www.w3.org/2000/svg">
<circle opacity="0.1" cx="81.8984" cy="82.0107" r="81.8046" fill="url(#paint0_linear_3112_2716)"/>
<circle cx="81.8985" cy="82.0108" r="66.0938" fill="white"/>
<g clip-path="url(#clip0_3112_2716)">
<path d="M108.107 103.666H105.06C105.765 102.721 106.055 101.523 105.831 100.333C105.709 99.6913 105.445 99.1013 105.072 98.5935C105.741 98.4422 106.381 98.145 106.942 97.7043C107.26 97.4548 107.445 97.0824 107.452 96.6833C107.459 96.2838 107.285 95.9057 106.976 95.6461L99.6543 89.5027C99.1154 89.0502 98.7112 88.4627 98.4859 87.8028L96.7753 82.7895C96.7749 82.7879 96.7741 82.7863 96.7737 82.7847L95.2332 78.2716C94.5349 76.2252 92.8655 74.6175 90.7677 73.9709L85.463 72.3357C86.9033 71.3389 87.8467 69.6944 87.8467 67.8368V64.223C87.8467 61.1883 85.3311 58.7197 82.2396 58.7197C79.148 58.7197 76.6324 61.1883 76.6324 64.223V67.8372C76.6324 69.6091 77.491 71.1873 78.8205 72.1941C78.6829 72.2313 78.5457 72.2706 78.4089 72.3126L73.0292 73.9709C70.9313 74.6175 69.262 76.2252 68.5636 78.2716L65.3106 87.8028C65.0852 88.4627 64.6815 89.0506 64.1426 89.5027L56.8212 95.6465C56.5118 95.9061 56.3383 96.2838 56.3449 96.6833C56.3515 97.0828 56.5373 97.4548 56.855 97.7043C57.4416 98.1652 58.1144 98.4693 58.8156 98.6133C58.1535 99.809 58.0279 101.267 58.5383 102.589C58.6933 102.989 58.8972 103.349 59.1427 103.667H55.6895C55.2523 103.667 54.8984 104.014 54.8984 104.443C54.8984 104.872 55.2523 105.219 55.6895 105.219H103.033H103.034H103.035H108.107C108.545 105.219 108.898 104.872 108.898 104.443C108.898 104.014 108.544 103.666 108.107 103.666ZM90.1056 85.5549L92.8993 92.3777C92.915 92.4157 92.9335 92.4525 92.9549 92.4877C93.4493 93.2956 94.1534 93.9648 94.9918 94.4237L95.918 94.9304L90.1056 93.1884V85.5549ZM98.6259 90.683L105.736 96.6485C104.782 97.2736 103.555 97.329 102.539 96.7751L95.7622 93.0675C95.1826 92.7505 94.6927 92.2915 94.3425 91.7388L91.8525 85.6572L95.5455 84.075L96.9858 88.2957C97.3022 89.2225 97.8695 90.0478 98.6259 90.683ZM78.2144 67.8372V64.223C78.2144 62.0448 80.0202 60.2725 82.2396 60.2725C84.4589 60.2725 86.2647 62.0448 86.2647 64.223V67.8372C86.2647 70.0155 84.4589 71.7878 82.2396 71.7878C80.0202 71.7878 78.2144 70.0155 78.2144 67.8372ZM73.503 75.4521L78.8831 73.7942C80.8557 73.186 82.9412 73.186 84.9138 73.7942L90.2939 75.4521C91.9097 75.9502 93.1955 77.1884 93.7332 78.765L95.0412 82.5971L91.2621 84.2157L90.0484 81.2518C89.9071 80.9068 89.5367 80.7083 89.1642 80.7791C88.7922 80.8498 88.5236 81.1697 88.5236 81.5413V92.9866H75.2733V81.5413C75.2733 81.1697 75.0047 80.8498 74.6326 80.7791C74.2614 80.7083 73.8898 80.9068 73.7485 81.2518L72.6979 83.817L68.9649 81.9849L70.0637 78.765C70.6013 77.1884 71.8871 75.9502 73.503 75.4521ZM65.1705 90.683C65.9273 90.0478 66.4946 89.2225 66.8106 88.2957L68.4569 83.4717L72.1059 85.2626L71.5308 86.6669C71.368 87.0648 71.5646 87.5169 71.97 87.677C72.3749 87.8367 72.836 87.6439 72.9987 87.246L73.6912 85.5553V93.186L67.993 94.8681L68.8047 94.4237C69.6431 93.9652 70.3475 93.296 70.8419 92.4881C70.8634 92.4529 70.8819 92.4161 70.8976 92.3777L71.4888 90.9333C71.6519 90.5354 71.4554 90.0833 71.05 89.9236C70.6446 89.7635 70.184 89.9564 70.0208 90.3543L69.4539 91.7388C69.1038 92.2919 68.6143 92.7505 68.0347 93.0675L61.2583 96.7747C60.2419 97.329 59.015 97.2736 58.0613 96.6485L65.1705 90.683ZM62.4584 103.666H62.4555C61.3061 103.666 60.4178 103.073 60.0178 102.038C59.5654 100.867 59.8752 99.4867 60.768 98.6218L74.5984 94.5394H89.1968L102.327 98.4746C103.351 98.7815 104.08 99.5821 104.275 100.616C104.47 101.65 104.083 102.654 103.239 103.301L102.762 103.667H86.0574C85.9553 103.122 85.7089 102.398 85.1259 101.754L86.7018 101.669C87.1381 101.646 87.4722 101.279 87.4479 100.851C87.424 100.423 87.0508 100.096 86.6149 100.119L82.3277 100.351C82.1465 100.319 81.9574 100.293 81.7588 100.273L69.5586 99.0221C69.1211 98.9772 68.735 99.2873 68.6897 99.7135C68.6444 100.14 68.96 100.522 69.3942 100.566L81.5952 101.817C81.7798 101.836 81.9532 101.861 82.1156 101.892C82.1189 101.893 82.1226 101.893 82.1259 101.894C83.705 102.198 84.2604 103.041 84.4519 103.666H62.4584Z" fill="#FF8E4F"/>
<path d="M90.7593 101.448C90.7737 101.448 90.7886 101.448 90.8034 101.447L96.1382 101.158C96.5741 101.134 96.9082 100.768 96.8843 100.34C96.8604 99.9118 96.4868 99.5834 96.0509 99.6077L90.7165 99.8968C90.2802 99.9203 89.9461 100.287 89.97 100.714C89.9934 101.128 90.342 101.448 90.7593 101.448Z" fill="#FF8E4F"/>
</g>
<defs>
<linearGradient id="paint0_linear_3112_2716" x1="81.8984" y1="0.206055" x2="81.8984" y2="163.815" gradientUnits="userSpaceOnUse">
<stop stop-color="#704514"/>
<stop offset="1" stop-color="#FFF8ED"/>
</linearGradient>
<clipPath id="clip0_3112_2716">
<rect width="54" height="53" fill="white" transform="translate(54.8984 55.5107)"/>
</clipPath>
</defs>
</svg>
