<svg width="80" height="81" viewBox="0 0 80 81" fill="none" xmlns="http://www.w3.org/2000/svg">
<circle cx="40" cy="40.4434" r="40" fill="#704514"/>
<circle cx="40.0003" cy="40.4436" r="32.1038" fill="white"/>
<path d="M56.502 54.3355H54.5832C55.027 53.7293 55.2099 52.9604 55.0685 52.1973C54.992 51.7856 54.8257 51.4071 54.591 51.0813C55.0117 50.9843 55.4148 50.7937 55.7681 50.5109C55.9681 50.3509 56.0851 50.112 56.0892 49.8559C56.0934 49.5996 55.9842 49.3571 55.7894 49.1906L51.1796 45.2495C50.8403 44.9592 50.5858 44.5823 50.4439 44.159L49.3669 40.943C49.3667 40.9419 49.3661 40.9409 49.3659 40.9398L48.396 38.0447C47.9563 36.7319 46.9052 35.7005 45.5844 35.2857L42.2443 34.2367C43.1512 33.5973 43.7452 32.5423 43.7452 31.3506V29.0324C43.7452 27.0856 42.1613 25.502 40.2148 25.502C38.2682 25.502 36.6844 27.0856 36.6844 29.0324V31.3509C36.6844 32.4876 37.2249 33.5 38.062 34.1459C37.9754 34.1698 37.889 34.1949 37.8029 34.2219L34.4156 35.2857C33.0948 35.7005 32.0437 36.7319 31.604 38.0447L29.5558 44.159C29.4139 44.5823 29.1597 44.9595 28.8204 45.2495L24.2106 49.1908C24.0158 49.3574 23.9066 49.5996 23.9108 49.8559C23.9149 50.1122 24.0319 50.3509 24.2319 50.5109C24.6013 50.8066 25.0249 51.0017 25.4664 51.094C25.0495 51.8611 24.9704 52.7965 25.2918 53.6445C25.3893 53.901 25.5177 54.1321 25.6723 54.3358H23.498C23.2228 54.3358 23 54.5586 23 54.8338C23 55.1088 23.2228 55.3318 23.498 55.3318H53.3072H53.3077H53.3082H56.502C56.7772 55.3318 57 55.1088 57 54.8338C57 54.5586 56.7769 54.3355 56.502 54.3355ZM45.1675 42.717L46.9265 47.0938C46.9363 47.1182 46.948 47.1418 46.9615 47.1644C47.2728 47.6827 47.7161 48.112 48.244 48.4064L48.8271 48.7314L45.1675 47.6139V42.717ZM50.5321 46.0067L55.0086 49.8336C54.4083 50.2346 53.6356 50.2702 52.9962 49.9148L48.729 47.5364C48.3641 47.333 48.0556 47.0386 47.8352 46.684L46.2673 42.7826L48.5926 41.7676L49.4995 44.4752C49.6987 45.0697 50.0559 45.5992 50.5321 46.0067V46.0067ZM37.6805 31.3509V29.0324C37.6805 27.635 38.8174 26.498 40.2148 26.498C41.6122 26.498 42.7491 27.635 42.7491 29.0324V31.3509C42.7491 32.7483 41.6122 33.8852 40.2148 33.8852C38.8174 33.8852 37.6805 32.7483 37.6805 31.3509ZM34.714 36.2359L38.1015 35.1724C39.3435 34.7822 40.6565 34.7822 41.8985 35.1724L45.286 36.2359C46.3034 36.5555 47.113 37.3498 47.4515 38.3612L48.2751 40.8195L45.8956 41.8579L45.1314 39.9565C45.0425 39.7352 44.8093 39.6078 44.5748 39.6532C44.3405 39.6986 44.1714 39.9038 44.1714 40.1422V47.4845H35.8286V40.1422C35.8286 39.9038 35.6595 39.6986 35.4252 39.6532C35.1915 39.6078 34.9575 39.7352 34.8686 39.9565L34.2071 41.6021L31.8567 40.4268L32.5485 38.3612C32.887 37.3498 33.6966 36.5555 34.714 36.2359V36.2359ZM29.4676 46.0067C29.9441 45.5992 30.3013 45.0697 30.5003 44.4752L31.5368 41.3806L33.8343 42.5294L33.4722 43.4303C33.3698 43.6856 33.4935 43.9756 33.7487 44.0783C34.0037 44.1808 34.294 44.0571 34.3965 43.8018L34.8325 42.7173V47.6124L31.2448 48.6915L31.7558 48.4064C32.2836 48.1122 32.7272 47.6829 33.0385 47.1647C33.052 47.1421 33.0637 47.1185 33.0735 47.0938L33.4458 46.1673C33.5485 45.912 33.4247 45.622 33.1695 45.5195C32.9142 45.4168 32.6242 45.5406 32.5215 45.7958L32.1646 46.684C31.9441 47.0388 31.6359 47.333 31.271 47.5364L27.0043 49.9146C26.3644 50.2702 25.5919 50.2346 24.9914 49.8336L29.4676 46.0067ZM27.76 54.3355H27.7582C27.0344 54.3355 26.4752 53.955 26.2233 53.2912C25.9385 52.5399 26.1335 51.6543 26.6957 51.0995L35.4037 48.4806H44.5953L52.8623 51.0051C53.5074 51.202 53.9661 51.7156 54.089 52.3788C54.212 53.0421 53.9681 53.686 53.4364 54.101L53.1362 54.3358H42.6186C42.5543 53.9866 42.3992 53.5223 42.0321 53.1091L43.0243 53.0543C43.299 53.0393 43.5094 52.8043 43.4941 52.5296C43.4791 52.2551 43.244 52.045 42.9696 52.0598L40.2703 52.2089C40.1562 52.1884 40.0371 52.1713 39.9121 52.1586L32.2305 51.3563C31.955 51.3275 31.7119 51.5265 31.6834 51.7999C31.6549 52.0735 31.8536 52.3184 32.127 52.3469L39.8091 53.1493C39.9253 53.1612 40.0345 53.1775 40.1367 53.1973C40.1388 53.1978 40.1411 53.198 40.1432 53.1985C41.1375 53.3936 41.4871 53.9347 41.6078 54.3355H27.76Z" fill="#704514"/>
<path d="M45.5793 52.9123C45.5884 52.9123 45.5977 52.9123 45.6071 52.9118L48.966 52.7263C49.2405 52.711 49.4508 52.4762 49.4358 52.2015C49.4208 51.9268 49.1855 51.7162 48.911 51.7318L45.5523 51.9172C45.2776 51.9323 45.0673 52.1673 45.0823 52.4417C45.0971 52.7071 45.3165 52.9123 45.5793 52.9123V52.9123Z" fill="#704514"/>
</svg>
