<svg width="165" height="164" viewBox="0 0 165 164" fill="none" xmlns="http://www.w3.org/2000/svg">
<circle opacity="0.1" cx="82.6952" cy="82.0107" r="81.8046" fill="url(#paint0_linear_3112_2712)"/>
<circle cx="82.6954" cy="82.0108" r="66.0938" fill="white"/>
<g clip-path="url(#clip0_3112_2712)">
<path d="M108.367 106.34H100.88C100.58 105.116 99.6279 104.129 98.3616 103.813L96.5611 103.362L98.8369 92.3252C99.2736 90.2045 98.0702 88.045 95.9869 87.325C90.8952 85.558 92.6367 86.3403 87.9529 85.2707C89.5828 84.28 91.8279 82.8623 92.5286 82.1617C93.3492 81.3399 95.8467 78.839 95.8467 76.447C95.8467 75.7727 95.643 75.0297 95.2405 74.2318L108.315 61.1576C108.883 60.5898 109.195 59.8348 109.195 59.0318C109.195 56.3704 105.952 55.0174 104.063 56.906C103.74 57.2294 103.74 57.7537 104.063 58.077C104.387 58.4004 104.911 58.4004 105.234 58.077C106.083 57.2287 107.539 57.8368 107.539 59.0317C107.539 59.3923 107.399 59.7313 107.144 59.9864L91.9069 75.2233C91.3837 75.7464 91.7614 76.6369 92.4925 76.6369C92.9416 76.6369 93.0719 76.4005 93.9856 75.4868C94.1194 75.8421 94.1905 76.1667 94.1905 76.447C94.1905 77.5795 93.2371 79.1084 91.3526 80.9955C90.6821 81.6661 87.6363 83.552 85.6011 84.7479L82.7996 84.3978C82.3456 84.3405 81.932 84.6629 81.8753 85.1167C81.8186 85.5705 82.1405 85.9844 82.5943 86.0411L85.6269 86.4202C92.6697 88.1472 89.8984 86.9835 95.4578 88.8945C96.7319 89.3379 97.4873 90.6691 97.2152 91.9908L96.1621 97.0982H93.4521L93.8893 93.266C93.9419 92.8047 93.6046 92.3894 93.1414 92.3474C83.2584 91.4508 84.1849 92.5393 80.7936 91.3588C80.5713 91.2837 80.2338 91.1525 79.9972 91.03C77.9728 89.9821 77.5374 86.9474 78.1771 85.2413C78.9613 84.6863 79.7426 84.044 80.4998 83.3309C80.8328 83.0174 80.8486 82.4933 80.535 82.1603C80.2215 81.8274 79.6975 81.8117 79.3644 82.1251C78.5105 82.9292 77.4431 83.7555 77.3755 83.7711C77.167 83.8197 77.1091 83.8881 76.2851 84.4293C74.2262 85.7822 74.6256 85.5193 63.948 94.4943L57.481 98.809C56.3488 99.5643 55.9015 100.978 56.3933 102.247C57.7338 105.707 57.7319 105.811 58.1051 106.34H57.0265C56.5692 106.34 56.1984 106.71 56.1984 107.168C56.1984 107.625 56.5692 107.996 57.0265 107.996H108.367C108.825 107.996 109.195 107.625 109.195 107.168C109.195 106.71 108.825 106.34 108.367 106.34ZM76.2542 86.4439C76.1212 88.5382 76.9156 90.8841 78.6466 92.1355C75.5673 93.5683 71.4354 95.2125 66.3671 97.8264L65.431 95.4112C73.6352 88.5139 75.0064 87.3182 76.2542 86.4439ZM58.4001 100.187L64.0459 96.42L64.9117 98.6541L61.0682 101.102C60.7862 101.282 60.6399 101.613 60.6972 101.942L61.4612 106.333C60.5001 106.402 59.5633 105.844 59.1974 104.9L57.9376 101.649C57.7284 101.109 57.9186 100.508 58.4001 100.187ZM62.4234 102.202C66.1887 99.8044 66.752 99.2004 76.1413 95.0713C77.8342 94.3268 79.311 93.6763 80.5946 93.0365C83.9945 94.1162 83.7521 93.2048 92.1474 93.9223C90.9422 104.485 91.2424 102.429 90.7459 104.415C90.5821 105.07 90.6516 105.745 90.9327 106.339H63.1434L62.4234 102.202ZM93.5415 106.34C92.7447 106.34 92.159 105.591 92.3526 104.817C92.8834 102.694 92.6526 104.103 93.2629 98.7544H95.8203L94.7788 103.806C94.6891 104.24 94.9582 104.669 95.3889 104.776L97.9598 105.419C98.476 105.548 98.8922 105.891 99.124 106.34H93.5415Z" fill="#FF8E4F"/>
<path d="M84.9699 64.3892C85.0874 66.0165 85.7545 67.5241 86.8646 68.7215C86.1227 71.7625 84.9769 74.5633 83.4541 77.0515C83.2153 77.4417 83.338 77.9513 83.7281 78.1901C84.1205 78.4304 84.6294 78.3038 84.8667 77.9162C86.3457 75.4995 87.4885 72.8102 88.2714 69.9064C88.6863 70.1756 89.1257 70.4016 89.5811 70.5814L90.0428 70.9273L88.8266 72.1435C88.3033 72.6667 88.681 73.5572 89.4121 73.5572C89.624 73.5572 89.836 73.4763 89.9977 73.3146C98.6023 64.71 83.2672 80.0451 100.614 62.6986C102.175 61.1376 103.034 59.0621 103.034 56.8544C103.034 56.3971 102.664 56.0264 102.206 56.0264C101.749 56.0264 101.378 56.3971 101.378 56.8544C101.378 58.6197 100.691 60.2794 99.4427 61.5276L95.8468 65.1235C95.8468 63.2004 95.9883 62.1031 95.1483 60.624C93.7246 58.115 90.5014 57.1911 87.8997 58.5C86.6538 56.3705 83.4099 56.6615 82.5869 58.9915L82.0315 60.5693C81.3485 62.5016 82.8781 64.5064 84.9699 64.3892ZM93.4422 61.0416C92.6638 62.1272 91.4065 62.7642 90.0607 62.7824C88.852 62.7993 88.9335 64.4406 90.0014 64.4406C91.5544 64.4406 93.0562 63.8347 94.1578 62.7479C94.2019 63.0704 94.1904 62.8652 94.1904 66.7795L91.5669 69.403C90.487 69.2558 89.5098 68.8203 88.722 68.1927L89.4189 66.4631C89.6058 65.9994 89.3424 65.4628 88.8339 65.347C88.4442 65.258 88.0366 65.4616 87.8826 65.8441L87.4839 66.8337C86.9148 65.956 86.6051 64.9413 86.6051 63.869C86.6051 63.7636 86.5934 63.7921 86.6636 63.7351C87.1046 63.3779 87.407 62.918 87.5708 62.4563C88.1258 60.881 88.2361 60.6449 88.2775 60.1893C89.9377 59.1082 92.2175 59.4482 93.4422 61.0416ZM83.5931 61.12L84.1486 59.5421C84.3292 59.0309 84.8247 58.71 85.3562 58.71C86.2256 58.71 86.8461 59.5295 86.5644 60.3285C86.0248 61.8603 85.9892 62.2582 85.4594 62.5614C84.4009 63.1586 83.2229 62.1685 83.5931 61.12Z" fill="#FF8E4F"/>
<path d="M81.6645 80.938C82.0202 81.2239 82.5445 81.165 82.8316 80.8078C82.8737 80.7554 82.9159 80.7029 82.958 80.6495C83.2412 80.2904 83.1797 79.7698 82.8206 79.4866C82.4616 79.2033 81.9408 79.2648 81.6577 79.624C81.6188 79.6733 81.5799 79.7217 81.5351 79.7774C81.2485 80.1338 81.3082 80.6514 81.6645 80.938Z" fill="#FF8E4F"/>
</g>
<defs>
<linearGradient id="paint0_linear_3112_2712" x1="82.6952" y1="0.206055" x2="82.6952" y2="163.815" gradientUnits="userSpaceOnUse">
<stop stop-color="#704514"/>
<stop offset="1" stop-color="#FFF8ED"/>
</linearGradient>
<clipPath id="clip0_3112_2712">
<rect width="53" height="53" fill="white" transform="translate(56.1953 55.5107)"/>
</clipPath>
</defs>
</svg>
