<svg width="164" height="164" viewBox="0 0 164 164" fill="none" xmlns="http://www.w3.org/2000/svg">
<circle opacity="0.1" cx="81.9999" cy="82.0107" r="81.8046" fill="url(#paint0_linear_3112_2718)"/>
<circle cx="82.0001" cy="82.0108" r="66.0938" fill="white"/>
<g clip-path="url(#clip0_3112_2718)">
<path d="M107.664 106.855H100.918C104.087 103.865 103.108 98.6964 99.2371 96.9754C99.1586 96.9405 99.7679 97.1229 89.9657 94.2565C89.968 93.1784 89.9766 92.2419 89.9916 91.4236H95.9578C99.3397 91.4236 101.145 87.5043 99.0807 84.9273L97.5067 82.9591C97.2212 82.6021 96.7002 82.544 96.3431 82.8296C95.986 83.1152 95.928 83.6362 96.2136 83.9933L97.7881 85.9622C98.9973 87.4712 97.9383 89.7679 95.9578 89.7679C82.3056 89.7679 83.2544 89.8421 83.0047 89.5946C82.7522 89.3399 82.8278 89.804 82.8278 81.57C84.0724 82.2083 84.481 84.9358 84.4836 86.3137C84.4836 86.7709 84.8542 87.1415 85.3114 87.1415H92.6049C93.2935 87.1415 93.6824 86.3455 93.256 85.8024L89.2741 80.7309C88.9919 80.3714 88.4716 80.3084 88.1118 80.5908C87.7521 80.8731 87.6895 81.3935 87.9717 81.7531L89.2029 83.3214C89.0124 84.0358 88.8587 84.7067 88.735 85.4858H86.1035C85.8856 82.667 84.7873 79.6196 82 79.7749C79.2118 79.62 78.1149 82.6619 77.8966 85.4858H75.2651C75.1413 84.7067 74.9876 84.0359 74.7971 83.3214L76.0284 81.7531C76.3107 81.3934 76.248 80.8731 75.8883 80.5908C75.5284 80.3084 75.008 80.3712 74.7259 80.7309L70.744 85.8024C70.3188 86.344 70.7048 87.1415 71.3951 87.1415H78.6886C79.1452 87.1415 79.5157 86.7711 79.5165 86.3144C79.5191 84.9262 79.9302 82.207 81.1722 81.57C81.1722 89.7934 81.246 89.3418 81 89.59C80.7437 89.8442 81.7549 89.7679 68.0423 89.7679C66.0631 89.7679 65.0018 87.4723 66.2125 85.9615L72.926 77.5664C74.6159 76.3595 76.6049 75.7223 78.6834 75.7223C85.4168 75.7223 87.8775 75.2989 91.0392 77.5218L91.983 78.703C92.2684 79.0604 92.7895 79.1185 93.1464 78.833C93.5037 78.5476 93.5619 78.0267 93.2765 77.6694C92.1971 76.3185 92.2276 76.3363 92.0972 76.2425C90.2664 74.9244 88.095 74.1757 85.8477 74.0783C86.5333 73.3287 86.7156 72.7192 87.4076 71.1495C88.1344 69.494 88.5372 67.6854 88.5372 65.8112C88.5372 63.8731 87.5335 62.003 85.6828 60.8375C85.6828 59.1316 85.8717 57.8599 84.604 56.5873C82.3011 54.2937 78.3169 55.8993 78.3169 59.1939V60.8375C76.5944 61.9223 75.4625 63.7267 75.4625 65.8112C75.4625 67.6462 75.8426 69.4422 76.5927 71.1506C77.3401 72.8462 77.4994 73.3651 78.1534 74.0795C75.7884 74.1859 73.6004 75.009 71.8564 76.2965C71.7216 76.3963 72.154 75.8802 64.9197 84.9267C62.8115 87.5579 64.7237 91.4236 68.0421 91.4236H74.0083C74.0233 92.2419 74.0318 93.1784 74.0342 94.2565C64.2171 97.1273 64.8415 96.9405 64.7632 96.9751C60.8817 98.6977 59.9224 103.875 63.086 106.855H56.3362C55.879 106.855 55.5083 107.226 55.5083 107.683C55.5083 108.14 55.879 108.511 56.3362 108.511H107.664C108.121 108.511 108.492 108.14 108.492 107.683C108.492 107.226 108.121 106.855 107.664 106.855ZM90.5078 84.9835L90.9022 85.4858H90.413C90.4428 85.3141 90.4744 85.1473 90.5078 84.9835ZM73.492 84.9835C73.5255 85.1473 73.557 85.3142 73.5868 85.4858H73.0976L73.492 84.9835ZM79.9727 59.1939C79.9727 57.3962 82.1597 56.4898 83.4333 57.7582C84.1288 58.4565 84.0271 59.1711 84.0271 60.0881C82.711 59.6947 81.291 59.6941 79.9726 60.0881V59.1939H79.9727ZM78.5191 62.7532C80.9908 60.5064 85.2313 61.2793 86.5342 64.192C84.2843 63.7295 82.8653 64.643 81.6866 65.4031C80.3223 66.2833 79.3145 66.9324 77.1188 65.8396C77.1187 64.6082 77.649 63.5441 78.5191 62.7532ZM77.2767 67.7073C79.4883 68.5087 80.8587 67.9075 82.584 66.7945C83.8031 66.0081 84.8689 65.3223 86.8791 65.9979C86.8349 68.6951 85.9216 70.4157 85.1567 72.1508C84.0368 74.6974 79.962 74.6948 78.8429 72.1502C78.0767 70.4122 77.563 69.4153 77.2767 67.7073ZM75.3459 104.358C74.3346 104.864 73.14 105.282 72.7186 106.838H71.4089V103.374L75.3459 104.358ZM74.5158 106.838C74.8059 106.408 74.8228 106.471 78.0881 104.838C78.106 104.829 78.1458 104.807 78.1736 104.789C79.7273 103.753 79.9452 103.498 80.743 103.498C81.5655 103.498 82.2926 104.023 82.552 104.803L82.6417 105.073C82.7783 105.483 83.2082 105.719 83.6281 105.615L92.5909 103.374V106.839H74.5158V106.838ZM62.8453 102.476C62.8453 100.755 63.8536 99.213 65.3867 98.5103L74.9813 95.7047H83.9744C84.4316 95.7047 84.8023 95.334 84.8023 94.8768C84.8023 94.4196 84.4316 94.0489 83.9744 94.0489H75.6894C75.6866 93.0599 75.6782 92.1917 75.6642 91.4236H80.5728C81.0961 91.4236 81.5937 91.2453 81.9995 90.9144C82.4027 91.2441 82.9019 91.4236 83.4269 91.4236H88.3354C88.3149 92.5604 88.3094 93.7438 88.3094 94.8809C88.3102 95.0418 88.358 95.2029 88.4517 95.3412C88.6923 95.6965 88.0792 95.43 98.6128 98.5103C101.365 99.774 102.028 103.409 99.8769 105.561C99.0529 106.385 97.9573 106.839 96.7917 106.839H94.2466V102.96L95.0468 102.76C95.4903 102.649 95.7601 102.2 95.6491 101.756C95.5383 101.313 95.0895 101.043 94.6452 101.154L83.9385 103.83C82.9542 101.827 80.4501 101.281 78.6966 102.45L77.5631 103.206L69.3543 101.154C68.911 101.043 68.4613 101.313 68.3504 101.756C68.2395 102.2 68.5092 102.649 68.9527 102.76L69.753 102.96V106.839H67.208C64.8023 106.838 62.8453 104.881 62.8453 102.476Z" fill="#FF8E4F"/>
<path d="M94.18 81.4501C94.4667 81.8072 94.9876 81.8632 95.3439 81.5774C95.7004 81.2912 95.7573 80.7701 95.4711 80.4135L95.3406 80.251C95.0544 79.8944 94.5334 79.8375 94.1767 80.1238C93.8202 80.41 93.7633 80.931 94.0495 81.2876L94.18 81.4501Z" fill="#FF8E4F"/>
</g>
<defs>
<linearGradient id="paint0_linear_3112_2718" x1="81.9999" y1="0.206055" x2="81.9999" y2="163.815" gradientUnits="userSpaceOnUse">
<stop stop-color="#704514"/>
<stop offset="1" stop-color="#FFF8ED"/>
</linearGradient>
<clipPath id="clip0_3112_2718">
<rect width="53" height="53" fill="white" transform="translate(55.5 55.5107)"/>
</clipPath>
</defs>
</svg>
