<svg width="90" height="90" viewBox="0 0 90 90" fill="none" xmlns="http://www.w3.org/2000/svg">
<circle cx="44.6954" cy="44.8644" r="44.6954" fill="#FFF7EC"/>
<g clip-path="url(#clip0_1325_2673)">
<path d="M60.6929 58.6793L59.0929 41.6186C59.076 41.4387 58.9692 41.2793 58.809 41.1957L52.6757 37.9905C52.6643 37.9845 52.6512 37.9858 52.6395 37.9807C52.6045 37.9656 52.5674 37.9585 52.529 37.951C52.492 37.9438 52.457 37.9353 52.4195 37.936C52.411 37.9361 52.4038 37.9322 52.3952 37.9327C52.365 37.9345 52.3396 37.9485 52.311 37.9552C52.282 37.9619 52.2518 37.959 52.2239 37.9707L50.3252 38.76C50.0531 38.873 49.9245 39.1852 50.0375 39.4571C50.1507 39.7295 50.4625 39.8582 50.7346 39.7448L51.9429 39.2426L52.9385 55.159L45.2286 57.967V46.8938C45.2286 46.5993 44.9898 46.3605 44.6953 46.3605C44.4007 46.3605 44.162 46.5993 44.162 46.8938V57.967L36.4521 55.159L37.4477 39.2426L38.656 39.7448C38.9283 39.8581 39.2403 39.7295 39.3531 39.4571C39.4661 39.1852 39.3375 38.873 39.0653 38.76L37.1667 37.9707C37.1389 37.9592 37.1088 37.962 37.0799 37.9553C37.0512 37.9487 37.0257 37.9346 36.9953 37.9327C36.9868 37.9322 36.9795 37.9362 36.9711 37.9361C36.9323 37.9354 36.8962 37.9443 36.858 37.9521C36.8223 37.9594 36.7876 37.9658 36.7548 37.9798C36.7419 37.9853 36.7274 37.984 36.7148 37.9905L30.5815 41.1957C30.4214 41.2793 30.3146 41.4387 30.2977 41.6186L28.6977 58.6793C28.6797 58.8707 28.7662 59.0569 28.924 59.1668C29.0813 59.2764 29.287 59.2931 29.4597 59.2098L35.924 56.102L44.5128 59.2301C44.6305 59.2733 44.7602 59.2733 44.8779 59.2301L53.4667 56.102L59.931 59.2098C60.0042 59.2449 60.0834 59.2624 60.162 59.2624C60.269 59.2624 60.3759 59.2301 60.4667 59.1668C60.6244 59.0568 60.7109 58.8707 60.6929 58.6793ZM35.382 55.1787L29.8475 57.8397L31.3324 42.0068L36.3706 39.3738L35.382 55.1787ZM54.0084 55.1787L53.0198 39.3738L58.058 42.0068L59.5429 57.8397L54.0084 55.1787Z" fill="#AF7B40"/>
<path fill-rule="evenodd" clip-rule="evenodd" d="M44.237 45.1372L39.9959 38.0294C39.7798 37.6288 39.6428 37.3067 39.5538 36.995C39.4264 36.5492 39.3618 36.0864 39.3618 35.6197C39.3618 34.9215 39.5038 34.2442 39.7839 33.6062C40.0537 32.9916 40.4399 32.44 40.9313 31.9671C41.4206 31.4955 41.9909 31.1252 42.6256 30.8666C43.9381 30.3322 45.4521 30.3322 46.7646 30.8666C47.3993 31.1252 47.9696 31.4955 48.4592 31.9671C48.9503 32.44 49.3365 32.9916 49.6063 33.6059C49.8865 34.2442 50.0284 34.9215 50.0284 35.6197C50.0284 36.0864 49.9638 36.5492 49.8365 36.9947C49.7474 37.3067 49.6104 37.6289 49.4058 38.009L45.1531 45.1372C45.0568 45.2986 44.8828 45.3973 44.6951 45.3973C44.5073 45.3973 44.3334 45.2986 44.237 45.1372ZM47.3625 35.7979C47.3625 37.2683 46.1661 38.4646 44.6958 38.4646C43.2255 38.4646 42.0291 37.2683 42.0291 35.7979C42.0291 34.3276 43.2255 33.1313 44.6958 33.1313C46.1661 33.1313 47.3625 34.3276 47.3625 35.7979ZM46.2958 35.7979C46.2958 34.9156 45.5781 34.1979 44.6958 34.1979C43.8135 34.1979 43.0958 34.9156 43.0958 35.7979C43.0958 36.6803 43.8135 37.3979 44.6958 37.3979C45.5781 37.3979 46.2958 36.6803 46.2958 35.7979Z" fill="#AF7B40"/>
</g>
<defs>
<clipPath id="clip0_1325_2673">
<rect width="32" height="32" fill="white" transform="translate(28.6953 28.8643)"/>
</clipPath>
</defs>
</svg>
