<svg width="20" height="17" viewBox="0 0 20 17" fill="none" xmlns="http://www.w3.org/2000/svg">
<path d="M16.6627 0.625977C17.4659 0.625977 18.2362 0.945045 18.8042 1.51299C19.3721 2.08094 19.6912 2.85124 19.6912 3.65443V13.3455C19.6912 14.1487 19.3721 14.919 18.8042 15.4869C18.2362 16.0549 17.4659 16.3739 16.6627 16.3739H3.33754C2.53434 16.3739 1.76404 16.0549 1.1961 15.4869C0.62815 14.919 0.309082 14.1487 0.309082 13.3455V3.65443C0.309082 2.85124 0.62815 2.08094 1.1961 1.51299C1.76404 0.945045 2.53434 0.625977 3.33754 0.625977H16.6627ZM18.4798 5.42426L10.3078 10.2334C10.2306 10.2788 10.1442 10.3065 10.055 10.3144C9.96574 10.3224 9.87585 10.3105 9.79178 10.2795L9.69245 10.2334L1.52046 5.42668V13.3455C1.52046 13.8274 1.71191 14.2896 2.05267 14.6304C2.39344 14.9711 2.85562 15.1626 3.33754 15.1626H16.6627C17.1447 15.1626 17.6068 14.9711 17.9476 14.6304C18.2884 14.2896 18.4798 13.8274 18.4798 13.3455V5.42426ZM16.6627 1.83736H3.33754C2.85562 1.83736 2.39344 2.0288 2.05267 2.36957C1.71191 2.71033 1.52046 3.17251 1.52046 3.65443V4.02027L10.0001 9.00874L18.4798 4.01785V3.65443C18.4798 3.17251 18.2884 2.71033 17.9476 2.36957C17.6068 2.0288 17.1447 1.83736 16.6627 1.83736V1.83736Z" fill="#AF7B40"/>
</svg>
