<svg width="90" height="91" viewBox="0 0 90 91" fill="none" xmlns="http://www.w3.org/2000/svg">
<circle cx="44.6954" cy="45.4737" r="44.6954" fill="#FFF7EC"/>
<g clip-path="url(#clip0_1325_2663)">
<path d="M60.0283 45.4738C59.6601 45.4738 59.3616 45.7723 59.3616 46.1405V58.1404C59.3616 59.245 58.4662 60.1404 57.3617 60.1404H32.0286C30.924 60.1404 30.0286 59.245 30.0286 58.1404V40.7045L41.2218 48.0071L34.2219 55.0071C33.9571 55.2629 33.9498 55.6849 34.2055 55.9497C34.4613 56.2146 34.8833 56.2219 35.1482 55.9661C35.1537 55.9607 35.1592 55.9553 35.1646 55.9497L42.3618 48.7491L44.3298 50.0324C44.5938 50.2044 44.9423 50.168 45.1651 49.9451L47.1651 47.9451C47.4208 47.6803 47.4135 47.2583 47.1487 47.0024C46.8903 46.7529 46.4808 46.7529 46.2225 47.0024L44.6052 48.6197L30.4146 39.3639L32.6953 37.0832V38.8072C32.6953 39.1754 32.9938 39.4739 33.362 39.4739C33.7301 39.4739 34.0286 39.1754 34.0286 38.8072V30.8073H44.6952C45.0634 30.8073 45.3619 30.5088 45.3619 30.1406C45.3619 29.7724 45.0634 29.4739 44.6952 29.4739H34.0286C33.3075 29.4587 32.7105 30.0309 32.6952 30.752C32.6948 30.7705 32.6948 30.7889 32.6952 30.8073V35.1979L28.8906 39.0025C28.7656 39.1275 28.6953 39.2971 28.6953 39.4738V58.1403C28.6975 59.9804 30.1886 61.4714 32.0286 61.4736H57.3617C59.2017 61.4714 60.6928 59.9803 60.6949 58.1403V46.1405C60.6949 45.7723 60.3965 45.4738 60.0283 45.4738Z" fill="#AF7B40"/>
<path fill-rule="evenodd" clip-rule="evenodd" d="M60.695 38.1402C60.695 42.9266 56.8148 46.8068 52.0284 46.8068C47.2443 46.8013 43.3673 42.9243 43.3618 38.1402C43.3618 33.3538 47.242 29.4736 52.0284 29.4736C56.8148 29.4736 60.695 33.3537 60.695 38.1402ZM51.3619 36.7184L50.3986 37.3611C50.0922 37.5654 49.6783 37.4827 49.4739 37.1765C49.2696 36.8701 49.3523 36.4561 49.6586 36.2518L51.6586 34.9185C51.7682 34.8454 51.897 34.8064 52.0287 34.8064C52.3969 34.8064 52.6953 35.1049 52.6953 35.4731V41.473C52.6953 41.8412 52.3968 42.1397 52.0286 42.1397C51.6604 42.1397 51.3619 41.8412 51.3619 41.473V36.7184Z" fill="#AF7B40"/>
</g>
<defs>
<clipPath id="clip0_1325_2663">
<rect width="32" height="32" fill="white" transform="translate(28.6953 29.4736)"/>
</clipPath>
</defs>
</svg>
