<svg width="20" height="20" viewBox="0 0 20 20" fill="none" xmlns="http://www.w3.org/2000/svg">
<path d="M11.8335 1.66699H9.8335C9.55717 1.66699 9.3335 1.89066 9.3335 2.16699C9.3335 2.44332 9.55717 2.66699 9.8335 2.66699H11.8335C12.1098 2.66699 12.3335 2.44332 12.3335 2.16699C12.3335 1.89066 12.1098 1.66699 11.8335 1.66699Z" fill="#AF7B40"/>
<path d="M14 0H6C4.89734 0 4 0.897344 4 2V18C4 19.1027 4.89734 20 6 20H14C15.1027 20 16 19.1027 16 18V2C16 0.897344 15.1027 0 14 0ZM15 18C15 18.5523 14.5523 19 14 19H6C5.44766 19 5 18.5523 5 18V2C5 1.44766 5.44766 1 6 1H14C14.5523 1 15 1.44766 15 2V18Z" fill="#AF7B40"/>
<path d="M10 18.333C10.5523 18.333 11 17.8853 11 17.333C11 16.7807 10.5523 16.333 10 16.333C9.44772 16.333 9 16.7807 9 17.333C9 17.8853 9.44772 18.333 10 18.333Z" fill="#AF7B40"/>
<path d="M8.1665 2.66699C8.44265 2.66699 8.6665 2.44313 8.6665 2.16699C8.6665 1.89085 8.44265 1.66699 8.1665 1.66699C7.89036 1.66699 7.6665 1.89085 7.6665 2.16699C7.6665 2.44313 7.89036 2.66699 8.1665 2.66699Z" fill="#AF7B40"/>
</svg>
