<svg width="90" height="90" viewBox="0 0 90 90" fill="none" xmlns="http://www.w3.org/2000/svg">
<circle cx="44.6954" cy="45.0831" r="44.6954" fill="#FFF7EC"/>
<path d="M51.1709 49.3597C51.5356 49.5111 51.8668 49.733 52.1455 50.0127L54.9655 52.8427C55.2461 53.1174 55.4686 53.4458 55.6198 53.8083C55.7709 54.1708 55.8477 54.5599 55.8455 54.9527C55.8464 55.3482 55.7692 55.74 55.6182 56.1055C55.4671 56.4711 55.2453 56.8032 54.9655 57.0827L53.6155 58.4427C53.0265 58.9958 52.3331 59.4257 51.5758 59.7073C50.8186 59.9889 50.0127 60.1166 49.2055 60.0827C48.9257 60.0976 48.6453 60.0976 48.3655 60.0827C44.6155 59.7227 40.0555 57.2727 36.2655 53.4727C32.4755 49.6727 30.0155 45.1627 29.6955 41.4127C29.5592 40.4706 29.6358 39.5101 29.9196 38.6015C30.2034 37.693 30.6872 36.8596 31.3355 36.1627L32.6955 34.8127C32.975 34.5328 33.3071 34.311 33.6726 34.16C34.0382 34.0089 34.43 33.9317 34.8255 33.9327C35.2182 33.9304 35.6074 34.0072 35.9698 34.1584C36.3323 34.3096 36.6607 34.5321 36.9355 34.8127L39.7655 37.6327C40.0452 37.9114 40.2671 38.2426 40.4185 38.6072C40.5699 38.9719 40.6478 39.3628 40.6478 39.7577C40.6478 40.1525 40.5699 40.5435 40.4185 40.9081C40.2671 41.2728 40.0452 41.604 39.7655 41.8827L38.3155 43.3327C39.3548 44.963 40.5686 46.4753 41.9355 47.8427C43.3003 49.2124 44.8129 50.4265 46.4455 51.4627L47.8955 50.0127C48.1742 49.733 48.5054 49.5111 48.87 49.3597C49.2347 49.2082 49.6256 49.1303 50.0205 49.1303C50.4153 49.1303 50.8063 49.2082 51.1709 49.3597Z" fill="#AF7B40"/>
<path d="M55.2953 34.473C53.9056 33.078 52.2534 31.9719 50.4342 31.2184C48.6149 30.465 46.6644 30.0791 44.6953 30.083C44.4301 30.083 44.1757 30.1884 43.9882 30.3759C43.8007 30.5635 43.6953 30.8178 43.6953 31.083C43.6953 31.3483 43.8007 31.6026 43.9882 31.7901C44.1757 31.9777 44.4301 32.083 44.6953 32.083C46.4118 32.083 48.1113 32.4228 49.6957 33.083C51.2802 33.7432 52.7182 34.7106 53.9268 35.9295C55.1354 37.1483 56.0907 38.5944 56.7375 40.1844C57.3843 41.7743 57.7098 43.4766 57.6953 45.193C57.6953 45.4583 57.8007 45.7126 57.9882 45.9001C58.1757 46.0877 58.4301 46.193 58.6953 46.193C58.9605 46.193 59.2149 46.0877 59.4024 45.9001C59.59 45.7126 59.6953 45.4583 59.6953 45.193C59.7145 43.203 59.335 41.2292 58.5793 39.3881C57.8237 37.547 56.707 35.8758 55.2953 34.473V34.473Z" fill="#AF7B40"/>
<path d="M49.6055 40.1933C50.173 40.7574 50.622 41.4293 50.9259 42.1695C51.2299 42.9097 51.3828 43.7032 51.3755 44.5033C51.3755 44.7685 51.4808 45.0229 51.6684 45.2104C51.8559 45.398 52.1103 45.5033 52.3755 45.5033C52.6407 45.5033 52.8951 45.398 53.0826 45.2104C53.2701 45.0229 53.3755 44.7685 53.3755 44.5033C53.3887 43.4444 53.1916 42.3933 52.7955 41.4111C52.3994 40.429 51.8122 39.5352 51.068 38.7817C50.3238 38.0282 49.4374 37.43 48.4602 37.0217C47.483 36.6134 46.4345 36.4032 45.3755 36.4033C45.1103 36.4033 44.8559 36.5087 44.6684 36.6962C44.4808 36.8837 44.3755 37.1381 44.3755 37.4033C44.3755 37.6685 44.4808 37.9229 44.6684 38.1104C44.8559 38.298 45.1103 38.4033 45.3755 38.4033C46.1636 38.4093 46.9428 38.5704 47.6686 38.8775C48.3943 39.1847 49.0525 39.6318 49.6055 40.1933Z" fill="#AF7B40"/>
</svg>
