<svg width="68" height="13" viewBox="0 0 68 13" fill="none" xmlns="http://www.w3.org/2000/svg">
<path d="M10.6418 4.3961L7.6664 3.96368L6.33632 1.26719C6.29999 1.19336 6.24023 1.1336 6.1664 1.09727C5.98124 1.00586 5.75624 1.08204 5.66366 1.26719L4.33358 3.96368L1.35819 4.3961C1.27616 4.40782 1.20116 4.44649 1.14374 4.50508C1.07432 4.57643 1.03607 4.67243 1.03739 4.77197C1.0387 4.87151 1.07949 4.96645 1.15077 5.03594L3.30351 7.13477L2.79491 10.0984C2.78299 10.1674 2.79062 10.2383 2.81694 10.3031C2.84325 10.3679 2.88721 10.4241 2.94382 10.4652C3.00043 10.5063 3.06743 10.5308 3.13722 10.5357C3.20701 10.5407 3.27679 10.526 3.33866 10.4934L5.99999 9.09414L8.66132 10.4934C8.73398 10.532 8.81835 10.5449 8.89921 10.5309C9.10312 10.4957 9.24023 10.3023 9.20507 10.0984L8.69648 7.13477L10.8492 5.03594C10.9078 4.97852 10.9465 4.90352 10.9582 4.82149C10.9898 4.61641 10.8469 4.42657 10.6418 4.3961Z" fill="#AF7B40"/>
<path d="M24.6418 4.3961L21.6664 3.96368L20.3363 1.26719C20.3 1.19336 20.2402 1.1336 20.1664 1.09727C19.9812 1.00586 19.7562 1.08204 19.6637 1.26719L18.3336 3.96368L15.3582 4.3961C15.2762 4.40782 15.2012 4.44649 15.1437 4.50508C15.0743 4.57643 15.0361 4.67243 15.0374 4.77197C15.0387 4.87151 15.0795 4.96645 15.1508 5.03594L17.3035 7.13477L16.7949 10.0984C16.783 10.1674 16.7906 10.2383 16.8169 10.3031C16.8433 10.3679 16.8872 10.4241 16.9438 10.4652C17.0004 10.5063 17.0674 10.5308 17.1372 10.5357C17.207 10.5407 17.2768 10.526 17.3387 10.4934L20 9.09414L22.6613 10.4934C22.734 10.532 22.8184 10.5449 22.8992 10.5309C23.1031 10.4957 23.2402 10.3023 23.2051 10.0984L22.6965 7.13477L24.8492 5.03594C24.9078 4.97852 24.9465 4.90352 24.9582 4.82149C24.9898 4.61641 24.8469 4.42657 24.6418 4.3961Z" fill="#AF7B40"/>
<path d="M38.6418 4.3961L35.6664 3.96368L34.3363 1.26719C34.3 1.19336 34.2402 1.1336 34.1664 1.09727C33.9812 1.00586 33.7562 1.08204 33.6637 1.26719L32.3336 3.96368L29.3582 4.3961C29.2762 4.40782 29.2012 4.44649 29.1437 4.50508C29.0743 4.57643 29.0361 4.67243 29.0374 4.77197C29.0387 4.87151 29.0795 4.96645 29.1508 5.03594L31.3035 7.13477L30.7949 10.0984C30.783 10.1674 30.7906 10.2383 30.8169 10.3031C30.8433 10.3679 30.8872 10.4241 30.9438 10.4652C31.0004 10.5063 31.0674 10.5308 31.1372 10.5357C31.207 10.5407 31.2768 10.526 31.3387 10.4934L34 9.09414L36.6613 10.4934C36.734 10.532 36.8184 10.5449 36.8992 10.5309C37.1031 10.4957 37.2402 10.3023 37.2051 10.0984L36.6965 7.13477L38.8492 5.03594C38.9078 4.97852 38.9465 4.90352 38.9582 4.82149C38.9898 4.61641 38.8469 4.42657 38.6418 4.3961Z" fill="#AF7B40"/>
<path d="M52.6418 4.3961L49.6664 3.96368L48.3363 1.26719C48.3 1.19336 48.2402 1.1336 48.1664 1.09727C47.9812 1.00586 47.7562 1.08204 47.6637 1.26719L46.3336 3.96368L43.3582 4.3961C43.2762 4.40782 43.2012 4.44649 43.1437 4.50508C43.0743 4.57643 43.0361 4.67243 43.0374 4.77197C43.0387 4.87151 43.0795 4.96645 43.1508 5.03594L45.3035 7.13477L44.7949 10.0984C44.783 10.1674 44.7906 10.2383 44.8169 10.3031C44.8433 10.3679 44.8872 10.4241 44.9438 10.4652C45.0004 10.5063 45.0674 10.5308 45.1372 10.5357C45.207 10.5407 45.2768 10.526 45.3387 10.4934L48 9.09414L50.6613 10.4934C50.734 10.532 50.8184 10.5449 50.8992 10.5309C51.1031 10.4957 51.2402 10.3023 51.2051 10.0984L50.6965 7.13477L52.8492 5.03594C52.9078 4.97852 52.9465 4.90352 52.9582 4.82149C52.9898 4.61641 52.8469 4.42657 52.6418 4.3961ZM49.7906 6.83946L50.2137 9.30391L48 8.14141L45.7863 9.30508L46.2094 6.84063L44.4187 5.09454L46.8937 4.73477L48 2.49297L49.1062 4.73477L51.5812 5.09454L49.7906 6.83946Z" fill="#C6A57F"/>
<path d="M66.6418 4.3961L63.6664 3.96368L62.3363 1.26719C62.3 1.19336 62.2402 1.1336 62.1664 1.09727C61.9812 1.00586 61.7562 1.08204 61.6637 1.26719L60.3336 3.96368L57.3582 4.3961C57.2762 4.40782 57.2012 4.44649 57.1437 4.50508C57.0743 4.57643 57.0361 4.67243 57.0374 4.77197C57.0387 4.87151 57.0795 4.96645 57.1508 5.03594L59.3035 7.13477L58.7949 10.0984C58.783 10.1674 58.7906 10.2383 58.8169 10.3031C58.8433 10.3679 58.8872 10.4241 58.9438 10.4652C59.0004 10.5063 59.0674 10.5308 59.1372 10.5357C59.207 10.5407 59.2768 10.526 59.3387 10.4934L62 9.09414L64.6613 10.4934C64.734 10.532 64.8184 10.5449 64.8992 10.5309C65.1031 10.4957 65.2402 10.3023 65.2051 10.0984L64.6965 7.13477L66.8492 5.03594C66.9078 4.97852 66.9465 4.90352 66.9582 4.82149C66.9898 4.61641 66.8469 4.42657 66.6418 4.3961ZM63.7906 6.83946L64.2137 9.30391L62 8.14141L59.7863 9.30508L60.2094 6.84063L58.4187 5.09454L60.8937 4.73477L62 2.49297L63.1062 4.73477L65.5812 5.09454L63.7906 6.83946Z" fill="#C6A57F"/>
</svg>
