<svg width="68" height="12" viewBox="0 0 68 12" fill="none" xmlns="http://www.w3.org/2000/svg">
<g clip-path="url(#clip0_711_418)">
<path d="M11.0498 4.85644C11.0116 4.73906 10.9102 4.65352 10.7881 4.6358L7.35769 4.13731L5.82353 1.02885C5.76893 0.918191 5.65623 0.848145 5.53284 0.848145C5.40943 0.848145 5.29674 0.918191 5.24213 1.02885L3.7079 4.13731L0.277566 4.6358C0.155477 4.65352 0.0540068 4.73906 0.0158823 4.85642C-0.0222637 4.9738 0.00954987 5.10263 0.0979234 5.18876L2.58008 7.60836L1.9942 11.0249C1.97333 11.1466 2.02334 11.2695 2.12317 11.342C2.17964 11.383 2.24653 11.4039 2.31374 11.4039C2.36536 11.4039 2.41714 11.3916 2.46456 11.3667L5.53282 9.75355L8.60095 11.3666C8.7102 11.4241 8.84253 11.4145 8.94236 11.342C9.04219 11.2695 9.09222 11.1465 9.07137 11.0249L8.4853 7.60836L10.9677 5.18873C11.0561 5.10263 11.0879 4.9738 11.0498 4.85644Z" fill="#704514"/>
</g>
<g clip-path="url(#clip1_711_418)">
<path d="M39.1396 4.85644C39.1015 4.73906 39 4.65352 38.8779 4.6358L35.4475 4.13731L33.9134 1.02885C33.8588 0.918191 33.7461 0.848145 33.6227 0.848145C33.4993 0.848145 33.3866 0.918191 33.332 1.02885L31.7977 4.13731L28.3674 4.6358C28.2453 4.65352 28.1439 4.73906 28.1057 4.85642C28.0676 4.9738 28.0994 5.10263 28.1878 5.18876L30.6699 7.60836L30.084 11.0249C30.0632 11.1466 30.1132 11.2695 30.213 11.342C30.2695 11.383 30.3364 11.4039 30.4036 11.4039C30.4552 11.4039 30.507 11.3916 30.5544 11.3667L33.6227 9.75355L36.6908 11.3666C36.8 11.4241 36.9324 11.4145 37.0322 11.342C37.132 11.2695 37.1821 11.1465 37.1612 11.0249L36.5751 7.60836L39.0576 5.18873C39.1459 5.10263 39.1778 4.9738 39.1396 4.85644Z" fill="#704514"/>
</g>
<g clip-path="url(#clip2_711_418)">
<path d="M25.52 4.85644C25.4818 4.73906 25.3804 4.65352 25.2583 4.6358L21.8279 4.13731L20.2937 1.02885C20.2391 0.918191 20.1264 0.848145 20.0031 0.848145C19.8796 0.848145 19.767 0.918191 19.7123 1.02885L18.1781 4.13731L14.7478 4.6358C14.6257 4.65352 14.5242 4.73906 14.4861 4.85642C14.448 4.9738 14.4798 5.10263 14.5681 5.18876L17.0503 7.60836L16.4644 11.0249C16.4435 11.1466 16.4936 11.2695 16.5934 11.342C16.6499 11.383 16.7167 11.4039 16.784 11.4039C16.8356 11.4039 16.8874 11.3916 16.9348 11.3667L20.003 9.75355L23.0712 11.3666C23.1804 11.4241 23.3127 11.4145 23.4126 11.342C23.5124 11.2695 23.5624 11.1465 23.5416 11.0249L22.9555 7.60836L25.4379 5.18873C25.5263 5.10263 25.5581 4.9738 25.52 4.85644Z" fill="#704514"/>
</g>
<g clip-path="url(#clip3_711_418)">
<path d="M53.6098 4.85644C53.5717 4.73906 53.4703 4.65352 53.3482 4.6358L49.9177 4.13731L48.3836 1.02885C48.329 0.918191 48.2163 0.848145 48.0929 0.848145C47.9695 0.848145 47.8568 0.918191 47.8022 1.02885L46.268 4.13731L42.8376 4.6358C42.7155 4.65352 42.6141 4.73906 42.5759 4.85642C42.5378 4.9738 42.5696 5.10263 42.658 5.18876L45.1401 7.60836L44.5543 11.0249C44.5334 11.1466 44.5834 11.2695 44.6832 11.342C44.7397 11.383 44.8066 11.4039 44.8738 11.4039C44.9254 11.4039 44.9772 11.3916 45.0246 11.3667L48.0929 9.75355L51.161 11.3666C51.2703 11.4241 51.4026 11.4145 51.5024 11.342C51.6022 11.2695 51.6523 11.1465 51.6314 11.0249L51.0454 7.60836L53.5278 5.18873C53.6161 5.10263 53.648 4.9738 53.6098 4.85644Z" fill="#704514"/>
</g>
<g clip-path="url(#clip4_711_418)">
<path d="M67.229 4.85644C67.1908 4.73906 67.0894 4.65352 66.9673 4.6358L63.5369 4.13731L62.0027 1.02885C61.9481 0.918191 61.8354 0.848145 61.712 0.848145C61.5886 0.848145 61.4759 0.918191 61.4213 1.02885L59.8871 4.13731L56.4568 4.6358C56.3347 4.65352 56.2332 4.73906 56.1951 4.85642C56.1569 4.9738 56.1887 5.10263 56.2771 5.18876L58.7593 7.60836L58.1734 11.0249C58.1525 11.1466 58.2025 11.2695 58.3024 11.342C58.3588 11.383 58.4257 11.4039 58.4929 11.4039C58.5446 11.4039 58.5963 11.3916 58.6438 11.3667L61.712 9.75355L64.7801 11.3666C64.8894 11.4241 65.0217 11.4145 65.1216 11.342C65.2214 11.2695 65.2714 11.1465 65.2506 11.0249L64.6645 7.60836L67.1469 5.18873C67.2353 5.10263 67.2671 4.9738 67.229 4.85644Z" fill="#CEAC85"/>
</g>
<defs>
<clipPath id="clip0_711_418">
<rect width="11.0656" height="11.0656" fill="white" transform="translate(0 0.593262)"/>
</clipPath>
<clipPath id="clip1_711_418">
<rect width="11.0656" height="11.0656" fill="white" transform="translate(28.0898 0.593262)"/>
</clipPath>
<clipPath id="clip2_711_418">
<rect width="11.0656" height="11.0656" fill="white" transform="translate(14.4702 0.593262)"/>
</clipPath>
<clipPath id="clip3_711_418">
<rect width="11.0656" height="11.0656" fill="white" transform="translate(42.5601 0.593262)"/>
</clipPath>
<clipPath id="clip4_711_418">
<rect width="11.0656" height="11.0656" fill="white" transform="translate(56.1792 0.593262)"/>
</clipPath>
</defs>
</svg>
