<svg width="80" height="81" viewBox="0 0 80 81" fill="none" xmlns="http://www.w3.org/2000/svg">
<circle cx="40" cy="40.398" r="40" fill="#704514"/>
<circle cx="40.0003" cy="40.3977" r="32.1038" fill="white"/>
<g clip-path="url(#clip0_3387_2738)">
<path d="M56.4688 55.8667H52.1806C51.9941 55.2213 51.466 54.7046 50.7694 54.5357L49.8659 54.3163L51.0875 48.566C51.3403 47.3747 50.614 46.2055 49.4853 45.8373C46.4492 44.8147 47.8694 45.4062 44.2653 44.5576C43.8856 43.7338 44.2667 42.6493 44.606 41.6846C45.0884 40.3129 45.7384 38.8743 42.1893 36.3168C43.1439 36.189 43.8808 35.4079 43.8808 34.4657V32.0952C43.8808 30.6037 42.6742 29.342 41.0895 29.2194V25.525C41.0895 24.6318 40.3507 23.8979 39.4416 23.8979C37.8179 23.8979 37.292 26.0128 38.3252 26.0128C38.6186 26.0128 38.8565 25.782 38.8565 25.4972C38.8565 25.1737 39.1308 24.9235 39.4466 24.9292C39.7666 24.9316 40.027 25.1989 40.027 25.525V36.3341C40.027 36.79 40.5927 37.0189 40.9275 36.7044C42.1769 37.5627 43.9346 38.8157 43.9346 40.1272C43.9346 41.0736 42.307 43.4605 43.4546 45.2723C43.5154 45.3683 43.6097 45.4454 43.7207 45.4858C43.8113 45.5188 45.3354 45.8842 46.6196 46.0987C47.2827 46.2095 47.4842 46.2569 49.1443 46.814C49.7987 47.035 50.1868 47.6987 50.047 48.3577L49.4878 50.99H48.1713L48.3987 49.0554C48.4325 48.7682 48.216 48.5096 47.9189 48.4834C45.094 48.2347 44.2851 48.2808 42.7774 48.2808C42.2354 48.2808 41.2155 48.0042 40.8026 47.7967C39.8105 47.2982 39.5472 45.9144 39.791 45.0236C41.6815 45.2529 41.5467 45.2383 41.5945 45.2383C41.8586 45.2383 42.0874 45.0475 42.121 44.7866C42.1574 44.504 41.9508 44.2463 41.6598 44.2109L39.9308 44.0013C39.8953 43.6336 39.8388 43.0492 39.7727 42.3682C39.7451 42.0846 39.4858 41.8764 39.194 41.9031C38.9018 41.9299 38.6873 42.1813 38.7148 42.4648C38.7876 43.2148 38.8488 43.8473 38.883 44.2023C37.5418 45.0602 38.0859 44.6592 31.9935 49.63L28.4787 51.906C27.8313 52.3252 27.5755 53.1099 27.8568 53.8143C28.618 55.7214 28.5773 55.6494 28.7125 55.8667H23.5312C23.2379 55.8667 23 56.0976 23 56.3823C23 56.6671 23.2379 56.8979 23.5312 56.8979H56.4688C56.7621 56.8979 57 56.6671 57 56.3823C57 56.0976 56.7621 55.8667 56.4688 55.8667ZM42.8183 34.4657C42.8183 34.9281 42.4125 35.3042 41.9138 35.3042C41.6323 35.3042 41.3564 35.268 41.0895 35.1979C41.0895 32.5121 41.0712 32.7844 41.1322 32.7753C41.7757 32.6789 42.3584 32.4047 42.8162 32.0095C42.8192 32.0717 42.8183 31.9048 42.8183 34.4657ZM42.391 30.944C42.0866 31.3317 41.6349 31.6214 41.0994 31.7328C41.0845 31.7359 41.0895 31.8471 41.0895 30.2555C41.6155 30.3176 42.0762 30.5715 42.391 30.944ZM47.2812 49.4644C46.6455 54.8719 46.8093 53.8289 46.5306 54.9107C46.4474 55.2338 46.4698 55.5653 46.5884 55.8666H31.6703L31.2999 53.8003L33.3819 52.5133C36.6715 50.8337 39.2507 49.9001 41.0964 49.0102C42.9444 49.5724 42.7927 49.0967 47.2812 49.4644ZM38.644 45.6027C38.6222 46.6462 39.031 47.7744 39.8748 48.4334C38.2286 49.1703 36.0502 50.02 33.398 51.3428L32.9428 50.2027C37.1148 46.798 37.9967 46.059 38.644 45.6027ZM29.5323 55.1574L28.8474 53.4418C28.7475 53.1916 28.8384 52.9129 29.0683 52.764L32.054 50.8306L32.4643 51.858L30.4304 53.1152C30.2495 53.227 30.1556 53.4335 30.1924 53.6385L30.5918 55.8667C30.1538 55.8667 29.7119 55.6073 29.5323 55.1574ZM48.1292 55.8667C47.7487 55.8667 47.4689 55.5197 47.5614 55.1609C47.8504 54.0389 47.7274 54.7662 48.05 52.0214H49.2687L48.7225 54.5924C48.665 54.8631 48.8376 55.1297 49.1139 55.1967C50.5058 55.5346 50.7635 55.5279 51.0191 55.8667H48.1292Z" fill="#704514"/>
<path d="M37.7938 32.7905V36.334C37.7938 36.7306 37.9445 37.1076 38.2126 37.3983C38.2394 37.6538 38.2738 37.9938 38.3137 38.3894C38.3422 38.6719 38.6012 38.8801 38.8942 38.8523C39.1861 38.8246 39.3997 38.5724 39.3712 38.289C39.2469 37.0573 39.2712 36.9663 39.0971 36.7974C39.0399 36.742 38.8564 36.6141 38.8564 36.3341C38.8564 34.8392 38.8564 30.7615 38.8564 29.2962C38.8564 27.3439 38.9878 27.0364 37.5845 25.6745C37.377 25.4731 37.0407 25.4731 36.8332 25.6745C36.6257 25.8758 36.6257 26.2023 36.8332 26.4036C37.8617 27.4019 37.7939 27.4657 37.7939 28.7864C37.2169 28.8889 36.7159 29.2775 36.5138 29.8335C36.2264 30.6257 35.923 31.1631 36.2838 31.8817C36.5758 32.4634 37.1791 32.7896 37.7938 32.7905ZM37.2138 31.0087C37.5215 30.1605 37.5253 30.0051 37.7938 29.8636V31.7582C37.3746 31.7574 37.0799 31.3767 37.2138 31.0087Z" fill="#704514"/>
<path d="M38.9562 39.8845C38.6733 39.9313 38.4639 40.1936 38.5254 40.5013C38.5811 40.7798 38.8589 40.9636 39.1482 40.9093C39.4221 40.8576 39.6223 40.6043 39.5693 40.306C39.5199 40.0252 39.245 39.8363 38.9562 39.8845Z" fill="#704514"/>
</g>
<defs>
<clipPath id="clip0_3387_2738">
<rect width="34" height="33" fill="white" transform="translate(23 23.8979)"/>
</clipPath>
</defs>
</svg>
