<svg width="80" height="81" viewBox="0 0 80 81" fill="none" xmlns="http://www.w3.org/2000/svg">
<circle cx="40" cy="40.4205" r="40" fill="#704514"/>
<circle cx="40.0003" cy="40.4202" r="32.1038" fill="white"/>
<g clip-path="url(#clip0_3387_2730)">
<path d="M56.4688 55.8892H52.1806C51.9941 55.2438 51.466 54.7271 50.7694 54.5581L49.8659 54.3388L51.0875 48.5884C51.3403 47.3972 50.614 46.228 49.4853 45.8598C46.4492 44.8372 47.8694 45.4287 44.2653 44.5801C43.8856 43.7563 44.2667 42.6718 44.606 41.707C45.0884 40.3353 45.7384 38.8968 42.1893 36.3393C43.1439 36.2115 43.8808 35.4303 43.8808 34.4882V32.1176C43.8808 30.6261 42.6742 29.3644 41.0895 29.2419V25.5475C41.0895 24.6543 40.3507 23.9204 39.4416 23.9204C37.8179 23.9204 37.292 26.0353 38.3252 26.0353C38.6186 26.0353 38.8565 25.8044 38.8565 25.5197C38.8565 25.1962 39.1308 24.946 39.4466 24.9517C39.7666 24.9541 40.027 25.2214 40.027 25.5475V36.3566C40.027 36.8125 40.5927 37.0414 40.9275 36.7269C42.1769 37.5852 43.9346 38.8382 43.9346 40.1496C43.9346 41.0961 42.307 43.483 43.4546 45.2948C43.5154 45.3908 43.6097 45.4679 43.7207 45.5083C43.8113 45.5413 45.3354 45.9067 46.6196 46.1212C47.2827 46.232 47.4842 46.2793 49.1443 46.8365C49.7987 47.0575 50.1868 47.7212 50.047 48.3801L49.4878 51.0125H48.1713L48.3987 49.0778C48.4325 48.7906 48.216 48.532 47.9189 48.5059C45.094 48.2571 44.2851 48.3033 42.7774 48.3033C42.2354 48.3033 41.2155 48.0267 40.8026 47.8191C39.8105 47.3207 39.5472 45.9368 39.791 45.0461C41.6815 45.2754 41.5467 45.2608 41.5945 45.2608C41.8586 45.2608 42.0874 45.0699 42.121 44.809C42.1574 44.5265 41.9508 44.2688 41.6598 44.2334L39.9308 44.0237C39.8953 43.656 39.8388 43.0716 39.7727 42.3906C39.7451 42.1071 39.4858 41.8988 39.194 41.9256C38.9018 41.9523 38.6873 42.2038 38.7148 42.4873C38.7876 43.2373 38.8488 43.8697 38.883 44.2248C37.5418 45.0827 38.0859 44.6817 31.9935 49.6525L28.4787 51.9285C27.8313 52.3477 27.5755 53.1324 27.8568 53.8367C28.618 55.7439 28.5773 55.6718 28.7125 55.8892H23.5312C23.2379 55.8892 23 56.12 23 56.4048C23 56.6895 23.2379 56.9204 23.5312 56.9204H56.4688C56.7621 56.9204 57 56.6895 57 56.4048C57 56.12 56.7621 55.8892 56.4688 55.8892ZM42.8183 34.4881C42.8183 34.9505 42.4125 35.3267 41.9138 35.3267C41.6323 35.3267 41.3564 35.2905 41.0895 35.2203C41.0895 32.5346 41.0712 32.8069 41.1322 32.7977C41.7757 32.7013 42.3584 32.4271 42.8162 32.032C42.8192 32.0942 42.8183 31.9273 42.8183 34.4881ZM42.391 30.9665C42.0866 31.3542 41.6349 31.6439 41.0994 31.7553C41.0845 31.7584 41.0895 31.8696 41.0895 30.2779C41.6155 30.3401 42.0762 30.594 42.391 30.9665ZM47.2812 49.4868C46.6455 54.8944 46.8093 53.8513 46.5306 54.9331C46.4474 55.2562 46.4698 55.5877 46.5884 55.8891H31.6703L31.2999 53.8227L33.3819 52.5357C36.6715 50.8561 39.2507 49.9225 41.0964 49.0326C42.9444 49.5949 42.7927 49.1192 47.2812 49.4868ZM38.644 45.6252C38.6222 46.6686 39.031 47.7969 39.8748 48.4559C38.2286 49.1927 36.0502 50.0424 33.398 51.3653L32.9428 50.2251C37.1148 46.8204 37.9967 46.0815 38.644 45.6252ZM29.5323 55.1799L28.8474 53.4642C28.7475 53.2141 28.8384 52.9353 29.0683 52.7865L32.054 50.8531L32.4643 51.8804L30.4304 53.1377C30.2495 53.2495 30.1556 53.4559 30.1924 53.6609L30.5918 55.8892C30.1538 55.8892 29.7119 55.6297 29.5323 55.1799ZM48.1292 55.8892C47.7487 55.8892 47.4689 55.5422 47.5614 55.1833C47.8504 54.0613 47.7274 54.7887 48.05 52.0438H49.2687L48.7225 54.6149C48.665 54.8856 48.8376 55.1521 49.1139 55.2192C50.5058 55.5571 50.7635 55.5504 51.0191 55.8892H48.1292Z" fill="#704514"/>
<path d="M37.7938 32.813V36.3565C37.7938 36.7531 37.9445 37.1301 38.2126 37.4208C38.2394 37.6762 38.2738 38.0162 38.3137 38.4118C38.3422 38.6943 38.6012 38.9026 38.8942 38.8748C39.1861 38.847 39.3997 38.5948 39.3712 38.3114C39.2469 37.0797 39.2712 36.9887 39.0971 36.8198C39.0399 36.7644 38.8564 36.6366 38.8564 36.3566C38.8564 34.8617 38.8564 30.784 38.8564 29.3187C38.8564 27.3664 38.9878 27.0589 37.5845 25.6969C37.377 25.4956 37.0407 25.4956 36.8332 25.6969C36.6257 25.8983 36.6257 26.2247 36.8332 26.4261C37.8617 27.4243 37.7939 27.4882 37.7939 28.8089C37.2169 28.9113 36.7159 29.3 36.5138 29.8559C36.2264 30.6481 35.923 31.1856 36.2838 31.9041C36.5758 32.4858 37.1791 32.812 37.7938 32.813ZM37.2138 31.0311C37.5215 30.1829 37.5253 30.0276 37.7938 29.8861V31.7806C37.3746 31.7799 37.0799 31.3991 37.2138 31.0311Z" fill="#704514"/>
<path d="M38.9562 39.9069C38.6733 39.9538 38.4639 40.2161 38.5254 40.5238C38.5811 40.8022 38.8589 40.9861 39.1482 40.9317C39.4221 40.8801 39.6223 40.6267 39.5693 40.3284C39.5199 40.0477 39.245 39.8587 38.9562 39.9069Z" fill="#704514"/>
</g>
<defs>
<clipPath id="clip0_3387_2730">
<rect width="34" height="33" fill="white" transform="translate(23 23.9204)"/>
</clipPath>
</defs>
</svg>
