<svg width="80" height="81" viewBox="0 0 80 81" fill="none" xmlns="http://www.w3.org/2000/svg">
<circle cx="40" cy="40.398" r="40" fill="#704514"/>
<circle cx="40.0003" cy="40.3977" r="32.1038" fill="white"/>
<g clip-path="url(#clip0_3387_2732)">
<path d="M56.4636 56.3358H52.1362C54.1693 54.4175 53.5413 51.1019 51.0578 49.9979C51.0075 49.9755 51.3983 50.0925 45.1101 48.2537C45.1116 47.5621 45.1171 46.9613 45.1267 46.4364H48.9541C51.1236 46.4364 52.282 43.9221 50.9575 42.269L49.9477 41.0063C49.7646 40.7773 49.4303 40.74 49.2013 40.9233C48.9722 41.1065 48.935 41.4407 49.1182 41.6698L50.1282 42.9328C50.904 43.9009 50.2246 45.3743 48.9541 45.3743C40.1961 45.3743 40.8048 45.4219 40.6446 45.2631C40.4826 45.0997 40.5311 45.3974 40.5311 40.1152C41.3295 40.5247 41.5916 42.2744 41.5933 43.1583C41.5933 43.4516 41.8311 43.6894 42.1244 43.6894H46.8032C47.2449 43.6894 47.4944 43.1787 47.2209 42.8303L44.6665 39.5769C44.4854 39.3463 44.1516 39.3059 43.9208 39.487C43.6901 39.6681 43.6499 40.002 43.8309 40.2327L44.6208 41.2387C44.4986 41.6971 44.4 42.1274 44.3206 42.6272H42.6325C42.4927 40.819 41.7881 38.864 40 38.9636C38.2114 38.8643 37.5077 40.8157 37.3676 42.6272H35.6795C35.6001 42.1274 35.5016 41.6971 35.3793 41.2387L36.1692 40.2327C36.3503 40.0019 36.3101 39.6681 36.0793 39.487C35.8485 39.3059 35.5146 39.3461 35.3337 39.5769L32.7792 42.8303C32.5064 43.1778 32.7541 43.6894 33.1969 43.6894H37.8758C38.1687 43.6894 38.4063 43.4517 38.4068 43.1588C38.4085 42.2682 38.6723 40.5238 39.469 40.1152C39.469 45.3906 39.5163 45.1009 39.3585 45.2601C39.1941 45.4232 39.8428 45.3743 31.046 45.3743C29.7763 45.3743 29.0956 43.9016 29.8722 42.9324L34.179 37.5468C35.2631 36.7727 36.539 36.3639 37.8724 36.3639C42.1919 36.3639 43.7705 36.0923 45.7988 37.5182L46.4042 38.276C46.5873 38.5052 46.9216 38.5426 47.1506 38.3594C47.3798 38.1763 47.4171 37.8421 47.234 37.613C46.5416 36.7463 46.5612 36.7577 46.4775 36.6976C45.303 35.852 43.9101 35.3717 42.4684 35.3092C42.9082 34.8284 43.0251 34.4373 43.4691 33.4303C43.9354 32.3683 44.1937 31.2081 44.1937 30.0058C44.1937 28.7625 43.5499 27.5628 42.3626 26.8151C42.3626 25.7207 42.4838 24.9049 41.6705 24.0886C40.1932 22.6172 37.6373 23.6472 37.6373 25.7607V26.8151C36.5323 27.511 35.8062 28.6686 35.8062 30.0058C35.8062 31.1829 36.05 32.3351 36.5312 33.4311C37.0107 34.5188 37.1129 34.8517 37.5324 35.31C36.0152 35.3782 34.6116 35.9063 33.4928 36.7322C33.4064 36.7962 33.6837 36.4652 29.0429 42.2686C27.6905 43.9565 28.9171 46.4364 31.0459 46.4364H34.8733C34.8829 46.9613 34.8884 47.5621 34.8899 48.2537C28.5922 50.0953 28.9927 49.9755 28.9425 49.9977C26.4524 51.1028 25.837 54.4244 27.8665 56.3358H23.5365C23.2432 56.3358 23.0054 56.5735 23.0054 56.8668C23.0054 57.1601 23.2432 57.3979 23.5365 57.3979H56.4636C56.7569 57.3979 56.9947 57.1601 56.9947 56.8668C56.9947 56.5735 56.7569 56.3358 56.4636 56.3358ZM45.4579 42.305L45.7109 42.6272H45.3971C45.4162 42.5171 45.4365 42.4101 45.4579 42.305ZM34.5421 42.305C34.5636 42.4101 34.5838 42.5172 34.6029 42.6272H34.2891L34.5421 42.305ZM38.6995 25.7607C38.6995 24.6075 40.1025 24.026 40.9195 24.8397C41.3657 25.2877 41.3005 25.7461 41.3005 26.3343C40.4562 26.082 39.5452 26.0816 38.6995 26.3343V25.7607H38.6995ZM37.767 28.044C39.3526 26.6027 42.073 27.0985 42.9088 28.9671C41.4654 28.6704 40.5551 29.2564 39.799 29.744C38.9238 30.3086 38.2773 30.7251 36.8687 30.024C36.8686 29.2341 37.2089 28.5514 37.767 28.044ZM36.97 31.2222C38.3888 31.7363 39.2679 31.3506 40.3747 30.6366C41.1567 30.1321 41.8405 29.6922 43.13 30.1256C43.1017 31.8558 42.5158 32.9596 42.0251 34.0727C41.3067 35.7064 38.6926 35.7047 37.9747 34.0723C37.4832 32.9574 37.1537 32.3179 36.97 31.2222ZM35.7314 54.7341C35.0826 55.0585 34.3162 55.3266 34.0459 56.3251H33.2057V54.1027L35.7314 54.7341ZM35.1988 56.3251C35.385 56.0489 35.3958 56.0894 37.4905 55.042C37.502 55.0363 37.5276 55.022 37.5454 55.0102C38.5421 54.3458 38.6819 54.1825 39.1936 54.1825C39.7213 54.1825 40.1878 54.5188 40.3541 55.0193L40.4117 55.1925C40.4993 55.4559 40.7751 55.6072 41.0445 55.5401L46.7942 54.1027V56.3252H35.1988V56.3251ZM27.7121 53.5263C27.7121 52.4228 28.359 51.4333 29.3425 50.9826L35.4975 49.1827H41.2667C41.56 49.1827 41.7977 48.9449 41.7977 48.6516C41.7977 48.3584 41.56 48.1206 41.2667 48.1206H35.9517C35.9499 47.4861 35.9445 46.9291 35.9356 46.4364H39.0845C39.4202 46.4364 39.7394 46.322 39.9997 46.1098C40.2584 46.3213 40.5786 46.4364 40.9154 46.4364H44.0643C44.0511 47.1657 44.0476 47.9248 44.0476 48.6543C44.0481 48.7575 44.0787 48.8608 44.1389 48.9496C44.2932 49.1775 43.8999 49.0065 50.6573 50.9826C52.4227 51.7933 52.8484 54.1254 51.4682 55.5055C50.9397 56.0341 50.2368 56.3252 49.4891 56.3252H47.8563V53.8372L48.3697 53.7089C48.6542 53.6377 48.8273 53.3494 48.7561 53.0648C48.685 52.7804 48.3971 52.6074 48.1121 52.6784L41.2436 54.3954C40.6122 53.1104 39.0058 52.7598 37.8809 53.5101L37.1538 53.9949L31.8877 52.6784C31.6033 52.6075 31.3148 52.7802 31.2437 53.0648C31.1726 53.3494 31.3456 53.6377 31.6301 53.7089L32.1435 53.8372V56.3252H30.5108C28.9676 56.3251 27.7121 55.0697 27.7121 53.5263Z" fill="#704514"/>
<path d="M47.8135 40.0382C47.9974 40.2673 48.3316 40.3032 48.5601 40.1198C48.7888 39.9362 48.8253 39.6019 48.6417 39.3732L48.558 39.2689C48.3744 39.0402 48.0402 39.0037 47.8114 39.1873C47.5827 39.3709 47.5462 39.7052 47.7298 39.9339L47.8135 40.0382Z" fill="#704514"/>
</g>
<defs>
<clipPath id="clip0_3387_2732">
<rect width="34" height="34" fill="white" transform="translate(23 23.3979)"/>
</clipPath>
</defs>
</svg>
