<svg width="80" height="81" viewBox="0 0 80 81" fill="none" xmlns="http://www.w3.org/2000/svg">
<circle cx="40" cy="40.4434" r="40" fill="#704514"/>
<circle cx="40.0003" cy="40.4436" r="32.1038" fill="white"/>
<g clip-path="url(#clip0_3387_2734)">
<path d="M56.4641 56.3812H52.1367C54.1698 54.4629 53.5418 51.1473 51.0583 50.0434C51.0079 50.0209 51.3988 50.138 45.1106 48.2991C45.1121 47.6075 45.1176 47.0068 45.1272 46.4818H48.9546C51.1241 46.4818 52.2825 43.9675 50.958 42.3144L49.9482 41.0517C49.7651 40.8227 49.4308 40.7854 49.2018 40.9687C48.9727 41.1519 48.9355 41.4861 49.1187 41.7152L50.1287 42.9782C50.9044 43.9463 50.2251 45.4197 48.9546 45.4197C40.1966 45.4197 40.8052 45.4673 40.6451 45.3085C40.4831 45.1451 40.5316 45.4428 40.5316 40.1606C41.33 40.5701 41.5921 42.3198 41.5938 43.2037C41.5938 43.497 41.8316 43.7348 42.1248 43.7348H46.8037C47.2454 43.7348 47.4949 43.2241 47.2214 42.8757L44.6669 39.6223C44.4859 39.3917 44.1521 39.3513 43.9213 39.5324C43.6905 39.7135 43.6504 40.0474 43.8314 40.2781L44.6213 41.2841C44.4991 41.7425 44.4005 42.1728 44.3211 42.6727H42.633C42.4932 40.8644 41.7886 38.9094 40.0005 39.009C38.2119 38.9097 37.5082 40.8611 37.3681 42.6727H35.68C35.6006 42.1728 35.502 41.7425 35.3798 41.2841L36.1697 40.2781C36.3508 40.0473 36.3106 39.7135 36.0798 39.5324C35.849 39.3513 35.5151 39.3916 35.3342 39.6223L32.7797 42.8757C32.5069 43.2232 32.7546 43.7348 33.1974 43.7348H37.8763C38.1691 43.7348 38.4068 43.4972 38.4073 43.2042C38.409 42.3136 38.6727 40.5692 39.4695 40.1606C39.4695 45.436 39.5168 45.1463 39.359 45.3055C39.1946 45.4686 39.8433 45.4197 31.0465 45.4197C29.7768 45.4197 29.0961 43.947 29.8727 42.9778L34.1794 37.5922C35.2636 36.8181 36.5395 36.4093 37.8729 36.4093C42.1924 36.4093 43.771 36.1377 45.7993 37.5636L46.4047 38.3214C46.5878 38.5507 46.9221 38.588 47.1511 38.4048C47.3802 38.2217 47.4176 37.8875 47.2345 37.6584C46.5421 36.7917 46.5616 36.8031 46.478 36.743C45.3035 35.8974 43.9105 35.4171 42.4689 35.3546C42.9087 34.8738 43.0256 34.4828 43.4695 33.4758C43.9358 32.4137 44.1942 31.2535 44.1942 30.0512C44.1942 28.8079 43.5503 27.6082 42.3631 26.8605C42.3631 25.7662 42.4843 24.9503 41.671 24.134C40.1937 22.6626 37.6378 23.6926 37.6378 25.8061V26.8605C36.5328 27.5564 35.8067 28.714 35.8067 30.0512C35.8067 31.2283 36.0505 32.3805 36.5317 33.4765C37.0112 34.5642 37.1133 34.8971 37.5329 35.3554C36.0157 35.4236 34.6121 35.9517 33.4933 36.7776C33.4069 36.8416 33.6842 36.5106 29.0433 42.314C27.6909 44.0019 28.9176 46.4818 31.0464 46.4818H34.8738C34.8834 47.0068 34.8888 47.6075 34.8904 48.2991C28.5927 50.1407 28.9932 50.0209 28.943 50.0432C26.4529 51.1482 25.8375 54.4698 27.867 56.3812H23.5369C23.2437 56.3812 23.0059 56.619 23.0059 56.9122C23.0059 57.2055 23.2437 57.4433 23.5369 57.4433H56.4641C56.7574 57.4433 56.9952 57.2055 56.9952 56.9122C56.9952 56.619 56.7574 56.3812 56.4641 56.3812ZM45.4584 42.3504L45.7114 42.6727H45.3976C45.4167 42.5625 45.4369 42.4555 45.4584 42.3504ZM34.5426 42.3504C34.5641 42.4555 34.5843 42.5626 34.6034 42.6727H34.2896L34.5426 42.3504ZM38.7 25.8061C38.7 24.6529 40.103 24.0714 40.92 24.8851C41.3662 25.3331 41.3009 25.7915 41.3009 26.3798C40.4566 26.1274 39.5457 26.127 38.7 26.3798V25.8061H38.7ZM37.7675 28.0894C39.3531 26.6481 42.0735 27.1439 42.9093 29.0125C41.4659 28.7158 40.5556 29.3018 39.7995 29.7894C38.9243 30.3541 38.2777 30.7705 36.8692 30.0694C36.8691 29.2795 37.2093 28.5968 37.7675 28.0894ZM36.9705 31.2676C38.3893 31.7817 39.2684 31.396 40.3752 30.682C41.1572 30.1775 41.841 29.7376 43.1305 30.171C43.1022 31.9012 42.5163 33.005 42.0256 34.1181C41.3072 35.7518 38.6931 35.7501 37.9752 34.1177C37.4837 33.0028 37.1542 32.3633 36.9705 31.2676ZM35.7319 54.7795C35.0831 55.1039 34.3167 55.372 34.0464 56.3705H33.2062V54.1481L35.7319 54.7795ZM35.1993 56.3705C35.3855 56.0943 35.3963 56.1348 37.491 55.0874C37.5025 55.0817 37.5281 55.0674 37.5458 55.0556C38.5426 54.3912 38.6824 54.2279 39.1941 54.2279C39.7218 54.2279 40.1883 54.5642 40.3546 55.0647L40.4122 55.2379C40.4998 55.5013 40.7756 55.6527 41.045 55.5855L46.7947 54.1481V56.3706H35.1993V56.3705ZM27.7126 53.5717C27.7126 52.4682 28.3594 51.4787 29.3429 51.028L35.498 49.2281H41.2671C41.5604 49.2281 41.7982 48.9904 41.7982 48.6971C41.7982 48.4038 41.5604 48.166 41.2671 48.166H35.9522C35.9504 47.5315 35.945 46.9746 35.9361 46.4818H39.085C39.4207 46.4818 39.7399 46.3674 40.0002 46.1552C40.2589 46.3667 40.5791 46.4818 40.9159 46.4818H44.0648C44.0516 47.2111 44.0481 47.9702 44.0481 48.6997C44.0486 48.8029 44.0792 48.9062 44.1394 48.995C44.2937 49.2229 43.9004 49.052 50.6578 51.028C52.4232 51.8387 52.8489 54.1708 51.4687 55.5509C50.9402 56.0795 50.2373 56.3706 49.4896 56.3706H47.8568V53.8826L48.3702 53.7543C48.6547 53.6831 48.8278 53.3948 48.7565 53.1102C48.6855 52.8258 48.3976 52.6528 48.1125 52.7238L41.2441 54.4409C40.6127 53.1558 39.0063 52.8053 37.8814 53.5555L37.1542 54.0403L31.8882 52.7238C31.6038 52.6529 31.3153 52.8256 31.2442 53.1102C31.1731 53.3948 31.3461 53.6831 31.6306 53.7543L32.1439 53.8826V56.3706H30.5113C28.9681 56.3705 27.7126 55.1151 27.7126 53.5717Z" fill="#704514"/>
<path d="M47.814 40.0836C47.9979 40.3127 48.3321 40.3486 48.5606 40.1652C48.7893 39.9816 48.8258 39.6473 48.6422 39.4186L48.5585 39.3144C48.3749 39.0856 48.0407 39.0491 47.8119 39.2327C47.5832 39.4163 47.5466 39.7506 47.7303 39.9793L47.814 40.0836Z" fill="#704514"/>
</g>
<defs>
<clipPath id="clip0_3387_2734">
<rect width="34" height="34" fill="white" transform="translate(23.0005 23.4434)"/>
</clipPath>
</defs>
</svg>
