<svg width="80" height="81" viewBox="0 0 80 81" fill="none" xmlns="http://www.w3.org/2000/svg">
<circle cx="40" cy="40.4205" r="40" fill="#704514"/>
<circle cx="40.0003" cy="40.4202" r="32.1038" fill="white"/>
<g clip-path="url(#clip0_3387_2736)">
<path d="M56.5024 54.3125H54.5837C55.0275 53.7063 55.2104 52.9375 55.069 52.1743C54.9925 51.7626 54.8262 51.3842 54.5914 51.0584C55.0122 50.9614 55.4153 50.7707 55.7686 50.488C55.9686 50.3279 56.0856 50.089 56.0897 49.833C56.0939 49.5767 55.9847 49.3342 55.7899 49.1676L51.1801 45.2266C50.8408 44.9363 50.5863 44.5594 50.4444 44.136L49.3674 40.92C49.3671 40.919 49.3666 40.9179 49.3664 40.9169L48.3965 38.0217C47.9568 36.7089 46.9057 35.6776 45.5848 35.2628L42.2448 34.2138C43.1517 33.5743 43.7457 32.5194 43.7457 31.3277V29.0094C43.7457 27.0626 42.1618 25.479 40.2153 25.479C38.2687 25.479 36.6848 27.0626 36.6848 29.0094V31.3279C36.6848 32.4646 37.2254 33.4771 38.0625 34.123C37.9759 34.1468 37.8895 34.172 37.8034 34.199L34.4161 35.2628C33.0953 35.6776 32.0442 36.7089 31.6045 38.0217L29.5563 44.136C29.4144 44.5594 29.1602 44.9366 28.8209 45.2266L24.2111 49.1679C24.0163 49.3344 23.9071 49.5767 23.9112 49.833C23.9154 50.0893 24.0324 50.3279 24.2324 50.488C24.6018 50.7837 25.0254 50.9787 25.4669 51.0711C25.05 51.8381 24.9709 52.7735 25.2923 53.6215C25.3898 53.8781 25.5182 54.1092 25.6728 54.3128H23.4985C23.2233 54.3128 23.0005 54.5356 23.0005 54.8109C23.0005 55.0858 23.2233 55.3089 23.4985 55.3089H53.3077H53.3082H53.3087H56.5024C56.7777 55.3089 57.0005 55.0858 57.0005 54.8109C57.0005 54.5356 56.7774 54.3125 56.5024 54.3125ZM45.168 42.694L46.927 47.0709C46.9368 47.0953 46.9485 47.1189 46.962 47.1414C47.2733 47.6597 47.7166 48.089 48.2445 48.3835L48.8276 48.7085L45.168 47.591V42.694ZM50.5326 45.9837L55.0091 49.8107C54.4088 50.2117 53.6361 50.2472 52.9967 49.8919L48.7295 47.5134C48.3646 47.3101 48.0561 47.0156 47.8356 46.661L46.2678 42.7597L48.5931 41.7446L49.5 44.4523C49.6992 45.0468 50.0564 45.5762 50.5326 45.9837ZM37.6809 31.3279V29.0094C37.6809 27.612 38.8179 26.4751 40.2153 26.4751C41.6127 26.4751 42.7496 27.612 42.7496 29.0094V31.3279C42.7496 32.7253 41.6127 33.8623 40.2153 33.8623C38.8179 33.8623 37.6809 32.7253 37.6809 31.3279ZM34.7144 36.213L38.1019 35.1494C39.3439 34.7593 40.657 34.7593 41.899 35.1494L45.2865 36.213C46.3039 36.5325 47.1135 37.3268 47.452 38.3382L48.2756 40.7965L45.8961 41.8349L45.1319 39.9335C45.043 39.7122 44.8098 39.5849 44.5753 39.6303C44.341 39.6757 44.1719 39.8809 44.1719 40.1192V47.4615H35.8291V40.1192C35.8291 39.8809 35.66 39.6757 35.4257 39.6303C35.192 39.5849 34.958 39.7122 34.869 39.9335L34.2076 41.5791L31.8572 40.4038L32.549 38.3382C32.8875 37.3268 33.6971 36.5325 34.7144 36.213ZM29.4681 45.9837C29.9446 45.5762 30.3018 45.0468 30.5008 44.4523L31.5373 41.3576L33.8348 42.5065L33.4727 43.4074C33.3702 43.6626 33.494 43.9527 33.7492 44.0554C34.0042 44.1578 34.2945 44.0341 34.3969 43.7789L34.833 42.6943V47.5894L31.2452 48.6685L31.7563 48.3835C32.2841 48.0893 32.7277 47.66 33.039 47.1417C33.0525 47.1191 33.0641 47.0955 33.074 47.0709L33.4462 46.1443C33.549 45.8891 33.4252 45.5991 33.17 45.4966C32.9147 45.3939 32.6247 45.5176 32.522 45.7729L32.1651 46.661C31.9446 47.0159 31.6364 47.3101 31.2714 47.5134L27.0048 49.8916C26.3649 50.2472 25.5924 50.2117 24.9919 49.8107L29.4681 45.9837ZM27.7605 54.3125H27.7587C27.0349 54.3125 26.4757 53.932 26.2238 53.2682C25.939 52.517 26.134 51.6314 26.6962 51.0765L35.4042 48.4576H44.5957L52.8628 50.9821C53.5079 51.179 53.9666 51.6926 54.0895 52.3559C54.2125 53.0192 53.9686 53.663 53.4369 54.078L53.1367 54.3128H42.6191C42.5548 53.9637 42.3997 53.4993 42.0326 53.0861L43.0248 53.0314C43.2995 53.0163 43.5099 52.7813 43.4946 52.5066C43.4796 52.2322 43.2445 52.022 42.9701 52.0368L40.2708 52.186C40.1566 52.1655 40.0376 52.1484 39.9126 52.1357L32.231 51.3333C31.9555 51.3046 31.7124 51.5035 31.6839 51.7769C31.6553 52.0506 31.854 52.2955 32.1275 52.324L39.8096 53.1263C39.9258 53.1382 40.035 53.1546 40.1372 53.1743C40.1393 53.1748 40.1416 53.1751 40.1437 53.1756C41.138 53.3707 41.4876 53.9118 41.6082 54.3125H27.7605Z" fill="#704514"/>
<path d="M45.5798 52.8893C45.5889 52.8893 45.5982 52.8893 45.6076 52.8888L48.9665 52.7034C49.241 52.6881 49.4513 52.4533 49.4363 52.1786C49.4212 51.9039 49.186 51.6933 48.9115 51.7088L45.5528 51.8943C45.2781 51.9093 45.0677 52.1443 45.0828 52.4188C45.0976 52.6842 45.317 52.8893 45.5798 52.8893Z" fill="#704514"/>
</g>
<defs>
<clipPath id="clip0_3387_2736">
<rect width="34" height="34" fill="white" transform="translate(23.0005 23.4204)"/>
</clipPath>
</defs>
</svg>
